%TF.GenerationSoftware,KiCad,Pcbnew,9.0.7-9.0.7~ubuntu24.04.1*%
%TF.CreationDate,2026-02-08T16:40:45+01:00*%
%TF.ProjectId,PCB-V2,5043422d-5632-42e6-9b69-6361645f7063,rev?*%
%TF.SameCoordinates,Original*%
%TF.FileFunction,Legend,Top*%
%TF.FilePolarity,Positive*%
%FSLAX46Y46*%
G04 Gerber Fmt 4.6, Leading zero omitted, Abs format (unit mm)*
G04 Created by KiCad (PCBNEW 9.0.7-9.0.7~ubuntu24.04.1) date 2026-02-08 16:40:45*
%MOMM*%
%LPD*%
G01*
G04 APERTURE LIST*
%ADD10C,0.300000*%
%ADD11C,0.200000*%
%ADD12C,0.150000*%
%ADD13C,0.127000*%
%ADD14C,0.120000*%
%ADD15C,0.100000*%
G04 APERTURE END LIST*
D10*
X143679400Y-132545489D02*
X143679400Y-131402632D01*
X56704510Y-184915114D02*
X56918796Y-184986542D01*
X56918796Y-184986542D02*
X56990225Y-185057971D01*
X56990225Y-185057971D02*
X57061653Y-185200828D01*
X57061653Y-185200828D02*
X57061653Y-185415114D01*
X57061653Y-185415114D02*
X56990225Y-185557971D01*
X56990225Y-185557971D02*
X56918796Y-185629400D01*
X56918796Y-185629400D02*
X56775939Y-185700828D01*
X56775939Y-185700828D02*
X56204510Y-185700828D01*
X56204510Y-185700828D02*
X56204510Y-184200828D01*
X56204510Y-184200828D02*
X56704510Y-184200828D01*
X56704510Y-184200828D02*
X56847368Y-184272257D01*
X56847368Y-184272257D02*
X56918796Y-184343685D01*
X56918796Y-184343685D02*
X56990225Y-184486542D01*
X56990225Y-184486542D02*
X56990225Y-184629400D01*
X56990225Y-184629400D02*
X56918796Y-184772257D01*
X56918796Y-184772257D02*
X56847368Y-184843685D01*
X56847368Y-184843685D02*
X56704510Y-184915114D01*
X56704510Y-184915114D02*
X56204510Y-184915114D01*
X143404510Y-137229400D02*
X144547368Y-137229400D01*
X143975939Y-137800828D02*
X143975939Y-136657971D01*
X51733082Y-185272257D02*
X52447368Y-185272257D01*
X51590225Y-185700828D02*
X52090225Y-184200828D01*
X52090225Y-184200828D02*
X52590225Y-185700828D01*
X84633082Y-184872257D02*
X85347368Y-184872257D01*
X84490225Y-185300828D02*
X84990225Y-183800828D01*
X84990225Y-183800828D02*
X85490225Y-185300828D01*
X94040225Y-183872257D02*
X93897368Y-183800828D01*
X93897368Y-183800828D02*
X93683082Y-183800828D01*
X93683082Y-183800828D02*
X93468796Y-183872257D01*
X93468796Y-183872257D02*
X93325939Y-184015114D01*
X93325939Y-184015114D02*
X93254510Y-184157971D01*
X93254510Y-184157971D02*
X93183082Y-184443685D01*
X93183082Y-184443685D02*
X93183082Y-184657971D01*
X93183082Y-184657971D02*
X93254510Y-184943685D01*
X93254510Y-184943685D02*
X93325939Y-185086542D01*
X93325939Y-185086542D02*
X93468796Y-185229400D01*
X93468796Y-185229400D02*
X93683082Y-185300828D01*
X93683082Y-185300828D02*
X93825939Y-185300828D01*
X93825939Y-185300828D02*
X94040225Y-185229400D01*
X94040225Y-185229400D02*
X94111653Y-185157971D01*
X94111653Y-185157971D02*
X94111653Y-184657971D01*
X94111653Y-184657971D02*
X93825939Y-184657971D01*
X94754510Y-185300828D02*
X94754510Y-183800828D01*
X94754510Y-183800828D02*
X95611653Y-185300828D01*
X95611653Y-185300828D02*
X95611653Y-183800828D01*
X96325939Y-185300828D02*
X96325939Y-183800828D01*
X96325939Y-183800828D02*
X96683082Y-183800828D01*
X96683082Y-183800828D02*
X96897368Y-183872257D01*
X96897368Y-183872257D02*
X97040225Y-184015114D01*
X97040225Y-184015114D02*
X97111654Y-184157971D01*
X97111654Y-184157971D02*
X97183082Y-184443685D01*
X97183082Y-184443685D02*
X97183082Y-184657971D01*
X97183082Y-184657971D02*
X97111654Y-184943685D01*
X97111654Y-184943685D02*
X97040225Y-185086542D01*
X97040225Y-185086542D02*
X96897368Y-185229400D01*
X96897368Y-185229400D02*
X96683082Y-185300828D01*
X96683082Y-185300828D02*
X96325939Y-185300828D01*
X90054510Y-184515114D02*
X90268796Y-184586542D01*
X90268796Y-184586542D02*
X90340225Y-184657971D01*
X90340225Y-184657971D02*
X90411653Y-184800828D01*
X90411653Y-184800828D02*
X90411653Y-185015114D01*
X90411653Y-185015114D02*
X90340225Y-185157971D01*
X90340225Y-185157971D02*
X90268796Y-185229400D01*
X90268796Y-185229400D02*
X90125939Y-185300828D01*
X90125939Y-185300828D02*
X89554510Y-185300828D01*
X89554510Y-185300828D02*
X89554510Y-183800828D01*
X89554510Y-183800828D02*
X90054510Y-183800828D01*
X90054510Y-183800828D02*
X90197368Y-183872257D01*
X90197368Y-183872257D02*
X90268796Y-183943685D01*
X90268796Y-183943685D02*
X90340225Y-184086542D01*
X90340225Y-184086542D02*
X90340225Y-184229400D01*
X90340225Y-184229400D02*
X90268796Y-184372257D01*
X90268796Y-184372257D02*
X90197368Y-184443685D01*
X90197368Y-184443685D02*
X90054510Y-184515114D01*
X90054510Y-184515114D02*
X89554510Y-184515114D01*
X60690225Y-184272257D02*
X60547368Y-184200828D01*
X60547368Y-184200828D02*
X60333082Y-184200828D01*
X60333082Y-184200828D02*
X60118796Y-184272257D01*
X60118796Y-184272257D02*
X59975939Y-184415114D01*
X59975939Y-184415114D02*
X59904510Y-184557971D01*
X59904510Y-184557971D02*
X59833082Y-184843685D01*
X59833082Y-184843685D02*
X59833082Y-185057971D01*
X59833082Y-185057971D02*
X59904510Y-185343685D01*
X59904510Y-185343685D02*
X59975939Y-185486542D01*
X59975939Y-185486542D02*
X60118796Y-185629400D01*
X60118796Y-185629400D02*
X60333082Y-185700828D01*
X60333082Y-185700828D02*
X60475939Y-185700828D01*
X60475939Y-185700828D02*
X60690225Y-185629400D01*
X60690225Y-185629400D02*
X60761653Y-185557971D01*
X60761653Y-185557971D02*
X60761653Y-185057971D01*
X60761653Y-185057971D02*
X60475939Y-185057971D01*
X61404510Y-185700828D02*
X61404510Y-184200828D01*
X61404510Y-184200828D02*
X62261653Y-185700828D01*
X62261653Y-185700828D02*
X62261653Y-184200828D01*
X62975939Y-185700828D02*
X62975939Y-184200828D01*
X62975939Y-184200828D02*
X63333082Y-184200828D01*
X63333082Y-184200828D02*
X63547368Y-184272257D01*
X63547368Y-184272257D02*
X63690225Y-184415114D01*
X63690225Y-184415114D02*
X63761654Y-184557971D01*
X63761654Y-184557971D02*
X63833082Y-184843685D01*
X63833082Y-184843685D02*
X63833082Y-185057971D01*
X63833082Y-185057971D02*
X63761654Y-185343685D01*
X63761654Y-185343685D02*
X63690225Y-185486542D01*
X63690225Y-185486542D02*
X63547368Y-185629400D01*
X63547368Y-185629400D02*
X63333082Y-185700828D01*
X63333082Y-185700828D02*
X62975939Y-185700828D01*
D11*
X144519600Y-124677945D02*
X144567219Y-124582707D01*
X144567219Y-124582707D02*
X144567219Y-124392231D01*
X144567219Y-124392231D02*
X144519600Y-124296993D01*
X144519600Y-124296993D02*
X144424361Y-124249374D01*
X144424361Y-124249374D02*
X144376742Y-124249374D01*
X144376742Y-124249374D02*
X144281504Y-124296993D01*
X144281504Y-124296993D02*
X144233885Y-124392231D01*
X144233885Y-124392231D02*
X144233885Y-124535088D01*
X144233885Y-124535088D02*
X144186266Y-124630326D01*
X144186266Y-124630326D02*
X144091028Y-124677945D01*
X144091028Y-124677945D02*
X144043409Y-124677945D01*
X144043409Y-124677945D02*
X143948171Y-124630326D01*
X143948171Y-124630326D02*
X143900552Y-124535088D01*
X143900552Y-124535088D02*
X143900552Y-124392231D01*
X143900552Y-124392231D02*
X143948171Y-124296993D01*
X143900552Y-123916040D02*
X144567219Y-123725564D01*
X144567219Y-123725564D02*
X144091028Y-123535088D01*
X144091028Y-123535088D02*
X144567219Y-123344612D01*
X144567219Y-123344612D02*
X143900552Y-123154136D01*
X144567219Y-122773183D02*
X143900552Y-122773183D01*
X143567219Y-122773183D02*
X143614838Y-122820802D01*
X143614838Y-122820802D02*
X143662457Y-122773183D01*
X143662457Y-122773183D02*
X143614838Y-122725564D01*
X143614838Y-122725564D02*
X143567219Y-122773183D01*
X143567219Y-122773183D02*
X143662457Y-122773183D01*
X143900552Y-122439850D02*
X143900552Y-122058898D01*
X143567219Y-122296993D02*
X144424361Y-122296993D01*
X144424361Y-122296993D02*
X144519600Y-122249374D01*
X144519600Y-122249374D02*
X144567219Y-122154136D01*
X144567219Y-122154136D02*
X144567219Y-122058898D01*
X144519600Y-121296993D02*
X144567219Y-121392231D01*
X144567219Y-121392231D02*
X144567219Y-121582707D01*
X144567219Y-121582707D02*
X144519600Y-121677945D01*
X144519600Y-121677945D02*
X144471980Y-121725564D01*
X144471980Y-121725564D02*
X144376742Y-121773183D01*
X144376742Y-121773183D02*
X144091028Y-121773183D01*
X144091028Y-121773183D02*
X143995790Y-121725564D01*
X143995790Y-121725564D02*
X143948171Y-121677945D01*
X143948171Y-121677945D02*
X143900552Y-121582707D01*
X143900552Y-121582707D02*
X143900552Y-121392231D01*
X143900552Y-121392231D02*
X143948171Y-121296993D01*
X144567219Y-120868421D02*
X143567219Y-120868421D01*
X144567219Y-120439850D02*
X144043409Y-120439850D01*
X144043409Y-120439850D02*
X143948171Y-120487469D01*
X143948171Y-120487469D02*
X143900552Y-120582707D01*
X143900552Y-120582707D02*
X143900552Y-120725564D01*
X143900552Y-120725564D02*
X143948171Y-120820802D01*
X143948171Y-120820802D02*
X143995790Y-120868421D01*
D12*
X103088095Y-124261319D02*
X103088095Y-125070842D01*
X103088095Y-125070842D02*
X103135714Y-125166080D01*
X103135714Y-125166080D02*
X103183333Y-125213700D01*
X103183333Y-125213700D02*
X103278571Y-125261319D01*
X103278571Y-125261319D02*
X103469047Y-125261319D01*
X103469047Y-125261319D02*
X103564285Y-125213700D01*
X103564285Y-125213700D02*
X103611904Y-125166080D01*
X103611904Y-125166080D02*
X103659523Y-125070842D01*
X103659523Y-125070842D02*
X103659523Y-124261319D01*
X104040476Y-124261319D02*
X104659523Y-124261319D01*
X104659523Y-124261319D02*
X104326190Y-124642271D01*
X104326190Y-124642271D02*
X104469047Y-124642271D01*
X104469047Y-124642271D02*
X104564285Y-124689890D01*
X104564285Y-124689890D02*
X104611904Y-124737509D01*
X104611904Y-124737509D02*
X104659523Y-124832747D01*
X104659523Y-124832747D02*
X104659523Y-125070842D01*
X104659523Y-125070842D02*
X104611904Y-125166080D01*
X104611904Y-125166080D02*
X104564285Y-125213700D01*
X104564285Y-125213700D02*
X104469047Y-125261319D01*
X104469047Y-125261319D02*
X104183333Y-125261319D01*
X104183333Y-125261319D02*
X104088095Y-125213700D01*
X104088095Y-125213700D02*
X104040476Y-125166080D01*
X85258333Y-168563366D02*
X85258333Y-169563366D01*
X85258333Y-169563366D02*
X85191666Y-169763366D01*
X85191666Y-169763366D02*
X85058333Y-169896700D01*
X85058333Y-169896700D02*
X84858333Y-169963366D01*
X84858333Y-169963366D02*
X84725000Y-169963366D01*
X85791667Y-168563366D02*
X86658333Y-168563366D01*
X86658333Y-168563366D02*
X86191667Y-169096700D01*
X86191667Y-169096700D02*
X86391667Y-169096700D01*
X86391667Y-169096700D02*
X86525000Y-169163366D01*
X86525000Y-169163366D02*
X86591667Y-169230033D01*
X86591667Y-169230033D02*
X86658333Y-169363366D01*
X86658333Y-169363366D02*
X86658333Y-169696700D01*
X86658333Y-169696700D02*
X86591667Y-169830033D01*
X86591667Y-169830033D02*
X86525000Y-169896700D01*
X86525000Y-169896700D02*
X86391667Y-169963366D01*
X86391667Y-169963366D02*
X85991667Y-169963366D01*
X85991667Y-169963366D02*
X85858333Y-169896700D01*
X85858333Y-169896700D02*
X85791667Y-169830033D01*
X122633204Y-117205176D02*
X122299614Y-116728618D01*
X122061335Y-117205176D02*
X122061335Y-116204404D01*
X122061335Y-116204404D02*
X122442581Y-116204404D01*
X122442581Y-116204404D02*
X122537893Y-116252060D01*
X122537893Y-116252060D02*
X122585548Y-116299716D01*
X122585548Y-116299716D02*
X122633204Y-116395028D01*
X122633204Y-116395028D02*
X122633204Y-116537995D01*
X122633204Y-116537995D02*
X122585548Y-116633307D01*
X122585548Y-116633307D02*
X122537893Y-116680962D01*
X122537893Y-116680962D02*
X122442581Y-116728618D01*
X122442581Y-116728618D02*
X122061335Y-116728618D01*
X122966795Y-116204404D02*
X123633976Y-116204404D01*
X123633976Y-116204404D02*
X123205074Y-117205176D01*
X101354467Y-155666666D02*
X101402087Y-155714285D01*
X101402087Y-155714285D02*
X101449706Y-155857142D01*
X101449706Y-155857142D02*
X101449706Y-155952380D01*
X101449706Y-155952380D02*
X101402087Y-156095237D01*
X101402087Y-156095237D02*
X101306848Y-156190475D01*
X101306848Y-156190475D02*
X101211610Y-156238094D01*
X101211610Y-156238094D02*
X101021134Y-156285713D01*
X101021134Y-156285713D02*
X100878277Y-156285713D01*
X100878277Y-156285713D02*
X100687801Y-156238094D01*
X100687801Y-156238094D02*
X100592563Y-156190475D01*
X100592563Y-156190475D02*
X100497325Y-156095237D01*
X100497325Y-156095237D02*
X100449706Y-155952380D01*
X100449706Y-155952380D02*
X100449706Y-155857142D01*
X100449706Y-155857142D02*
X100497325Y-155714285D01*
X100497325Y-155714285D02*
X100544944Y-155666666D01*
X100449706Y-155333332D02*
X100449706Y-154666666D01*
X100449706Y-154666666D02*
X101449706Y-155095237D01*
X83643095Y-157259819D02*
X83643095Y-158069342D01*
X83643095Y-158069342D02*
X83690714Y-158164580D01*
X83690714Y-158164580D02*
X83738333Y-158212200D01*
X83738333Y-158212200D02*
X83833571Y-158259819D01*
X83833571Y-158259819D02*
X84024047Y-158259819D01*
X84024047Y-158259819D02*
X84119285Y-158212200D01*
X84119285Y-158212200D02*
X84166904Y-158164580D01*
X84166904Y-158164580D02*
X84214523Y-158069342D01*
X84214523Y-158069342D02*
X84214523Y-157259819D01*
X84643095Y-157355057D02*
X84690714Y-157307438D01*
X84690714Y-157307438D02*
X84785952Y-157259819D01*
X84785952Y-157259819D02*
X85024047Y-157259819D01*
X85024047Y-157259819D02*
X85119285Y-157307438D01*
X85119285Y-157307438D02*
X85166904Y-157355057D01*
X85166904Y-157355057D02*
X85214523Y-157450295D01*
X85214523Y-157450295D02*
X85214523Y-157545533D01*
X85214523Y-157545533D02*
X85166904Y-157688390D01*
X85166904Y-157688390D02*
X84595476Y-158259819D01*
X84595476Y-158259819D02*
X85214523Y-158259819D01*
X93359819Y-153638332D02*
X94359819Y-153304999D01*
X94359819Y-153304999D02*
X93359819Y-152971666D01*
X94264580Y-152066904D02*
X94312200Y-152114523D01*
X94312200Y-152114523D02*
X94359819Y-152257380D01*
X94359819Y-152257380D02*
X94359819Y-152352618D01*
X94359819Y-152352618D02*
X94312200Y-152495475D01*
X94312200Y-152495475D02*
X94216961Y-152590713D01*
X94216961Y-152590713D02*
X94121723Y-152638332D01*
X94121723Y-152638332D02*
X93931247Y-152685951D01*
X93931247Y-152685951D02*
X93788390Y-152685951D01*
X93788390Y-152685951D02*
X93597914Y-152638332D01*
X93597914Y-152638332D02*
X93502676Y-152590713D01*
X93502676Y-152590713D02*
X93407438Y-152495475D01*
X93407438Y-152495475D02*
X93359819Y-152352618D01*
X93359819Y-152352618D02*
X93359819Y-152257380D01*
X93359819Y-152257380D02*
X93407438Y-152114523D01*
X93407438Y-152114523D02*
X93455057Y-152066904D01*
X94264580Y-151066904D02*
X94312200Y-151114523D01*
X94312200Y-151114523D02*
X94359819Y-151257380D01*
X94359819Y-151257380D02*
X94359819Y-151352618D01*
X94359819Y-151352618D02*
X94312200Y-151495475D01*
X94312200Y-151495475D02*
X94216961Y-151590713D01*
X94216961Y-151590713D02*
X94121723Y-151638332D01*
X94121723Y-151638332D02*
X93931247Y-151685951D01*
X93931247Y-151685951D02*
X93788390Y-151685951D01*
X93788390Y-151685951D02*
X93597914Y-151638332D01*
X93597914Y-151638332D02*
X93502676Y-151590713D01*
X93502676Y-151590713D02*
X93407438Y-151495475D01*
X93407438Y-151495475D02*
X93359819Y-151352618D01*
X93359819Y-151352618D02*
X93359819Y-151257380D01*
X93359819Y-151257380D02*
X93407438Y-151114523D01*
X93407438Y-151114523D02*
X93455057Y-151066904D01*
X94359819Y-117019285D02*
X93883628Y-117352618D01*
X94359819Y-117590713D02*
X93359819Y-117590713D01*
X93359819Y-117590713D02*
X93359819Y-117209761D01*
X93359819Y-117209761D02*
X93407438Y-117114523D01*
X93407438Y-117114523D02*
X93455057Y-117066904D01*
X93455057Y-117066904D02*
X93550295Y-117019285D01*
X93550295Y-117019285D02*
X93693152Y-117019285D01*
X93693152Y-117019285D02*
X93788390Y-117066904D01*
X93788390Y-117066904D02*
X93836009Y-117114523D01*
X93836009Y-117114523D02*
X93883628Y-117209761D01*
X93883628Y-117209761D02*
X93883628Y-117590713D01*
X93359819Y-116400237D02*
X93359819Y-116209761D01*
X93359819Y-116209761D02*
X93407438Y-116114523D01*
X93407438Y-116114523D02*
X93502676Y-116019285D01*
X93502676Y-116019285D02*
X93693152Y-115971666D01*
X93693152Y-115971666D02*
X94026485Y-115971666D01*
X94026485Y-115971666D02*
X94216961Y-116019285D01*
X94216961Y-116019285D02*
X94312200Y-116114523D01*
X94312200Y-116114523D02*
X94359819Y-116209761D01*
X94359819Y-116209761D02*
X94359819Y-116400237D01*
X94359819Y-116400237D02*
X94312200Y-116495475D01*
X94312200Y-116495475D02*
X94216961Y-116590713D01*
X94216961Y-116590713D02*
X94026485Y-116638332D01*
X94026485Y-116638332D02*
X93693152Y-116638332D01*
X93693152Y-116638332D02*
X93502676Y-116590713D01*
X93502676Y-116590713D02*
X93407438Y-116495475D01*
X93407438Y-116495475D02*
X93359819Y-116400237D01*
X91336009Y-152233571D02*
X91383628Y-152090714D01*
X91383628Y-152090714D02*
X91431247Y-152043095D01*
X91431247Y-152043095D02*
X91526485Y-151995476D01*
X91526485Y-151995476D02*
X91669342Y-151995476D01*
X91669342Y-151995476D02*
X91764580Y-152043095D01*
X91764580Y-152043095D02*
X91812200Y-152090714D01*
X91812200Y-152090714D02*
X91859819Y-152185952D01*
X91859819Y-152185952D02*
X91859819Y-152566904D01*
X91859819Y-152566904D02*
X90859819Y-152566904D01*
X90859819Y-152566904D02*
X90859819Y-152233571D01*
X90859819Y-152233571D02*
X90907438Y-152138333D01*
X90907438Y-152138333D02*
X90955057Y-152090714D01*
X90955057Y-152090714D02*
X91050295Y-152043095D01*
X91050295Y-152043095D02*
X91145533Y-152043095D01*
X91145533Y-152043095D02*
X91240771Y-152090714D01*
X91240771Y-152090714D02*
X91288390Y-152138333D01*
X91288390Y-152138333D02*
X91336009Y-152233571D01*
X91336009Y-152233571D02*
X91336009Y-152566904D01*
X88859819Y-117519285D02*
X87859819Y-117519285D01*
X87859819Y-117519285D02*
X87859819Y-117281190D01*
X87859819Y-117281190D02*
X87907438Y-117138333D01*
X87907438Y-117138333D02*
X88002676Y-117043095D01*
X88002676Y-117043095D02*
X88097914Y-116995476D01*
X88097914Y-116995476D02*
X88288390Y-116947857D01*
X88288390Y-116947857D02*
X88431247Y-116947857D01*
X88431247Y-116947857D02*
X88621723Y-116995476D01*
X88621723Y-116995476D02*
X88716961Y-117043095D01*
X88716961Y-117043095D02*
X88812200Y-117138333D01*
X88812200Y-117138333D02*
X88859819Y-117281190D01*
X88859819Y-117281190D02*
X88859819Y-117519285D01*
X88336009Y-116519285D02*
X88336009Y-116185952D01*
X88859819Y-116043095D02*
X88859819Y-116519285D01*
X88859819Y-116519285D02*
X87859819Y-116519285D01*
X87859819Y-116519285D02*
X87859819Y-116043095D01*
X85407438Y-153066904D02*
X85359819Y-153162142D01*
X85359819Y-153162142D02*
X85359819Y-153304999D01*
X85359819Y-153304999D02*
X85407438Y-153447856D01*
X85407438Y-153447856D02*
X85502676Y-153543094D01*
X85502676Y-153543094D02*
X85597914Y-153590713D01*
X85597914Y-153590713D02*
X85788390Y-153638332D01*
X85788390Y-153638332D02*
X85931247Y-153638332D01*
X85931247Y-153638332D02*
X86121723Y-153590713D01*
X86121723Y-153590713D02*
X86216961Y-153543094D01*
X86216961Y-153543094D02*
X86312200Y-153447856D01*
X86312200Y-153447856D02*
X86359819Y-153304999D01*
X86359819Y-153304999D02*
X86359819Y-153209761D01*
X86359819Y-153209761D02*
X86312200Y-153066904D01*
X86312200Y-153066904D02*
X86264580Y-153019285D01*
X86264580Y-153019285D02*
X85931247Y-153019285D01*
X85931247Y-153019285D02*
X85931247Y-153209761D01*
X86359819Y-152590713D02*
X85359819Y-152590713D01*
X85359819Y-152590713D02*
X86359819Y-152019285D01*
X86359819Y-152019285D02*
X85359819Y-152019285D01*
X86359819Y-151543094D02*
X85359819Y-151543094D01*
X85359819Y-151543094D02*
X85359819Y-151304999D01*
X85359819Y-151304999D02*
X85407438Y-151162142D01*
X85407438Y-151162142D02*
X85502676Y-151066904D01*
X85502676Y-151066904D02*
X85597914Y-151019285D01*
X85597914Y-151019285D02*
X85788390Y-150971666D01*
X85788390Y-150971666D02*
X85931247Y-150971666D01*
X85931247Y-150971666D02*
X86121723Y-151019285D01*
X86121723Y-151019285D02*
X86216961Y-151066904D01*
X86216961Y-151066904D02*
X86312200Y-151162142D01*
X86312200Y-151162142D02*
X86359819Y-151304999D01*
X86359819Y-151304999D02*
X86359819Y-151543094D01*
X91859819Y-116947857D02*
X91383628Y-117281190D01*
X91859819Y-117519285D02*
X90859819Y-117519285D01*
X90859819Y-117519285D02*
X90859819Y-117138333D01*
X90859819Y-117138333D02*
X90907438Y-117043095D01*
X90907438Y-117043095D02*
X90955057Y-116995476D01*
X90955057Y-116995476D02*
X91050295Y-116947857D01*
X91050295Y-116947857D02*
X91193152Y-116947857D01*
X91193152Y-116947857D02*
X91288390Y-116995476D01*
X91288390Y-116995476D02*
X91336009Y-117043095D01*
X91336009Y-117043095D02*
X91383628Y-117138333D01*
X91383628Y-117138333D02*
X91383628Y-117519285D01*
X91336009Y-116519285D02*
X91336009Y-116185952D01*
X91859819Y-116043095D02*
X91859819Y-116519285D01*
X91859819Y-116519285D02*
X90859819Y-116519285D01*
X90859819Y-116519285D02*
X90859819Y-116043095D01*
X88574104Y-152543094D02*
X88574104Y-152066904D01*
X88859819Y-152638332D02*
X87859819Y-152304999D01*
X87859819Y-152304999D02*
X88859819Y-151971666D01*
X86359819Y-117304999D02*
X85359819Y-117304999D01*
X85359819Y-117304999D02*
X85359819Y-117066904D01*
X85359819Y-117066904D02*
X85407438Y-116924047D01*
X85407438Y-116924047D02*
X85502676Y-116828809D01*
X85502676Y-116828809D02*
X85597914Y-116781190D01*
X85597914Y-116781190D02*
X85788390Y-116733571D01*
X85788390Y-116733571D02*
X85931247Y-116733571D01*
X85931247Y-116733571D02*
X86121723Y-116781190D01*
X86121723Y-116781190D02*
X86216961Y-116828809D01*
X86216961Y-116828809D02*
X86312200Y-116924047D01*
X86312200Y-116924047D02*
X86359819Y-117066904D01*
X86359819Y-117066904D02*
X86359819Y-117304999D01*
X86359819Y-116304999D02*
X85359819Y-116304999D01*
X76305176Y-117466795D02*
X75828618Y-117800385D01*
X76305176Y-118038664D02*
X75304404Y-118038664D01*
X75304404Y-118038664D02*
X75304404Y-117657418D01*
X75304404Y-117657418D02*
X75352060Y-117562106D01*
X75352060Y-117562106D02*
X75399716Y-117514451D01*
X75399716Y-117514451D02*
X75495028Y-117466795D01*
X75495028Y-117466795D02*
X75637995Y-117466795D01*
X75637995Y-117466795D02*
X75733307Y-117514451D01*
X75733307Y-117514451D02*
X75780962Y-117562106D01*
X75780962Y-117562106D02*
X75828618Y-117657418D01*
X75828618Y-117657418D02*
X75828618Y-118038664D01*
X75304404Y-116561334D02*
X75304404Y-117037892D01*
X75304404Y-117037892D02*
X75780962Y-117085548D01*
X75780962Y-117085548D02*
X75733307Y-117037892D01*
X75733307Y-117037892D02*
X75685651Y-116942581D01*
X75685651Y-116942581D02*
X75685651Y-116704302D01*
X75685651Y-116704302D02*
X75733307Y-116608990D01*
X75733307Y-116608990D02*
X75780962Y-116561334D01*
X75780962Y-116561334D02*
X75876274Y-116513679D01*
X75876274Y-116513679D02*
X76114553Y-116513679D01*
X76114553Y-116513679D02*
X76209865Y-116561334D01*
X76209865Y-116561334D02*
X76257521Y-116608990D01*
X76257521Y-116608990D02*
X76305176Y-116704302D01*
X76305176Y-116704302D02*
X76305176Y-116942581D01*
X76305176Y-116942581D02*
X76257521Y-117037892D01*
X76257521Y-117037892D02*
X76209865Y-117085548D01*
X92155176Y-163916795D02*
X91678618Y-164250385D01*
X92155176Y-164488664D02*
X91154404Y-164488664D01*
X91154404Y-164488664D02*
X91154404Y-164107418D01*
X91154404Y-164107418D02*
X91202060Y-164012106D01*
X91202060Y-164012106D02*
X91249716Y-163964451D01*
X91249716Y-163964451D02*
X91345028Y-163916795D01*
X91345028Y-163916795D02*
X91487995Y-163916795D01*
X91487995Y-163916795D02*
X91583307Y-163964451D01*
X91583307Y-163964451D02*
X91630962Y-164012106D01*
X91630962Y-164012106D02*
X91678618Y-164107418D01*
X91678618Y-164107418D02*
X91678618Y-164488664D01*
X91249716Y-163535548D02*
X91202060Y-163487892D01*
X91202060Y-163487892D02*
X91154404Y-163392581D01*
X91154404Y-163392581D02*
X91154404Y-163154302D01*
X91154404Y-163154302D02*
X91202060Y-163058990D01*
X91202060Y-163058990D02*
X91249716Y-163011334D01*
X91249716Y-163011334D02*
X91345028Y-162963679D01*
X91345028Y-162963679D02*
X91440339Y-162963679D01*
X91440339Y-162963679D02*
X91583307Y-163011334D01*
X91583307Y-163011334D02*
X92155176Y-163583204D01*
X92155176Y-163583204D02*
X92155176Y-162963679D01*
X72959580Y-138366666D02*
X73007200Y-138414285D01*
X73007200Y-138414285D02*
X73054819Y-138557142D01*
X73054819Y-138557142D02*
X73054819Y-138652380D01*
X73054819Y-138652380D02*
X73007200Y-138795237D01*
X73007200Y-138795237D02*
X72911961Y-138890475D01*
X72911961Y-138890475D02*
X72816723Y-138938094D01*
X72816723Y-138938094D02*
X72626247Y-138985713D01*
X72626247Y-138985713D02*
X72483390Y-138985713D01*
X72483390Y-138985713D02*
X72292914Y-138938094D01*
X72292914Y-138938094D02*
X72197676Y-138890475D01*
X72197676Y-138890475D02*
X72102438Y-138795237D01*
X72102438Y-138795237D02*
X72054819Y-138652380D01*
X72054819Y-138652380D02*
X72054819Y-138557142D01*
X72054819Y-138557142D02*
X72102438Y-138414285D01*
X72102438Y-138414285D02*
X72150057Y-138366666D01*
X72054819Y-138033332D02*
X72054819Y-137414285D01*
X72054819Y-137414285D02*
X72435771Y-137747618D01*
X72435771Y-137747618D02*
X72435771Y-137604761D01*
X72435771Y-137604761D02*
X72483390Y-137509523D01*
X72483390Y-137509523D02*
X72531009Y-137461904D01*
X72531009Y-137461904D02*
X72626247Y-137414285D01*
X72626247Y-137414285D02*
X72864342Y-137414285D01*
X72864342Y-137414285D02*
X72959580Y-137461904D01*
X72959580Y-137461904D02*
X73007200Y-137509523D01*
X73007200Y-137509523D02*
X73054819Y-137604761D01*
X73054819Y-137604761D02*
X73054819Y-137890475D01*
X73054819Y-137890475D02*
X73007200Y-137985713D01*
X73007200Y-137985713D02*
X72959580Y-138033332D01*
X68191319Y-177552535D02*
X67191319Y-177552535D01*
X67191319Y-177552535D02*
X67191319Y-177171583D01*
X67191319Y-177171583D02*
X67238938Y-177076345D01*
X67238938Y-177076345D02*
X67286557Y-177028726D01*
X67286557Y-177028726D02*
X67381795Y-176981107D01*
X67381795Y-176981107D02*
X67524652Y-176981107D01*
X67524652Y-176981107D02*
X67619890Y-177028726D01*
X67619890Y-177028726D02*
X67667509Y-177076345D01*
X67667509Y-177076345D02*
X67715128Y-177171583D01*
X67715128Y-177171583D02*
X67715128Y-177552535D01*
X68143700Y-176600154D02*
X68191319Y-176457297D01*
X68191319Y-176457297D02*
X68191319Y-176219202D01*
X68191319Y-176219202D02*
X68143700Y-176123964D01*
X68143700Y-176123964D02*
X68096080Y-176076345D01*
X68096080Y-176076345D02*
X68000842Y-176028726D01*
X68000842Y-176028726D02*
X67905604Y-176028726D01*
X67905604Y-176028726D02*
X67810366Y-176076345D01*
X67810366Y-176076345D02*
X67762747Y-176123964D01*
X67762747Y-176123964D02*
X67715128Y-176219202D01*
X67715128Y-176219202D02*
X67667509Y-176409678D01*
X67667509Y-176409678D02*
X67619890Y-176504916D01*
X67619890Y-176504916D02*
X67572271Y-176552535D01*
X67572271Y-176552535D02*
X67477033Y-176600154D01*
X67477033Y-176600154D02*
X67381795Y-176600154D01*
X67381795Y-176600154D02*
X67286557Y-176552535D01*
X67286557Y-176552535D02*
X67238938Y-176504916D01*
X67238938Y-176504916D02*
X67191319Y-176409678D01*
X67191319Y-176409678D02*
X67191319Y-176171583D01*
X67191319Y-176171583D02*
X67238938Y-176028726D01*
X67286557Y-175647773D02*
X67238938Y-175600154D01*
X67238938Y-175600154D02*
X67191319Y-175504916D01*
X67191319Y-175504916D02*
X67191319Y-175266821D01*
X67191319Y-175266821D02*
X67238938Y-175171583D01*
X67238938Y-175171583D02*
X67286557Y-175123964D01*
X67286557Y-175123964D02*
X67381795Y-175076345D01*
X67381795Y-175076345D02*
X67477033Y-175076345D01*
X67477033Y-175076345D02*
X67619890Y-175123964D01*
X67619890Y-175123964D02*
X68191319Y-175695392D01*
X68191319Y-175695392D02*
X68191319Y-175076345D01*
X67664692Y-163166666D02*
X67712312Y-163214285D01*
X67712312Y-163214285D02*
X67759931Y-163357142D01*
X67759931Y-163357142D02*
X67759931Y-163452380D01*
X67759931Y-163452380D02*
X67712312Y-163595237D01*
X67712312Y-163595237D02*
X67617073Y-163690475D01*
X67617073Y-163690475D02*
X67521835Y-163738094D01*
X67521835Y-163738094D02*
X67331359Y-163785713D01*
X67331359Y-163785713D02*
X67188502Y-163785713D01*
X67188502Y-163785713D02*
X66998026Y-163738094D01*
X66998026Y-163738094D02*
X66902788Y-163690475D01*
X66902788Y-163690475D02*
X66807550Y-163595237D01*
X66807550Y-163595237D02*
X66759931Y-163452380D01*
X66759931Y-163452380D02*
X66759931Y-163357142D01*
X66759931Y-163357142D02*
X66807550Y-163214285D01*
X66807550Y-163214285D02*
X66855169Y-163166666D01*
X66855169Y-162785713D02*
X66807550Y-162738094D01*
X66807550Y-162738094D02*
X66759931Y-162642856D01*
X66759931Y-162642856D02*
X66759931Y-162404761D01*
X66759931Y-162404761D02*
X66807550Y-162309523D01*
X66807550Y-162309523D02*
X66855169Y-162261904D01*
X66855169Y-162261904D02*
X66950407Y-162214285D01*
X66950407Y-162214285D02*
X67045645Y-162214285D01*
X67045645Y-162214285D02*
X67188502Y-162261904D01*
X67188502Y-162261904D02*
X67759931Y-162833332D01*
X67759931Y-162833332D02*
X67759931Y-162214285D01*
X110464819Y-177054285D02*
X109464819Y-177054285D01*
X109464819Y-177054285D02*
X109464819Y-176673333D01*
X109464819Y-176673333D02*
X109512438Y-176578095D01*
X109512438Y-176578095D02*
X109560057Y-176530476D01*
X109560057Y-176530476D02*
X109655295Y-176482857D01*
X109655295Y-176482857D02*
X109798152Y-176482857D01*
X109798152Y-176482857D02*
X109893390Y-176530476D01*
X109893390Y-176530476D02*
X109941009Y-176578095D01*
X109941009Y-176578095D02*
X109988628Y-176673333D01*
X109988628Y-176673333D02*
X109988628Y-177054285D01*
X110417200Y-176101904D02*
X110464819Y-175959047D01*
X110464819Y-175959047D02*
X110464819Y-175720952D01*
X110464819Y-175720952D02*
X110417200Y-175625714D01*
X110417200Y-175625714D02*
X110369580Y-175578095D01*
X110369580Y-175578095D02*
X110274342Y-175530476D01*
X110274342Y-175530476D02*
X110179104Y-175530476D01*
X110179104Y-175530476D02*
X110083866Y-175578095D01*
X110083866Y-175578095D02*
X110036247Y-175625714D01*
X110036247Y-175625714D02*
X109988628Y-175720952D01*
X109988628Y-175720952D02*
X109941009Y-175911428D01*
X109941009Y-175911428D02*
X109893390Y-176006666D01*
X109893390Y-176006666D02*
X109845771Y-176054285D01*
X109845771Y-176054285D02*
X109750533Y-176101904D01*
X109750533Y-176101904D02*
X109655295Y-176101904D01*
X109655295Y-176101904D02*
X109560057Y-176054285D01*
X109560057Y-176054285D02*
X109512438Y-176006666D01*
X109512438Y-176006666D02*
X109464819Y-175911428D01*
X109464819Y-175911428D02*
X109464819Y-175673333D01*
X109464819Y-175673333D02*
X109512438Y-175530476D01*
X110464819Y-174578095D02*
X110464819Y-175149523D01*
X110464819Y-174863809D02*
X109464819Y-174863809D01*
X109464819Y-174863809D02*
X109607676Y-174959047D01*
X109607676Y-174959047D02*
X109702914Y-175054285D01*
X109702914Y-175054285D02*
X109750533Y-175149523D01*
X118602030Y-139009580D02*
X118554411Y-139057200D01*
X118554411Y-139057200D02*
X118411554Y-139104819D01*
X118411554Y-139104819D02*
X118316316Y-139104819D01*
X118316316Y-139104819D02*
X118173459Y-139057200D01*
X118173459Y-139057200D02*
X118078221Y-138961961D01*
X118078221Y-138961961D02*
X118030602Y-138866723D01*
X118030602Y-138866723D02*
X117982983Y-138676247D01*
X117982983Y-138676247D02*
X117982983Y-138533390D01*
X117982983Y-138533390D02*
X118030602Y-138342914D01*
X118030602Y-138342914D02*
X118078221Y-138247676D01*
X118078221Y-138247676D02*
X118173459Y-138152438D01*
X118173459Y-138152438D02*
X118316316Y-138104819D01*
X118316316Y-138104819D02*
X118411554Y-138104819D01*
X118411554Y-138104819D02*
X118554411Y-138152438D01*
X118554411Y-138152438D02*
X118602030Y-138200057D01*
X119554411Y-139104819D02*
X118982983Y-139104819D01*
X119268697Y-139104819D02*
X119268697Y-138104819D01*
X119268697Y-138104819D02*
X119173459Y-138247676D01*
X119173459Y-138247676D02*
X119078221Y-138342914D01*
X119078221Y-138342914D02*
X118982983Y-138390533D01*
X120173459Y-138104819D02*
X120268697Y-138104819D01*
X120268697Y-138104819D02*
X120363935Y-138152438D01*
X120363935Y-138152438D02*
X120411554Y-138200057D01*
X120411554Y-138200057D02*
X120459173Y-138295295D01*
X120459173Y-138295295D02*
X120506792Y-138485771D01*
X120506792Y-138485771D02*
X120506792Y-138723866D01*
X120506792Y-138723866D02*
X120459173Y-138914342D01*
X120459173Y-138914342D02*
X120411554Y-139009580D01*
X120411554Y-139009580D02*
X120363935Y-139057200D01*
X120363935Y-139057200D02*
X120268697Y-139104819D01*
X120268697Y-139104819D02*
X120173459Y-139104819D01*
X120173459Y-139104819D02*
X120078221Y-139057200D01*
X120078221Y-139057200D02*
X120030602Y-139009580D01*
X120030602Y-139009580D02*
X119982983Y-138914342D01*
X119982983Y-138914342D02*
X119935364Y-138723866D01*
X119935364Y-138723866D02*
X119935364Y-138485771D01*
X119935364Y-138485771D02*
X119982983Y-138295295D01*
X119982983Y-138295295D02*
X120030602Y-138200057D01*
X120030602Y-138200057D02*
X120078221Y-138152438D01*
X120078221Y-138152438D02*
X120173459Y-138104819D01*
X105859580Y-122811554D02*
X105907200Y-122859173D01*
X105907200Y-122859173D02*
X105954819Y-123002030D01*
X105954819Y-123002030D02*
X105954819Y-123097268D01*
X105954819Y-123097268D02*
X105907200Y-123240125D01*
X105907200Y-123240125D02*
X105811961Y-123335363D01*
X105811961Y-123335363D02*
X105716723Y-123382982D01*
X105716723Y-123382982D02*
X105526247Y-123430601D01*
X105526247Y-123430601D02*
X105383390Y-123430601D01*
X105383390Y-123430601D02*
X105192914Y-123382982D01*
X105192914Y-123382982D02*
X105097676Y-123335363D01*
X105097676Y-123335363D02*
X105002438Y-123240125D01*
X105002438Y-123240125D02*
X104954819Y-123097268D01*
X104954819Y-123097268D02*
X104954819Y-123002030D01*
X104954819Y-123002030D02*
X105002438Y-122859173D01*
X105002438Y-122859173D02*
X105050057Y-122811554D01*
X105954819Y-121859173D02*
X105954819Y-122430601D01*
X105954819Y-122144887D02*
X104954819Y-122144887D01*
X104954819Y-122144887D02*
X105097676Y-122240125D01*
X105097676Y-122240125D02*
X105192914Y-122335363D01*
X105192914Y-122335363D02*
X105240533Y-122430601D01*
X75888095Y-122154819D02*
X75888095Y-122964342D01*
X75888095Y-122964342D02*
X75935714Y-123059580D01*
X75935714Y-123059580D02*
X75983333Y-123107200D01*
X75983333Y-123107200D02*
X76078571Y-123154819D01*
X76078571Y-123154819D02*
X76269047Y-123154819D01*
X76269047Y-123154819D02*
X76364285Y-123107200D01*
X76364285Y-123107200D02*
X76411904Y-123059580D01*
X76411904Y-123059580D02*
X76459523Y-122964342D01*
X76459523Y-122964342D02*
X76459523Y-122154819D01*
X77364285Y-122488152D02*
X77364285Y-123154819D01*
X77126190Y-122107200D02*
X76888095Y-122821485D01*
X76888095Y-122821485D02*
X77507142Y-122821485D01*
X67814692Y-155766666D02*
X67862312Y-155814285D01*
X67862312Y-155814285D02*
X67909931Y-155957142D01*
X67909931Y-155957142D02*
X67909931Y-156052380D01*
X67909931Y-156052380D02*
X67862312Y-156195237D01*
X67862312Y-156195237D02*
X67767073Y-156290475D01*
X67767073Y-156290475D02*
X67671835Y-156338094D01*
X67671835Y-156338094D02*
X67481359Y-156385713D01*
X67481359Y-156385713D02*
X67338502Y-156385713D01*
X67338502Y-156385713D02*
X67148026Y-156338094D01*
X67148026Y-156338094D02*
X67052788Y-156290475D01*
X67052788Y-156290475D02*
X66957550Y-156195237D01*
X66957550Y-156195237D02*
X66909931Y-156052380D01*
X66909931Y-156052380D02*
X66909931Y-155957142D01*
X66909931Y-155957142D02*
X66957550Y-155814285D01*
X66957550Y-155814285D02*
X67005169Y-155766666D01*
X67243264Y-154909523D02*
X67909931Y-154909523D01*
X66862312Y-155147618D02*
X67576597Y-155385713D01*
X67576597Y-155385713D02*
X67576597Y-154766666D01*
X51793095Y-157409819D02*
X51793095Y-158219342D01*
X51793095Y-158219342D02*
X51840714Y-158314580D01*
X51840714Y-158314580D02*
X51888333Y-158362200D01*
X51888333Y-158362200D02*
X51983571Y-158409819D01*
X51983571Y-158409819D02*
X52174047Y-158409819D01*
X52174047Y-158409819D02*
X52269285Y-158362200D01*
X52269285Y-158362200D02*
X52316904Y-158314580D01*
X52316904Y-158314580D02*
X52364523Y-158219342D01*
X52364523Y-158219342D02*
X52364523Y-157409819D01*
X53316904Y-157409819D02*
X52840714Y-157409819D01*
X52840714Y-157409819D02*
X52793095Y-157886009D01*
X52793095Y-157886009D02*
X52840714Y-157838390D01*
X52840714Y-157838390D02*
X52935952Y-157790771D01*
X52935952Y-157790771D02*
X53174047Y-157790771D01*
X53174047Y-157790771D02*
X53269285Y-157838390D01*
X53269285Y-157838390D02*
X53316904Y-157886009D01*
X53316904Y-157886009D02*
X53364523Y-157981247D01*
X53364523Y-157981247D02*
X53364523Y-158219342D01*
X53364523Y-158219342D02*
X53316904Y-158314580D01*
X53316904Y-158314580D02*
X53269285Y-158362200D01*
X53269285Y-158362200D02*
X53174047Y-158409819D01*
X53174047Y-158409819D02*
X52935952Y-158409819D01*
X52935952Y-158409819D02*
X52840714Y-158362200D01*
X52840714Y-158362200D02*
X52793095Y-158314580D01*
X57009819Y-117669285D02*
X56009819Y-117669285D01*
X56009819Y-117669285D02*
X56009819Y-117431190D01*
X56009819Y-117431190D02*
X56057438Y-117288333D01*
X56057438Y-117288333D02*
X56152676Y-117193095D01*
X56152676Y-117193095D02*
X56247914Y-117145476D01*
X56247914Y-117145476D02*
X56438390Y-117097857D01*
X56438390Y-117097857D02*
X56581247Y-117097857D01*
X56581247Y-117097857D02*
X56771723Y-117145476D01*
X56771723Y-117145476D02*
X56866961Y-117193095D01*
X56866961Y-117193095D02*
X56962200Y-117288333D01*
X56962200Y-117288333D02*
X57009819Y-117431190D01*
X57009819Y-117431190D02*
X57009819Y-117669285D01*
X56486009Y-116669285D02*
X56486009Y-116335952D01*
X57009819Y-116193095D02*
X57009819Y-116669285D01*
X57009819Y-116669285D02*
X56009819Y-116669285D01*
X56009819Y-116669285D02*
X56009819Y-116193095D01*
X60009819Y-117097857D02*
X59533628Y-117431190D01*
X60009819Y-117669285D02*
X59009819Y-117669285D01*
X59009819Y-117669285D02*
X59009819Y-117288333D01*
X59009819Y-117288333D02*
X59057438Y-117193095D01*
X59057438Y-117193095D02*
X59105057Y-117145476D01*
X59105057Y-117145476D02*
X59200295Y-117097857D01*
X59200295Y-117097857D02*
X59343152Y-117097857D01*
X59343152Y-117097857D02*
X59438390Y-117145476D01*
X59438390Y-117145476D02*
X59486009Y-117193095D01*
X59486009Y-117193095D02*
X59533628Y-117288333D01*
X59533628Y-117288333D02*
X59533628Y-117669285D01*
X59486009Y-116669285D02*
X59486009Y-116335952D01*
X60009819Y-116193095D02*
X60009819Y-116669285D01*
X60009819Y-116669285D02*
X59009819Y-116669285D01*
X59009819Y-116669285D02*
X59009819Y-116193095D01*
X54509819Y-117454999D02*
X53509819Y-117454999D01*
X53509819Y-117454999D02*
X53509819Y-117216904D01*
X53509819Y-117216904D02*
X53557438Y-117074047D01*
X53557438Y-117074047D02*
X53652676Y-116978809D01*
X53652676Y-116978809D02*
X53747914Y-116931190D01*
X53747914Y-116931190D02*
X53938390Y-116883571D01*
X53938390Y-116883571D02*
X54081247Y-116883571D01*
X54081247Y-116883571D02*
X54271723Y-116931190D01*
X54271723Y-116931190D02*
X54366961Y-116978809D01*
X54366961Y-116978809D02*
X54462200Y-117074047D01*
X54462200Y-117074047D02*
X54509819Y-117216904D01*
X54509819Y-117216904D02*
X54509819Y-117454999D01*
X54509819Y-116454999D02*
X53509819Y-116454999D01*
X59486009Y-152383571D02*
X59533628Y-152240714D01*
X59533628Y-152240714D02*
X59581247Y-152193095D01*
X59581247Y-152193095D02*
X59676485Y-152145476D01*
X59676485Y-152145476D02*
X59819342Y-152145476D01*
X59819342Y-152145476D02*
X59914580Y-152193095D01*
X59914580Y-152193095D02*
X59962200Y-152240714D01*
X59962200Y-152240714D02*
X60009819Y-152335952D01*
X60009819Y-152335952D02*
X60009819Y-152716904D01*
X60009819Y-152716904D02*
X59009819Y-152716904D01*
X59009819Y-152716904D02*
X59009819Y-152383571D01*
X59009819Y-152383571D02*
X59057438Y-152288333D01*
X59057438Y-152288333D02*
X59105057Y-152240714D01*
X59105057Y-152240714D02*
X59200295Y-152193095D01*
X59200295Y-152193095D02*
X59295533Y-152193095D01*
X59295533Y-152193095D02*
X59390771Y-152240714D01*
X59390771Y-152240714D02*
X59438390Y-152288333D01*
X59438390Y-152288333D02*
X59486009Y-152383571D01*
X59486009Y-152383571D02*
X59486009Y-152716904D01*
X61509819Y-153788332D02*
X62509819Y-153454999D01*
X62509819Y-153454999D02*
X61509819Y-153121666D01*
X62414580Y-152216904D02*
X62462200Y-152264523D01*
X62462200Y-152264523D02*
X62509819Y-152407380D01*
X62509819Y-152407380D02*
X62509819Y-152502618D01*
X62509819Y-152502618D02*
X62462200Y-152645475D01*
X62462200Y-152645475D02*
X62366961Y-152740713D01*
X62366961Y-152740713D02*
X62271723Y-152788332D01*
X62271723Y-152788332D02*
X62081247Y-152835951D01*
X62081247Y-152835951D02*
X61938390Y-152835951D01*
X61938390Y-152835951D02*
X61747914Y-152788332D01*
X61747914Y-152788332D02*
X61652676Y-152740713D01*
X61652676Y-152740713D02*
X61557438Y-152645475D01*
X61557438Y-152645475D02*
X61509819Y-152502618D01*
X61509819Y-152502618D02*
X61509819Y-152407380D01*
X61509819Y-152407380D02*
X61557438Y-152264523D01*
X61557438Y-152264523D02*
X61605057Y-152216904D01*
X62414580Y-151216904D02*
X62462200Y-151264523D01*
X62462200Y-151264523D02*
X62509819Y-151407380D01*
X62509819Y-151407380D02*
X62509819Y-151502618D01*
X62509819Y-151502618D02*
X62462200Y-151645475D01*
X62462200Y-151645475D02*
X62366961Y-151740713D01*
X62366961Y-151740713D02*
X62271723Y-151788332D01*
X62271723Y-151788332D02*
X62081247Y-151835951D01*
X62081247Y-151835951D02*
X61938390Y-151835951D01*
X61938390Y-151835951D02*
X61747914Y-151788332D01*
X61747914Y-151788332D02*
X61652676Y-151740713D01*
X61652676Y-151740713D02*
X61557438Y-151645475D01*
X61557438Y-151645475D02*
X61509819Y-151502618D01*
X61509819Y-151502618D02*
X61509819Y-151407380D01*
X61509819Y-151407380D02*
X61557438Y-151264523D01*
X61557438Y-151264523D02*
X61605057Y-151216904D01*
X56724104Y-152693094D02*
X56724104Y-152216904D01*
X57009819Y-152788332D02*
X56009819Y-152454999D01*
X56009819Y-152454999D02*
X57009819Y-152121666D01*
X53557438Y-153216904D02*
X53509819Y-153312142D01*
X53509819Y-153312142D02*
X53509819Y-153454999D01*
X53509819Y-153454999D02*
X53557438Y-153597856D01*
X53557438Y-153597856D02*
X53652676Y-153693094D01*
X53652676Y-153693094D02*
X53747914Y-153740713D01*
X53747914Y-153740713D02*
X53938390Y-153788332D01*
X53938390Y-153788332D02*
X54081247Y-153788332D01*
X54081247Y-153788332D02*
X54271723Y-153740713D01*
X54271723Y-153740713D02*
X54366961Y-153693094D01*
X54366961Y-153693094D02*
X54462200Y-153597856D01*
X54462200Y-153597856D02*
X54509819Y-153454999D01*
X54509819Y-153454999D02*
X54509819Y-153359761D01*
X54509819Y-153359761D02*
X54462200Y-153216904D01*
X54462200Y-153216904D02*
X54414580Y-153169285D01*
X54414580Y-153169285D02*
X54081247Y-153169285D01*
X54081247Y-153169285D02*
X54081247Y-153359761D01*
X54509819Y-152740713D02*
X53509819Y-152740713D01*
X53509819Y-152740713D02*
X54509819Y-152169285D01*
X54509819Y-152169285D02*
X53509819Y-152169285D01*
X54509819Y-151693094D02*
X53509819Y-151693094D01*
X53509819Y-151693094D02*
X53509819Y-151454999D01*
X53509819Y-151454999D02*
X53557438Y-151312142D01*
X53557438Y-151312142D02*
X53652676Y-151216904D01*
X53652676Y-151216904D02*
X53747914Y-151169285D01*
X53747914Y-151169285D02*
X53938390Y-151121666D01*
X53938390Y-151121666D02*
X54081247Y-151121666D01*
X54081247Y-151121666D02*
X54271723Y-151169285D01*
X54271723Y-151169285D02*
X54366961Y-151216904D01*
X54366961Y-151216904D02*
X54462200Y-151312142D01*
X54462200Y-151312142D02*
X54509819Y-151454999D01*
X54509819Y-151454999D02*
X54509819Y-151693094D01*
X62509819Y-117169285D02*
X62033628Y-117502618D01*
X62509819Y-117740713D02*
X61509819Y-117740713D01*
X61509819Y-117740713D02*
X61509819Y-117359761D01*
X61509819Y-117359761D02*
X61557438Y-117264523D01*
X61557438Y-117264523D02*
X61605057Y-117216904D01*
X61605057Y-117216904D02*
X61700295Y-117169285D01*
X61700295Y-117169285D02*
X61843152Y-117169285D01*
X61843152Y-117169285D02*
X61938390Y-117216904D01*
X61938390Y-117216904D02*
X61986009Y-117264523D01*
X61986009Y-117264523D02*
X62033628Y-117359761D01*
X62033628Y-117359761D02*
X62033628Y-117740713D01*
X61509819Y-116550237D02*
X61509819Y-116359761D01*
X61509819Y-116359761D02*
X61557438Y-116264523D01*
X61557438Y-116264523D02*
X61652676Y-116169285D01*
X61652676Y-116169285D02*
X61843152Y-116121666D01*
X61843152Y-116121666D02*
X62176485Y-116121666D01*
X62176485Y-116121666D02*
X62366961Y-116169285D01*
X62366961Y-116169285D02*
X62462200Y-116264523D01*
X62462200Y-116264523D02*
X62509819Y-116359761D01*
X62509819Y-116359761D02*
X62509819Y-116550237D01*
X62509819Y-116550237D02*
X62462200Y-116645475D01*
X62462200Y-116645475D02*
X62366961Y-116740713D01*
X62366961Y-116740713D02*
X62176485Y-116788332D01*
X62176485Y-116788332D02*
X61843152Y-116788332D01*
X61843152Y-116788332D02*
X61652676Y-116740713D01*
X61652676Y-116740713D02*
X61557438Y-116645475D01*
X61557438Y-116645475D02*
X61509819Y-116550237D01*
X67964692Y-148216666D02*
X68012312Y-148264285D01*
X68012312Y-148264285D02*
X68059931Y-148407142D01*
X68059931Y-148407142D02*
X68059931Y-148502380D01*
X68059931Y-148502380D02*
X68012312Y-148645237D01*
X68012312Y-148645237D02*
X67917073Y-148740475D01*
X67917073Y-148740475D02*
X67821835Y-148788094D01*
X67821835Y-148788094D02*
X67631359Y-148835713D01*
X67631359Y-148835713D02*
X67488502Y-148835713D01*
X67488502Y-148835713D02*
X67298026Y-148788094D01*
X67298026Y-148788094D02*
X67202788Y-148740475D01*
X67202788Y-148740475D02*
X67107550Y-148645237D01*
X67107550Y-148645237D02*
X67059931Y-148502380D01*
X67059931Y-148502380D02*
X67059931Y-148407142D01*
X67059931Y-148407142D02*
X67107550Y-148264285D01*
X67107550Y-148264285D02*
X67155169Y-148216666D01*
X67059931Y-147311904D02*
X67059931Y-147788094D01*
X67059931Y-147788094D02*
X67536121Y-147835713D01*
X67536121Y-147835713D02*
X67488502Y-147788094D01*
X67488502Y-147788094D02*
X67440883Y-147692856D01*
X67440883Y-147692856D02*
X67440883Y-147454761D01*
X67440883Y-147454761D02*
X67488502Y-147359523D01*
X67488502Y-147359523D02*
X67536121Y-147311904D01*
X67536121Y-147311904D02*
X67631359Y-147264285D01*
X67631359Y-147264285D02*
X67869454Y-147264285D01*
X67869454Y-147264285D02*
X67964692Y-147311904D01*
X67964692Y-147311904D02*
X68012312Y-147359523D01*
X68012312Y-147359523D02*
X68059931Y-147454761D01*
X68059931Y-147454761D02*
X68059931Y-147692856D01*
X68059931Y-147692856D02*
X68012312Y-147788094D01*
X68012312Y-147788094D02*
X67964692Y-147835713D01*
X115394806Y-135584845D02*
X114918248Y-135918435D01*
X115394806Y-136156714D02*
X114394034Y-136156714D01*
X114394034Y-136156714D02*
X114394034Y-135775468D01*
X114394034Y-135775468D02*
X114441690Y-135680156D01*
X114441690Y-135680156D02*
X114489346Y-135632501D01*
X114489346Y-135632501D02*
X114584658Y-135584845D01*
X114584658Y-135584845D02*
X114727625Y-135584845D01*
X114727625Y-135584845D02*
X114822937Y-135632501D01*
X114822937Y-135632501D02*
X114870592Y-135680156D01*
X114870592Y-135680156D02*
X114918248Y-135775468D01*
X114918248Y-135775468D02*
X114918248Y-136156714D01*
X115394806Y-135108287D02*
X115394806Y-134917663D01*
X115394806Y-134917663D02*
X115347151Y-134822352D01*
X115347151Y-134822352D02*
X115299495Y-134774696D01*
X115299495Y-134774696D02*
X115156527Y-134679384D01*
X115156527Y-134679384D02*
X114965904Y-134631729D01*
X114965904Y-134631729D02*
X114584658Y-134631729D01*
X114584658Y-134631729D02*
X114489346Y-134679384D01*
X114489346Y-134679384D02*
X114441690Y-134727040D01*
X114441690Y-134727040D02*
X114394034Y-134822352D01*
X114394034Y-134822352D02*
X114394034Y-135012975D01*
X114394034Y-135012975D02*
X114441690Y-135108287D01*
X114441690Y-135108287D02*
X114489346Y-135155942D01*
X114489346Y-135155942D02*
X114584658Y-135203598D01*
X114584658Y-135203598D02*
X114822937Y-135203598D01*
X114822937Y-135203598D02*
X114918248Y-135155942D01*
X114918248Y-135155942D02*
X114965904Y-135108287D01*
X114965904Y-135108287D02*
X115013560Y-135012975D01*
X115013560Y-135012975D02*
X115013560Y-134822352D01*
X115013560Y-134822352D02*
X114965904Y-134727040D01*
X114965904Y-134727040D02*
X114918248Y-134679384D01*
X114918248Y-134679384D02*
X114822937Y-134631729D01*
X128288095Y-165704819D02*
X128288095Y-166514342D01*
X128288095Y-166514342D02*
X128335714Y-166609580D01*
X128335714Y-166609580D02*
X128383333Y-166657200D01*
X128383333Y-166657200D02*
X128478571Y-166704819D01*
X128478571Y-166704819D02*
X128669047Y-166704819D01*
X128669047Y-166704819D02*
X128764285Y-166657200D01*
X128764285Y-166657200D02*
X128811904Y-166609580D01*
X128811904Y-166609580D02*
X128859523Y-166514342D01*
X128859523Y-166514342D02*
X128859523Y-165704819D01*
X129859523Y-166704819D02*
X129288095Y-166704819D01*
X129573809Y-166704819D02*
X129573809Y-165704819D01*
X129573809Y-165704819D02*
X129478571Y-165847676D01*
X129478571Y-165847676D02*
X129383333Y-165942914D01*
X129383333Y-165942914D02*
X129288095Y-165990533D01*
X114004819Y-126511904D02*
X114814342Y-126511904D01*
X114814342Y-126511904D02*
X114909580Y-126464285D01*
X114909580Y-126464285D02*
X114957200Y-126416666D01*
X114957200Y-126416666D02*
X115004819Y-126321428D01*
X115004819Y-126321428D02*
X115004819Y-126130952D01*
X115004819Y-126130952D02*
X114957200Y-126035714D01*
X114957200Y-126035714D02*
X114909580Y-125988095D01*
X114909580Y-125988095D02*
X114814342Y-125940476D01*
X114814342Y-125940476D02*
X114004819Y-125940476D01*
X114004819Y-125559523D02*
X114004819Y-124892857D01*
X114004819Y-124892857D02*
X115004819Y-125321428D01*
X97505176Y-163916795D02*
X97028618Y-164250385D01*
X97505176Y-164488664D02*
X96504404Y-164488664D01*
X96504404Y-164488664D02*
X96504404Y-164107418D01*
X96504404Y-164107418D02*
X96552060Y-164012106D01*
X96552060Y-164012106D02*
X96599716Y-163964451D01*
X96599716Y-163964451D02*
X96695028Y-163916795D01*
X96695028Y-163916795D02*
X96837995Y-163916795D01*
X96837995Y-163916795D02*
X96933307Y-163964451D01*
X96933307Y-163964451D02*
X96980962Y-164012106D01*
X96980962Y-164012106D02*
X97028618Y-164107418D01*
X97028618Y-164107418D02*
X97028618Y-164488664D01*
X96837995Y-163058990D02*
X97505176Y-163058990D01*
X96456749Y-163297269D02*
X97171586Y-163535548D01*
X97171586Y-163535548D02*
X97171586Y-162916023D01*
X142504819Y-145111904D02*
X143314342Y-145111904D01*
X143314342Y-145111904D02*
X143409580Y-145064285D01*
X143409580Y-145064285D02*
X143457200Y-145016666D01*
X143457200Y-145016666D02*
X143504819Y-144921428D01*
X143504819Y-144921428D02*
X143504819Y-144730952D01*
X143504819Y-144730952D02*
X143457200Y-144635714D01*
X143457200Y-144635714D02*
X143409580Y-144588095D01*
X143409580Y-144588095D02*
X143314342Y-144540476D01*
X143314342Y-144540476D02*
X142504819Y-144540476D01*
X142504819Y-143635714D02*
X142504819Y-143826190D01*
X142504819Y-143826190D02*
X142552438Y-143921428D01*
X142552438Y-143921428D02*
X142600057Y-143969047D01*
X142600057Y-143969047D02*
X142742914Y-144064285D01*
X142742914Y-144064285D02*
X142933390Y-144111904D01*
X142933390Y-144111904D02*
X143314342Y-144111904D01*
X143314342Y-144111904D02*
X143409580Y-144064285D01*
X143409580Y-144064285D02*
X143457200Y-144016666D01*
X143457200Y-144016666D02*
X143504819Y-143921428D01*
X143504819Y-143921428D02*
X143504819Y-143730952D01*
X143504819Y-143730952D02*
X143457200Y-143635714D01*
X143457200Y-143635714D02*
X143409580Y-143588095D01*
X143409580Y-143588095D02*
X143314342Y-143540476D01*
X143314342Y-143540476D02*
X143076247Y-143540476D01*
X143076247Y-143540476D02*
X142981009Y-143588095D01*
X142981009Y-143588095D02*
X142933390Y-143635714D01*
X142933390Y-143635714D02*
X142885771Y-143730952D01*
X142885771Y-143730952D02*
X142885771Y-143921428D01*
X142885771Y-143921428D02*
X142933390Y-144016666D01*
X142933390Y-144016666D02*
X142981009Y-144064285D01*
X142981009Y-144064285D02*
X143076247Y-144111904D01*
X131311905Y-111854819D02*
X131311905Y-110854819D01*
X131311905Y-110854819D02*
X131550000Y-110854819D01*
X131550000Y-110854819D02*
X131692857Y-110902438D01*
X131692857Y-110902438D02*
X131788095Y-110997676D01*
X131788095Y-110997676D02*
X131835714Y-111092914D01*
X131835714Y-111092914D02*
X131883333Y-111283390D01*
X131883333Y-111283390D02*
X131883333Y-111426247D01*
X131883333Y-111426247D02*
X131835714Y-111616723D01*
X131835714Y-111616723D02*
X131788095Y-111711961D01*
X131788095Y-111711961D02*
X131692857Y-111807200D01*
X131692857Y-111807200D02*
X131550000Y-111854819D01*
X131550000Y-111854819D02*
X131311905Y-111854819D01*
X132835714Y-111854819D02*
X132264286Y-111854819D01*
X132550000Y-111854819D02*
X132550000Y-110854819D01*
X132550000Y-110854819D02*
X132454762Y-110997676D01*
X132454762Y-110997676D02*
X132359524Y-111092914D01*
X132359524Y-111092914D02*
X132264286Y-111140533D01*
X70455176Y-117993353D02*
X69978618Y-118326943D01*
X70455176Y-118565222D02*
X69454404Y-118565222D01*
X69454404Y-118565222D02*
X69454404Y-118183976D01*
X69454404Y-118183976D02*
X69502060Y-118088664D01*
X69502060Y-118088664D02*
X69549716Y-118041009D01*
X69549716Y-118041009D02*
X69645028Y-117993353D01*
X69645028Y-117993353D02*
X69787995Y-117993353D01*
X69787995Y-117993353D02*
X69883307Y-118041009D01*
X69883307Y-118041009D02*
X69930962Y-118088664D01*
X69930962Y-118088664D02*
X69978618Y-118183976D01*
X69978618Y-118183976D02*
X69978618Y-118565222D01*
X70455176Y-117040237D02*
X70455176Y-117612106D01*
X70455176Y-117326171D02*
X69454404Y-117326171D01*
X69454404Y-117326171D02*
X69597372Y-117421483D01*
X69597372Y-117421483D02*
X69692683Y-117516795D01*
X69692683Y-117516795D02*
X69740339Y-117612106D01*
X69454404Y-116420711D02*
X69454404Y-116325400D01*
X69454404Y-116325400D02*
X69502060Y-116230088D01*
X69502060Y-116230088D02*
X69549716Y-116182432D01*
X69549716Y-116182432D02*
X69645028Y-116134776D01*
X69645028Y-116134776D02*
X69835651Y-116087121D01*
X69835651Y-116087121D02*
X70073930Y-116087121D01*
X70073930Y-116087121D02*
X70264553Y-116134776D01*
X70264553Y-116134776D02*
X70359865Y-116182432D01*
X70359865Y-116182432D02*
X70407521Y-116230088D01*
X70407521Y-116230088D02*
X70455176Y-116325400D01*
X70455176Y-116325400D02*
X70455176Y-116420711D01*
X70455176Y-116420711D02*
X70407521Y-116516023D01*
X70407521Y-116516023D02*
X70359865Y-116563679D01*
X70359865Y-116563679D02*
X70264553Y-116611334D01*
X70264553Y-116611334D02*
X70073930Y-116658990D01*
X70073930Y-116658990D02*
X69835651Y-116658990D01*
X69835651Y-116658990D02*
X69645028Y-116611334D01*
X69645028Y-116611334D02*
X69549716Y-116563679D01*
X69549716Y-116563679D02*
X69502060Y-116516023D01*
X69502060Y-116516023D02*
X69454404Y-116420711D01*
X52488333Y-168713366D02*
X52488333Y-169713366D01*
X52488333Y-169713366D02*
X52421666Y-169913366D01*
X52421666Y-169913366D02*
X52288333Y-170046700D01*
X52288333Y-170046700D02*
X52088333Y-170113366D01*
X52088333Y-170113366D02*
X51955000Y-170113366D01*
X53755000Y-169180033D02*
X53755000Y-170113366D01*
X53421667Y-168646700D02*
X53088333Y-169646700D01*
X53088333Y-169646700D02*
X53955000Y-169646700D01*
X101609580Y-163066666D02*
X101657200Y-163114285D01*
X101657200Y-163114285D02*
X101704819Y-163257142D01*
X101704819Y-163257142D02*
X101704819Y-163352380D01*
X101704819Y-163352380D02*
X101657200Y-163495237D01*
X101657200Y-163495237D02*
X101561961Y-163590475D01*
X101561961Y-163590475D02*
X101466723Y-163638094D01*
X101466723Y-163638094D02*
X101276247Y-163685713D01*
X101276247Y-163685713D02*
X101133390Y-163685713D01*
X101133390Y-163685713D02*
X100942914Y-163638094D01*
X100942914Y-163638094D02*
X100847676Y-163590475D01*
X100847676Y-163590475D02*
X100752438Y-163495237D01*
X100752438Y-163495237D02*
X100704819Y-163352380D01*
X100704819Y-163352380D02*
X100704819Y-163257142D01*
X100704819Y-163257142D02*
X100752438Y-163114285D01*
X100752438Y-163114285D02*
X100800057Y-163066666D01*
X100704819Y-162209523D02*
X100704819Y-162399999D01*
X100704819Y-162399999D02*
X100752438Y-162495237D01*
X100752438Y-162495237D02*
X100800057Y-162542856D01*
X100800057Y-162542856D02*
X100942914Y-162638094D01*
X100942914Y-162638094D02*
X101133390Y-162685713D01*
X101133390Y-162685713D02*
X101514342Y-162685713D01*
X101514342Y-162685713D02*
X101609580Y-162638094D01*
X101609580Y-162638094D02*
X101657200Y-162590475D01*
X101657200Y-162590475D02*
X101704819Y-162495237D01*
X101704819Y-162495237D02*
X101704819Y-162304761D01*
X101704819Y-162304761D02*
X101657200Y-162209523D01*
X101657200Y-162209523D02*
X101609580Y-162161904D01*
X101609580Y-162161904D02*
X101514342Y-162114285D01*
X101514342Y-162114285D02*
X101276247Y-162114285D01*
X101276247Y-162114285D02*
X101181009Y-162161904D01*
X101181009Y-162161904D02*
X101133390Y-162209523D01*
X101133390Y-162209523D02*
X101085771Y-162304761D01*
X101085771Y-162304761D02*
X101085771Y-162495237D01*
X101085771Y-162495237D02*
X101133390Y-162590475D01*
X101133390Y-162590475D02*
X101181009Y-162638094D01*
X101181009Y-162638094D02*
X101276247Y-162685713D01*
X121333204Y-137755176D02*
X120999614Y-137278618D01*
X120761335Y-137755176D02*
X120761335Y-136754404D01*
X120761335Y-136754404D02*
X121142581Y-136754404D01*
X121142581Y-136754404D02*
X121237893Y-136802060D01*
X121237893Y-136802060D02*
X121285548Y-136849716D01*
X121285548Y-136849716D02*
X121333204Y-136945028D01*
X121333204Y-136945028D02*
X121333204Y-137087995D01*
X121333204Y-137087995D02*
X121285548Y-137183307D01*
X121285548Y-137183307D02*
X121237893Y-137230962D01*
X121237893Y-137230962D02*
X121142581Y-137278618D01*
X121142581Y-137278618D02*
X120761335Y-137278618D01*
X121905074Y-137183307D02*
X121809762Y-137135651D01*
X121809762Y-137135651D02*
X121762107Y-137087995D01*
X121762107Y-137087995D02*
X121714451Y-136992683D01*
X121714451Y-136992683D02*
X121714451Y-136945028D01*
X121714451Y-136945028D02*
X121762107Y-136849716D01*
X121762107Y-136849716D02*
X121809762Y-136802060D01*
X121809762Y-136802060D02*
X121905074Y-136754404D01*
X121905074Y-136754404D02*
X122095697Y-136754404D01*
X122095697Y-136754404D02*
X122191009Y-136802060D01*
X122191009Y-136802060D02*
X122238665Y-136849716D01*
X122238665Y-136849716D02*
X122286320Y-136945028D01*
X122286320Y-136945028D02*
X122286320Y-136992683D01*
X122286320Y-136992683D02*
X122238665Y-137087995D01*
X122238665Y-137087995D02*
X122191009Y-137135651D01*
X122191009Y-137135651D02*
X122095697Y-137183307D01*
X122095697Y-137183307D02*
X121905074Y-137183307D01*
X121905074Y-137183307D02*
X121809762Y-137230962D01*
X121809762Y-137230962D02*
X121762107Y-137278618D01*
X121762107Y-137278618D02*
X121714451Y-137373930D01*
X121714451Y-137373930D02*
X121714451Y-137564553D01*
X121714451Y-137564553D02*
X121762107Y-137659865D01*
X121762107Y-137659865D02*
X121809762Y-137707521D01*
X121809762Y-137707521D02*
X121905074Y-137755176D01*
X121905074Y-137755176D02*
X122095697Y-137755176D01*
X122095697Y-137755176D02*
X122191009Y-137707521D01*
X122191009Y-137707521D02*
X122238665Y-137659865D01*
X122238665Y-137659865D02*
X122286320Y-137564553D01*
X122286320Y-137564553D02*
X122286320Y-137373930D01*
X122286320Y-137373930D02*
X122238665Y-137278618D01*
X122238665Y-137278618D02*
X122191009Y-137230962D01*
X122191009Y-137230962D02*
X122095697Y-137183307D01*
X129060866Y-123461666D02*
X130060866Y-123461666D01*
X130060866Y-123461666D02*
X130260866Y-123528333D01*
X130260866Y-123528333D02*
X130394200Y-123661666D01*
X130394200Y-123661666D02*
X130460866Y-123861666D01*
X130460866Y-123861666D02*
X130460866Y-123995000D01*
X130460866Y-122061666D02*
X130460866Y-122861666D01*
X130460866Y-122461666D02*
X129060866Y-122461666D01*
X129060866Y-122461666D02*
X129260866Y-122594999D01*
X129260866Y-122594999D02*
X129394200Y-122728333D01*
X129394200Y-122728333D02*
X129460866Y-122861666D01*
X129739866Y-141066666D02*
X130739866Y-141066666D01*
X130739866Y-141066666D02*
X130939866Y-141133333D01*
X130939866Y-141133333D02*
X131073200Y-141266666D01*
X131073200Y-141266666D02*
X131139866Y-141466666D01*
X131139866Y-141466666D02*
X131139866Y-141600000D01*
X129873200Y-140466666D02*
X129806533Y-140399999D01*
X129806533Y-140399999D02*
X129739866Y-140266666D01*
X129739866Y-140266666D02*
X129739866Y-139933333D01*
X129739866Y-139933333D02*
X129806533Y-139799999D01*
X129806533Y-139799999D02*
X129873200Y-139733333D01*
X129873200Y-139733333D02*
X130006533Y-139666666D01*
X130006533Y-139666666D02*
X130139866Y-139666666D01*
X130139866Y-139666666D02*
X130339866Y-139733333D01*
X130339866Y-139733333D02*
X131139866Y-140533333D01*
X131139866Y-140533333D02*
X131139866Y-139666666D01*
X101304467Y-148066666D02*
X101352087Y-148114285D01*
X101352087Y-148114285D02*
X101399706Y-148257142D01*
X101399706Y-148257142D02*
X101399706Y-148352380D01*
X101399706Y-148352380D02*
X101352087Y-148495237D01*
X101352087Y-148495237D02*
X101256848Y-148590475D01*
X101256848Y-148590475D02*
X101161610Y-148638094D01*
X101161610Y-148638094D02*
X100971134Y-148685713D01*
X100971134Y-148685713D02*
X100828277Y-148685713D01*
X100828277Y-148685713D02*
X100637801Y-148638094D01*
X100637801Y-148638094D02*
X100542563Y-148590475D01*
X100542563Y-148590475D02*
X100447325Y-148495237D01*
X100447325Y-148495237D02*
X100399706Y-148352380D01*
X100399706Y-148352380D02*
X100399706Y-148257142D01*
X100399706Y-148257142D02*
X100447325Y-148114285D01*
X100447325Y-148114285D02*
X100494944Y-148066666D01*
X100828277Y-147495237D02*
X100780658Y-147590475D01*
X100780658Y-147590475D02*
X100733039Y-147638094D01*
X100733039Y-147638094D02*
X100637801Y-147685713D01*
X100637801Y-147685713D02*
X100590182Y-147685713D01*
X100590182Y-147685713D02*
X100494944Y-147638094D01*
X100494944Y-147638094D02*
X100447325Y-147590475D01*
X100447325Y-147590475D02*
X100399706Y-147495237D01*
X100399706Y-147495237D02*
X100399706Y-147304761D01*
X100399706Y-147304761D02*
X100447325Y-147209523D01*
X100447325Y-147209523D02*
X100494944Y-147161904D01*
X100494944Y-147161904D02*
X100590182Y-147114285D01*
X100590182Y-147114285D02*
X100637801Y-147114285D01*
X100637801Y-147114285D02*
X100733039Y-147161904D01*
X100733039Y-147161904D02*
X100780658Y-147209523D01*
X100780658Y-147209523D02*
X100828277Y-147304761D01*
X100828277Y-147304761D02*
X100828277Y-147495237D01*
X100828277Y-147495237D02*
X100875896Y-147590475D01*
X100875896Y-147590475D02*
X100923515Y-147638094D01*
X100923515Y-147638094D02*
X101018753Y-147685713D01*
X101018753Y-147685713D02*
X101209229Y-147685713D01*
X101209229Y-147685713D02*
X101304467Y-147638094D01*
X101304467Y-147638094D02*
X101352087Y-147590475D01*
X101352087Y-147590475D02*
X101399706Y-147495237D01*
X101399706Y-147495237D02*
X101399706Y-147304761D01*
X101399706Y-147304761D02*
X101352087Y-147209523D01*
X101352087Y-147209523D02*
X101304467Y-147161904D01*
X101304467Y-147161904D02*
X101209229Y-147114285D01*
X101209229Y-147114285D02*
X101018753Y-147114285D01*
X101018753Y-147114285D02*
X100923515Y-147161904D01*
X100923515Y-147161904D02*
X100875896Y-147209523D01*
X100875896Y-147209523D02*
X100828277Y-147304761D01*
X117961905Y-112004819D02*
X117961905Y-111004819D01*
X117961905Y-111004819D02*
X118200000Y-111004819D01*
X118200000Y-111004819D02*
X118342857Y-111052438D01*
X118342857Y-111052438D02*
X118438095Y-111147676D01*
X118438095Y-111147676D02*
X118485714Y-111242914D01*
X118485714Y-111242914D02*
X118533333Y-111433390D01*
X118533333Y-111433390D02*
X118533333Y-111576247D01*
X118533333Y-111576247D02*
X118485714Y-111766723D01*
X118485714Y-111766723D02*
X118438095Y-111861961D01*
X118438095Y-111861961D02*
X118342857Y-111957200D01*
X118342857Y-111957200D02*
X118200000Y-112004819D01*
X118200000Y-112004819D02*
X117961905Y-112004819D01*
X118914286Y-111100057D02*
X118961905Y-111052438D01*
X118961905Y-111052438D02*
X119057143Y-111004819D01*
X119057143Y-111004819D02*
X119295238Y-111004819D01*
X119295238Y-111004819D02*
X119390476Y-111052438D01*
X119390476Y-111052438D02*
X119438095Y-111100057D01*
X119438095Y-111100057D02*
X119485714Y-111195295D01*
X119485714Y-111195295D02*
X119485714Y-111290533D01*
X119485714Y-111290533D02*
X119438095Y-111433390D01*
X119438095Y-111433390D02*
X118866667Y-112004819D01*
X118866667Y-112004819D02*
X119485714Y-112004819D01*
X103065176Y-117876795D02*
X102588618Y-118210385D01*
X103065176Y-118448664D02*
X102064404Y-118448664D01*
X102064404Y-118448664D02*
X102064404Y-118067418D01*
X102064404Y-118067418D02*
X102112060Y-117972106D01*
X102112060Y-117972106D02*
X102159716Y-117924451D01*
X102159716Y-117924451D02*
X102255028Y-117876795D01*
X102255028Y-117876795D02*
X102397995Y-117876795D01*
X102397995Y-117876795D02*
X102493307Y-117924451D01*
X102493307Y-117924451D02*
X102540962Y-117972106D01*
X102540962Y-117972106D02*
X102588618Y-118067418D01*
X102588618Y-118067418D02*
X102588618Y-118448664D01*
X103065176Y-116923679D02*
X103065176Y-117495548D01*
X103065176Y-117209613D02*
X102064404Y-117209613D01*
X102064404Y-117209613D02*
X102207372Y-117304925D01*
X102207372Y-117304925D02*
X102302683Y-117400237D01*
X102302683Y-117400237D02*
X102350339Y-117495548D01*
X128905176Y-135766795D02*
X128428618Y-136100385D01*
X128905176Y-136338664D02*
X127904404Y-136338664D01*
X127904404Y-136338664D02*
X127904404Y-135957418D01*
X127904404Y-135957418D02*
X127952060Y-135862106D01*
X127952060Y-135862106D02*
X127999716Y-135814451D01*
X127999716Y-135814451D02*
X128095028Y-135766795D01*
X128095028Y-135766795D02*
X128237995Y-135766795D01*
X128237995Y-135766795D02*
X128333307Y-135814451D01*
X128333307Y-135814451D02*
X128380962Y-135862106D01*
X128380962Y-135862106D02*
X128428618Y-135957418D01*
X128428618Y-135957418D02*
X128428618Y-136338664D01*
X127904404Y-134908990D02*
X127904404Y-135099613D01*
X127904404Y-135099613D02*
X127952060Y-135194925D01*
X127952060Y-135194925D02*
X127999716Y-135242581D01*
X127999716Y-135242581D02*
X128142683Y-135337892D01*
X128142683Y-135337892D02*
X128333307Y-135385548D01*
X128333307Y-135385548D02*
X128714553Y-135385548D01*
X128714553Y-135385548D02*
X128809865Y-135337892D01*
X128809865Y-135337892D02*
X128857521Y-135290237D01*
X128857521Y-135290237D02*
X128905176Y-135194925D01*
X128905176Y-135194925D02*
X128905176Y-135004302D01*
X128905176Y-135004302D02*
X128857521Y-134908990D01*
X128857521Y-134908990D02*
X128809865Y-134861334D01*
X128809865Y-134861334D02*
X128714553Y-134813679D01*
X128714553Y-134813679D02*
X128476274Y-134813679D01*
X128476274Y-134813679D02*
X128380962Y-134861334D01*
X128380962Y-134861334D02*
X128333307Y-134908990D01*
X128333307Y-134908990D02*
X128285651Y-135004302D01*
X128285651Y-135004302D02*
X128285651Y-135194925D01*
X128285651Y-135194925D02*
X128333307Y-135290237D01*
X128333307Y-135290237D02*
X128380962Y-135337892D01*
X128380962Y-135337892D02*
X128476274Y-135385548D01*
X86955176Y-163916795D02*
X86478618Y-164250385D01*
X86955176Y-164488664D02*
X85954404Y-164488664D01*
X85954404Y-164488664D02*
X85954404Y-164107418D01*
X85954404Y-164107418D02*
X86002060Y-164012106D01*
X86002060Y-164012106D02*
X86049716Y-163964451D01*
X86049716Y-163964451D02*
X86145028Y-163916795D01*
X86145028Y-163916795D02*
X86287995Y-163916795D01*
X86287995Y-163916795D02*
X86383307Y-163964451D01*
X86383307Y-163964451D02*
X86430962Y-164012106D01*
X86430962Y-164012106D02*
X86478618Y-164107418D01*
X86478618Y-164107418D02*
X86478618Y-164488664D01*
X85954404Y-163583204D02*
X85954404Y-162963679D01*
X85954404Y-162963679D02*
X86335651Y-163297269D01*
X86335651Y-163297269D02*
X86335651Y-163154302D01*
X86335651Y-163154302D02*
X86383307Y-163058990D01*
X86383307Y-163058990D02*
X86430962Y-163011334D01*
X86430962Y-163011334D02*
X86526274Y-162963679D01*
X86526274Y-162963679D02*
X86764553Y-162963679D01*
X86764553Y-162963679D02*
X86859865Y-163011334D01*
X86859865Y-163011334D02*
X86907521Y-163058990D01*
X86907521Y-163058990D02*
X86955176Y-163154302D01*
X86955176Y-163154302D02*
X86955176Y-163440237D01*
X86955176Y-163440237D02*
X86907521Y-163535548D01*
X86907521Y-163535548D02*
X86859865Y-163583204D01*
X126883333Y-139059580D02*
X126835714Y-139107200D01*
X126835714Y-139107200D02*
X126692857Y-139154819D01*
X126692857Y-139154819D02*
X126597619Y-139154819D01*
X126597619Y-139154819D02*
X126454762Y-139107200D01*
X126454762Y-139107200D02*
X126359524Y-139011961D01*
X126359524Y-139011961D02*
X126311905Y-138916723D01*
X126311905Y-138916723D02*
X126264286Y-138726247D01*
X126264286Y-138726247D02*
X126264286Y-138583390D01*
X126264286Y-138583390D02*
X126311905Y-138392914D01*
X126311905Y-138392914D02*
X126359524Y-138297676D01*
X126359524Y-138297676D02*
X126454762Y-138202438D01*
X126454762Y-138202438D02*
X126597619Y-138154819D01*
X126597619Y-138154819D02*
X126692857Y-138154819D01*
X126692857Y-138154819D02*
X126835714Y-138202438D01*
X126835714Y-138202438D02*
X126883333Y-138250057D01*
X127359524Y-139154819D02*
X127550000Y-139154819D01*
X127550000Y-139154819D02*
X127645238Y-139107200D01*
X127645238Y-139107200D02*
X127692857Y-139059580D01*
X127692857Y-139059580D02*
X127788095Y-138916723D01*
X127788095Y-138916723D02*
X127835714Y-138726247D01*
X127835714Y-138726247D02*
X127835714Y-138345295D01*
X127835714Y-138345295D02*
X127788095Y-138250057D01*
X127788095Y-138250057D02*
X127740476Y-138202438D01*
X127740476Y-138202438D02*
X127645238Y-138154819D01*
X127645238Y-138154819D02*
X127454762Y-138154819D01*
X127454762Y-138154819D02*
X127359524Y-138202438D01*
X127359524Y-138202438D02*
X127311905Y-138250057D01*
X127311905Y-138250057D02*
X127264286Y-138345295D01*
X127264286Y-138345295D02*
X127264286Y-138583390D01*
X127264286Y-138583390D02*
X127311905Y-138678628D01*
X127311905Y-138678628D02*
X127359524Y-138726247D01*
X127359524Y-138726247D02*
X127454762Y-138773866D01*
X127454762Y-138773866D02*
X127645238Y-138773866D01*
X127645238Y-138773866D02*
X127740476Y-138726247D01*
X127740476Y-138726247D02*
X127788095Y-138678628D01*
X127788095Y-138678628D02*
X127835714Y-138583390D01*
D13*
%TO.C,U3*%
X101100000Y-125570000D02*
X107800000Y-125570000D01*
X101100000Y-125846000D02*
X101100000Y-125570000D01*
X101100000Y-135730000D02*
X101100000Y-135454000D01*
X101100000Y-135730000D02*
X107800000Y-135730000D01*
X107800000Y-125846000D02*
X107800000Y-125570000D01*
X107800000Y-135730000D02*
X107800000Y-135454000D01*
D11*
X99066000Y-126840000D02*
G75*
G02*
X98866000Y-126840000I-100000J0D01*
G01*
X98866000Y-126840000D02*
G75*
G02*
X99066000Y-126840000I100000J0D01*
G01*
D13*
%TO.C,J3*%
X82280000Y-171212500D02*
X97520000Y-171212500D01*
X82280000Y-181412500D02*
X82280000Y-171212500D01*
X97520000Y-171212500D02*
X97520000Y-181412500D01*
X97520000Y-181412500D02*
X82280000Y-181412500D01*
D11*
X84920000Y-170212500D02*
G75*
G02*
X84720000Y-170212500I-100000J0D01*
G01*
X84720000Y-170212500D02*
G75*
G02*
X84920000Y-170212500I100000J0D01*
G01*
D13*
%TO.C,R7*%
X121000000Y-118500000D02*
X120200000Y-118500000D01*
X121000000Y-118500000D02*
X121000000Y-117575000D01*
X121000000Y-119425000D02*
X121000000Y-118500000D01*
X121580000Y-117575000D02*
X121000000Y-117575000D01*
X121580000Y-119425000D02*
X121000000Y-119425000D01*
X123920000Y-119425000D02*
X124500000Y-119425000D01*
X124500000Y-117575000D02*
X123920000Y-117575000D01*
X124500000Y-118500000D02*
X124500000Y-117575000D01*
X124500000Y-118500000D02*
X125300000Y-118500000D01*
X124500000Y-119425000D02*
X124500000Y-118500000D01*
D14*
%TO.C,C7*%
X102750000Y-155733000D02*
X102750000Y-155167000D01*
X102790000Y-155967000D02*
X102790000Y-154933000D01*
X102830000Y-156127000D02*
X102830000Y-154773000D01*
X102870000Y-156255000D02*
X102870000Y-154645000D01*
X102910000Y-156364000D02*
X102910000Y-154536000D01*
X102950000Y-156461000D02*
X102950000Y-154439000D01*
X102990000Y-156548000D02*
X102990000Y-154352000D01*
X103030000Y-156627000D02*
X103030000Y-154273000D01*
X103070000Y-154410000D02*
X103070000Y-154199000D01*
X103070000Y-156701000D02*
X103070000Y-156490000D01*
X103110000Y-154410000D02*
X103110000Y-154131000D01*
X103110000Y-156769000D02*
X103110000Y-156490000D01*
X103150000Y-154410000D02*
X103150000Y-154067000D01*
X103150000Y-156833000D02*
X103150000Y-156490000D01*
X103190000Y-154410000D02*
X103190000Y-154007000D01*
X103190000Y-156893000D02*
X103190000Y-156490000D01*
X103230000Y-154410000D02*
X103230000Y-153951000D01*
X103230000Y-156949000D02*
X103230000Y-156490000D01*
X103270000Y-154410000D02*
X103270000Y-153897000D01*
X103270000Y-157003000D02*
X103270000Y-156490000D01*
X103310000Y-154410000D02*
X103310000Y-153846000D01*
X103310000Y-157054000D02*
X103310000Y-156490000D01*
X103350000Y-154410000D02*
X103350000Y-153798000D01*
X103350000Y-157102000D02*
X103350000Y-156490000D01*
X103390000Y-154410000D02*
X103390000Y-153751000D01*
X103390000Y-157149000D02*
X103390000Y-156490000D01*
X103430000Y-154410000D02*
X103430000Y-153707000D01*
X103430000Y-157193000D02*
X103430000Y-156490000D01*
X103470000Y-154410000D02*
X103470000Y-153665000D01*
X103470000Y-157235000D02*
X103470000Y-156490000D01*
X103510000Y-154410000D02*
X103510000Y-153625000D01*
X103510000Y-157275000D02*
X103510000Y-156490000D01*
X103550000Y-154410000D02*
X103550000Y-153586000D01*
X103550000Y-157314000D02*
X103550000Y-156490000D01*
X103590000Y-154410000D02*
X103590000Y-153549000D01*
X103590000Y-157351000D02*
X103590000Y-156490000D01*
X103630000Y-154410000D02*
X103630000Y-153514000D01*
X103630000Y-157386000D02*
X103630000Y-156490000D01*
X103670000Y-154410000D02*
X103670000Y-153480000D01*
X103670000Y-157420000D02*
X103670000Y-156490000D01*
X103710000Y-154410000D02*
X103710000Y-153447000D01*
X103710000Y-157453000D02*
X103710000Y-156490000D01*
X103750000Y-154410000D02*
X103750000Y-153415000D01*
X103750000Y-157485000D02*
X103750000Y-156490000D01*
X103790000Y-154410000D02*
X103790000Y-153385000D01*
X103790000Y-157515000D02*
X103790000Y-156490000D01*
X103830000Y-154410000D02*
X103830000Y-153356000D01*
X103830000Y-157544000D02*
X103830000Y-156490000D01*
X103870000Y-154410000D02*
X103870000Y-153328000D01*
X103870000Y-157572000D02*
X103870000Y-156490000D01*
X103910000Y-154410000D02*
X103910000Y-153301000D01*
X103910000Y-157599000D02*
X103910000Y-156490000D01*
X103950000Y-154410000D02*
X103950000Y-153275000D01*
X103950000Y-157625000D02*
X103950000Y-156490000D01*
X103990000Y-154410000D02*
X103990000Y-153251000D01*
X103990000Y-157649000D02*
X103990000Y-156490000D01*
X104030000Y-154410000D02*
X104030000Y-153227000D01*
X104030000Y-157673000D02*
X104030000Y-156490000D01*
X104070000Y-154410000D02*
X104070000Y-153204000D01*
X104070000Y-157696000D02*
X104070000Y-156490000D01*
X104110000Y-154410000D02*
X104110000Y-153182000D01*
X104110000Y-157718000D02*
X104110000Y-156490000D01*
X104150000Y-154410000D02*
X104150000Y-153161000D01*
X104150000Y-157739000D02*
X104150000Y-156490000D01*
X104190000Y-154410000D02*
X104190000Y-153141000D01*
X104190000Y-157759000D02*
X104190000Y-156490000D01*
X104230000Y-154410000D02*
X104230000Y-153121000D01*
X104230000Y-157779000D02*
X104230000Y-156490000D01*
X104270000Y-154410000D02*
X104270000Y-153103000D01*
X104270000Y-157797000D02*
X104270000Y-156490000D01*
X104310000Y-154410000D02*
X104310000Y-153085000D01*
X104310000Y-157815000D02*
X104310000Y-156490000D01*
X104350000Y-154410000D02*
X104350000Y-153068000D01*
X104350000Y-157832000D02*
X104350000Y-156490000D01*
X104390000Y-154410000D02*
X104390000Y-153052000D01*
X104390000Y-157848000D02*
X104390000Y-156490000D01*
X104430000Y-154410000D02*
X104430000Y-153037000D01*
X104430000Y-157863000D02*
X104430000Y-156490000D01*
X104470000Y-154410000D02*
X104470000Y-153022000D01*
X104470000Y-157878000D02*
X104470000Y-156490000D01*
X104510000Y-154410000D02*
X104510000Y-153008000D01*
X104510000Y-157892000D02*
X104510000Y-156490000D01*
X104550000Y-154410000D02*
X104550000Y-152995000D01*
X104550000Y-157905000D02*
X104550000Y-156490000D01*
X104590000Y-154410000D02*
X104590000Y-152983000D01*
X104590000Y-157917000D02*
X104590000Y-156490000D01*
X104630000Y-154410000D02*
X104630000Y-152971000D01*
X104630000Y-157929000D02*
X104630000Y-156490000D01*
X104670000Y-154410000D02*
X104670000Y-152960000D01*
X104670000Y-157940000D02*
X104670000Y-156490000D01*
X104710000Y-154410000D02*
X104710000Y-152949000D01*
X104710000Y-157951000D02*
X104710000Y-156490000D01*
X104750000Y-154410000D02*
X104750000Y-152940000D01*
X104750000Y-157960000D02*
X104750000Y-156490000D01*
X104790000Y-154410000D02*
X104790000Y-152931000D01*
X104790000Y-157969000D02*
X104790000Y-156490000D01*
X104830000Y-154410000D02*
X104830000Y-152922000D01*
X104830000Y-157978000D02*
X104830000Y-156490000D01*
X104870000Y-154410000D02*
X104870000Y-152914000D01*
X104870000Y-157986000D02*
X104870000Y-156490000D01*
X104910000Y-154410000D02*
X104910000Y-152907000D01*
X104910000Y-157993000D02*
X104910000Y-156490000D01*
X104950000Y-154410000D02*
X104950000Y-152901000D01*
X104950000Y-157999000D02*
X104950000Y-156490000D01*
X104990000Y-154410000D02*
X104990000Y-152895000D01*
X104990000Y-158005000D02*
X104990000Y-156490000D01*
X105030000Y-154410000D02*
X105030000Y-152890000D01*
X105030000Y-158010000D02*
X105030000Y-156490000D01*
X105070000Y-154410000D02*
X105070000Y-152885000D01*
X105070000Y-158015000D02*
X105070000Y-156490000D01*
X105110000Y-154410000D02*
X105110000Y-152881000D01*
X105110000Y-158019000D02*
X105110000Y-156490000D01*
X105150000Y-158022000D02*
X105150000Y-152878000D01*
X105190000Y-158025000D02*
X105190000Y-152875000D01*
X105230000Y-158027000D02*
X105230000Y-152873000D01*
X105270000Y-158029000D02*
X105270000Y-152871000D01*
X105310000Y-158030000D02*
X105310000Y-152870000D01*
X105350000Y-158030000D02*
X105350000Y-152870000D01*
X107904775Y-157175000D02*
X107904775Y-156675000D01*
X108154775Y-156925000D02*
X107654775Y-156925000D01*
X107970000Y-155450000D02*
G75*
G02*
X102730000Y-155450000I-2620000J0D01*
G01*
X102730000Y-155450000D02*
G75*
G02*
X107970000Y-155450000I2620000J0D01*
G01*
%TO.C,U2*%
X82905000Y-156805000D02*
X82905000Y-112805000D01*
X91905000Y-156805000D02*
X92905000Y-156805000D01*
X96905000Y-112805000D02*
X82905000Y-112805000D01*
X96905000Y-156805000D02*
X82905000Y-156805000D01*
X96905000Y-156805000D02*
X96905000Y-112805000D01*
D10*
X94015000Y-157805000D02*
G75*
G02*
X93415000Y-157805000I-300000J0D01*
G01*
X93415000Y-157805000D02*
G75*
G02*
X94015000Y-157805000I300000J0D01*
G01*
D13*
%TO.C,R5*%
X72725000Y-115550000D02*
X72725000Y-116130000D01*
X72725000Y-118470000D02*
X72725000Y-119050000D01*
X73650000Y-115550000D02*
X72725000Y-115550000D01*
X73650000Y-115550000D02*
X73650000Y-114750000D01*
X73650000Y-119050000D02*
X72725000Y-119050000D01*
X73650000Y-119050000D02*
X73650000Y-119850000D01*
X74575000Y-115550000D02*
X73650000Y-115550000D01*
X74575000Y-116130000D02*
X74575000Y-115550000D01*
X74575000Y-118470000D02*
X74575000Y-119050000D01*
X74575000Y-119050000D02*
X73650000Y-119050000D01*
%TO.C,R2*%
X88825000Y-162000000D02*
X89750000Y-162000000D01*
X88825000Y-162580000D02*
X88825000Y-162000000D01*
X88825000Y-164920000D02*
X88825000Y-165500000D01*
X88825000Y-165500000D02*
X89750000Y-165500000D01*
X89750000Y-162000000D02*
X89750000Y-161200000D01*
X89750000Y-162000000D02*
X90675000Y-162000000D01*
X89750000Y-165500000D02*
X89750000Y-166300000D01*
X89750000Y-165500000D02*
X90675000Y-165500000D01*
X90675000Y-162580000D02*
X90675000Y-162000000D01*
X90675000Y-165500000D02*
X90675000Y-164920000D01*
D14*
%TO.C,C3*%
X66345225Y-136625000D02*
X66845225Y-136625000D01*
X66595225Y-136375000D02*
X66595225Y-136875000D01*
X69150000Y-135520000D02*
X69150000Y-140680000D01*
X69190000Y-135520000D02*
X69190000Y-140680000D01*
X69230000Y-135521000D02*
X69230000Y-140679000D01*
X69270000Y-135523000D02*
X69270000Y-140677000D01*
X69310000Y-135525000D02*
X69310000Y-140675000D01*
X69350000Y-135528000D02*
X69350000Y-140672000D01*
X69390000Y-135531000D02*
X69390000Y-137060000D01*
X69390000Y-139140000D02*
X69390000Y-140669000D01*
X69430000Y-135535000D02*
X69430000Y-137060000D01*
X69430000Y-139140000D02*
X69430000Y-140665000D01*
X69470000Y-135540000D02*
X69470000Y-137060000D01*
X69470000Y-139140000D02*
X69470000Y-140660000D01*
X69510000Y-135545000D02*
X69510000Y-137060000D01*
X69510000Y-139140000D02*
X69510000Y-140655000D01*
X69550000Y-135551000D02*
X69550000Y-137060000D01*
X69550000Y-139140000D02*
X69550000Y-140649000D01*
X69590000Y-135557000D02*
X69590000Y-137060000D01*
X69590000Y-139140000D02*
X69590000Y-140643000D01*
X69630000Y-135564000D02*
X69630000Y-137060000D01*
X69630000Y-139140000D02*
X69630000Y-140636000D01*
X69670000Y-135572000D02*
X69670000Y-137060000D01*
X69670000Y-139140000D02*
X69670000Y-140628000D01*
X69710000Y-135581000D02*
X69710000Y-137060000D01*
X69710000Y-139140000D02*
X69710000Y-140619000D01*
X69750000Y-135590000D02*
X69750000Y-137060000D01*
X69750000Y-139140000D02*
X69750000Y-140610000D01*
X69790000Y-135599000D02*
X69790000Y-137060000D01*
X69790000Y-139140000D02*
X69790000Y-140601000D01*
X69830000Y-135610000D02*
X69830000Y-137060000D01*
X69830000Y-139140000D02*
X69830000Y-140590000D01*
X69870000Y-135621000D02*
X69870000Y-137060000D01*
X69870000Y-139140000D02*
X69870000Y-140579000D01*
X69910000Y-135633000D02*
X69910000Y-137060000D01*
X69910000Y-139140000D02*
X69910000Y-140567000D01*
X69950000Y-135645000D02*
X69950000Y-137060000D01*
X69950000Y-139140000D02*
X69950000Y-140555000D01*
X69990000Y-135658000D02*
X69990000Y-137060000D01*
X69990000Y-139140000D02*
X69990000Y-140542000D01*
X70030000Y-135672000D02*
X70030000Y-137060000D01*
X70030000Y-139140000D02*
X70030000Y-140528000D01*
X70070000Y-135687000D02*
X70070000Y-137060000D01*
X70070000Y-139140000D02*
X70070000Y-140513000D01*
X70110000Y-135702000D02*
X70110000Y-137060000D01*
X70110000Y-139140000D02*
X70110000Y-140498000D01*
X70150000Y-135718000D02*
X70150000Y-137060000D01*
X70150000Y-139140000D02*
X70150000Y-140482000D01*
X70190000Y-135735000D02*
X70190000Y-137060000D01*
X70190000Y-139140000D02*
X70190000Y-140465000D01*
X70230000Y-135753000D02*
X70230000Y-137060000D01*
X70230000Y-139140000D02*
X70230000Y-140447000D01*
X70270000Y-135771000D02*
X70270000Y-137060000D01*
X70270000Y-139140000D02*
X70270000Y-140429000D01*
X70310000Y-135791000D02*
X70310000Y-137060000D01*
X70310000Y-139140000D02*
X70310000Y-140409000D01*
X70350000Y-135811000D02*
X70350000Y-137060000D01*
X70350000Y-139140000D02*
X70350000Y-140389000D01*
X70390000Y-135832000D02*
X70390000Y-137060000D01*
X70390000Y-139140000D02*
X70390000Y-140368000D01*
X70430000Y-135854000D02*
X70430000Y-137060000D01*
X70430000Y-139140000D02*
X70430000Y-140346000D01*
X70470000Y-135877000D02*
X70470000Y-137060000D01*
X70470000Y-139140000D02*
X70470000Y-140323000D01*
X70510000Y-135901000D02*
X70510000Y-137060000D01*
X70510000Y-139140000D02*
X70510000Y-140299000D01*
X70550000Y-135925000D02*
X70550000Y-137060000D01*
X70550000Y-139140000D02*
X70550000Y-140275000D01*
X70590000Y-135951000D02*
X70590000Y-137060000D01*
X70590000Y-139140000D02*
X70590000Y-140249000D01*
X70630000Y-135978000D02*
X70630000Y-137060000D01*
X70630000Y-139140000D02*
X70630000Y-140222000D01*
X70670000Y-136006000D02*
X70670000Y-137060000D01*
X70670000Y-139140000D02*
X70670000Y-140194000D01*
X70710000Y-136035000D02*
X70710000Y-137060000D01*
X70710000Y-139140000D02*
X70710000Y-140165000D01*
X70750000Y-136065000D02*
X70750000Y-137060000D01*
X70750000Y-139140000D02*
X70750000Y-140135000D01*
X70790000Y-136097000D02*
X70790000Y-137060000D01*
X70790000Y-139140000D02*
X70790000Y-140103000D01*
X70830000Y-136130000D02*
X70830000Y-137060000D01*
X70830000Y-139140000D02*
X70830000Y-140070000D01*
X70870000Y-136164000D02*
X70870000Y-137060000D01*
X70870000Y-139140000D02*
X70870000Y-140036000D01*
X70910000Y-136199000D02*
X70910000Y-137060000D01*
X70910000Y-139140000D02*
X70910000Y-140001000D01*
X70950000Y-136236000D02*
X70950000Y-137060000D01*
X70950000Y-139140000D02*
X70950000Y-139964000D01*
X70990000Y-136275000D02*
X70990000Y-137060000D01*
X70990000Y-139140000D02*
X70990000Y-139925000D01*
X71030000Y-136315000D02*
X71030000Y-137060000D01*
X71030000Y-139140000D02*
X71030000Y-139885000D01*
X71070000Y-136357000D02*
X71070000Y-137060000D01*
X71070000Y-139140000D02*
X71070000Y-139843000D01*
X71110000Y-136401000D02*
X71110000Y-137060000D01*
X71110000Y-139140000D02*
X71110000Y-139799000D01*
X71150000Y-136448000D02*
X71150000Y-137060000D01*
X71150000Y-139140000D02*
X71150000Y-139752000D01*
X71190000Y-136496000D02*
X71190000Y-137060000D01*
X71190000Y-139140000D02*
X71190000Y-139704000D01*
X71230000Y-136547000D02*
X71230000Y-137060000D01*
X71230000Y-139140000D02*
X71230000Y-139653000D01*
X71270000Y-136601000D02*
X71270000Y-137060000D01*
X71270000Y-139140000D02*
X71270000Y-139599000D01*
X71310000Y-136657000D02*
X71310000Y-137060000D01*
X71310000Y-139140000D02*
X71310000Y-139543000D01*
X71350000Y-136717000D02*
X71350000Y-137060000D01*
X71350000Y-139140000D02*
X71350000Y-139483000D01*
X71390000Y-136781000D02*
X71390000Y-137060000D01*
X71390000Y-139140000D02*
X71390000Y-139419000D01*
X71430000Y-136849000D02*
X71430000Y-137060000D01*
X71430000Y-139140000D02*
X71430000Y-139351000D01*
X71470000Y-136923000D02*
X71470000Y-139277000D01*
X71510000Y-137002000D02*
X71510000Y-139198000D01*
X71550000Y-137089000D02*
X71550000Y-139111000D01*
X71590000Y-137186000D02*
X71590000Y-139014000D01*
X71630000Y-137295000D02*
X71630000Y-138905000D01*
X71670000Y-137423000D02*
X71670000Y-138777000D01*
X71710000Y-137583000D02*
X71710000Y-138617000D01*
X71750000Y-137817000D02*
X71750000Y-138383000D01*
X71770000Y-138100000D02*
G75*
G02*
X66530000Y-138100000I-2620000J0D01*
G01*
X66530000Y-138100000D02*
G75*
G02*
X71770000Y-138100000I2620000J0D01*
G01*
D13*
%TO.C,PS2*%
X68500000Y-181830000D02*
X68500000Y-170150000D01*
X74500000Y-170150000D02*
X68500000Y-170150000D01*
X74500000Y-181830000D02*
X68500000Y-181830000D01*
X74500000Y-181830000D02*
X74500000Y-170150000D01*
D11*
X73000000Y-182390000D02*
G75*
G02*
X72800000Y-182390000I-100000J0D01*
G01*
X72800000Y-182390000D02*
G75*
G02*
X73000000Y-182390000I100000J0D01*
G01*
D14*
%TO.C,C2*%
X69050000Y-163283000D02*
X69050000Y-162717000D01*
X69090000Y-163517000D02*
X69090000Y-162483000D01*
X69130000Y-163677000D02*
X69130000Y-162323000D01*
X69170000Y-163805000D02*
X69170000Y-162195000D01*
X69210000Y-163914000D02*
X69210000Y-162086000D01*
X69250000Y-164011000D02*
X69250000Y-161989000D01*
X69290000Y-164098000D02*
X69290000Y-161902000D01*
X69330000Y-164177000D02*
X69330000Y-161823000D01*
X69370000Y-161960000D02*
X69370000Y-161749000D01*
X69370000Y-164251000D02*
X69370000Y-164040000D01*
X69410000Y-161960000D02*
X69410000Y-161681000D01*
X69410000Y-164319000D02*
X69410000Y-164040000D01*
X69450000Y-161960000D02*
X69450000Y-161617000D01*
X69450000Y-164383000D02*
X69450000Y-164040000D01*
X69490000Y-161960000D02*
X69490000Y-161557000D01*
X69490000Y-164443000D02*
X69490000Y-164040000D01*
X69530000Y-161960000D02*
X69530000Y-161501000D01*
X69530000Y-164499000D02*
X69530000Y-164040000D01*
X69570000Y-161960000D02*
X69570000Y-161447000D01*
X69570000Y-164553000D02*
X69570000Y-164040000D01*
X69610000Y-161960000D02*
X69610000Y-161396000D01*
X69610000Y-164604000D02*
X69610000Y-164040000D01*
X69650000Y-161960000D02*
X69650000Y-161348000D01*
X69650000Y-164652000D02*
X69650000Y-164040000D01*
X69690000Y-161960000D02*
X69690000Y-161301000D01*
X69690000Y-164699000D02*
X69690000Y-164040000D01*
X69730000Y-161960000D02*
X69730000Y-161257000D01*
X69730000Y-164743000D02*
X69730000Y-164040000D01*
X69770000Y-161960000D02*
X69770000Y-161215000D01*
X69770000Y-164785000D02*
X69770000Y-164040000D01*
X69810000Y-161960000D02*
X69810000Y-161175000D01*
X69810000Y-164825000D02*
X69810000Y-164040000D01*
X69850000Y-161960000D02*
X69850000Y-161136000D01*
X69850000Y-164864000D02*
X69850000Y-164040000D01*
X69890000Y-161960000D02*
X69890000Y-161099000D01*
X69890000Y-164901000D02*
X69890000Y-164040000D01*
X69930000Y-161960000D02*
X69930000Y-161064000D01*
X69930000Y-164936000D02*
X69930000Y-164040000D01*
X69970000Y-161960000D02*
X69970000Y-161030000D01*
X69970000Y-164970000D02*
X69970000Y-164040000D01*
X70010000Y-161960000D02*
X70010000Y-160997000D01*
X70010000Y-165003000D02*
X70010000Y-164040000D01*
X70050000Y-161960000D02*
X70050000Y-160965000D01*
X70050000Y-165035000D02*
X70050000Y-164040000D01*
X70090000Y-161960000D02*
X70090000Y-160935000D01*
X70090000Y-165065000D02*
X70090000Y-164040000D01*
X70130000Y-161960000D02*
X70130000Y-160906000D01*
X70130000Y-165094000D02*
X70130000Y-164040000D01*
X70170000Y-161960000D02*
X70170000Y-160878000D01*
X70170000Y-165122000D02*
X70170000Y-164040000D01*
X70210000Y-161960000D02*
X70210000Y-160851000D01*
X70210000Y-165149000D02*
X70210000Y-164040000D01*
X70250000Y-161960000D02*
X70250000Y-160825000D01*
X70250000Y-165175000D02*
X70250000Y-164040000D01*
X70290000Y-161960000D02*
X70290000Y-160801000D01*
X70290000Y-165199000D02*
X70290000Y-164040000D01*
X70330000Y-161960000D02*
X70330000Y-160777000D01*
X70330000Y-165223000D02*
X70330000Y-164040000D01*
X70370000Y-161960000D02*
X70370000Y-160754000D01*
X70370000Y-165246000D02*
X70370000Y-164040000D01*
X70410000Y-161960000D02*
X70410000Y-160732000D01*
X70410000Y-165268000D02*
X70410000Y-164040000D01*
X70450000Y-161960000D02*
X70450000Y-160711000D01*
X70450000Y-165289000D02*
X70450000Y-164040000D01*
X70490000Y-161960000D02*
X70490000Y-160691000D01*
X70490000Y-165309000D02*
X70490000Y-164040000D01*
X70530000Y-161960000D02*
X70530000Y-160671000D01*
X70530000Y-165329000D02*
X70530000Y-164040000D01*
X70570000Y-161960000D02*
X70570000Y-160653000D01*
X70570000Y-165347000D02*
X70570000Y-164040000D01*
X70610000Y-161960000D02*
X70610000Y-160635000D01*
X70610000Y-165365000D02*
X70610000Y-164040000D01*
X70650000Y-161960000D02*
X70650000Y-160618000D01*
X70650000Y-165382000D02*
X70650000Y-164040000D01*
X70690000Y-161960000D02*
X70690000Y-160602000D01*
X70690000Y-165398000D02*
X70690000Y-164040000D01*
X70730000Y-161960000D02*
X70730000Y-160587000D01*
X70730000Y-165413000D02*
X70730000Y-164040000D01*
X70770000Y-161960000D02*
X70770000Y-160572000D01*
X70770000Y-165428000D02*
X70770000Y-164040000D01*
X70810000Y-161960000D02*
X70810000Y-160558000D01*
X70810000Y-165442000D02*
X70810000Y-164040000D01*
X70850000Y-161960000D02*
X70850000Y-160545000D01*
X70850000Y-165455000D02*
X70850000Y-164040000D01*
X70890000Y-161960000D02*
X70890000Y-160533000D01*
X70890000Y-165467000D02*
X70890000Y-164040000D01*
X70930000Y-161960000D02*
X70930000Y-160521000D01*
X70930000Y-165479000D02*
X70930000Y-164040000D01*
X70970000Y-161960000D02*
X70970000Y-160510000D01*
X70970000Y-165490000D02*
X70970000Y-164040000D01*
X71010000Y-161960000D02*
X71010000Y-160499000D01*
X71010000Y-165501000D02*
X71010000Y-164040000D01*
X71050000Y-161960000D02*
X71050000Y-160490000D01*
X71050000Y-165510000D02*
X71050000Y-164040000D01*
X71090000Y-161960000D02*
X71090000Y-160481000D01*
X71090000Y-165519000D02*
X71090000Y-164040000D01*
X71130000Y-161960000D02*
X71130000Y-160472000D01*
X71130000Y-165528000D02*
X71130000Y-164040000D01*
X71170000Y-161960000D02*
X71170000Y-160464000D01*
X71170000Y-165536000D02*
X71170000Y-164040000D01*
X71210000Y-161960000D02*
X71210000Y-160457000D01*
X71210000Y-165543000D02*
X71210000Y-164040000D01*
X71250000Y-161960000D02*
X71250000Y-160451000D01*
X71250000Y-165549000D02*
X71250000Y-164040000D01*
X71290000Y-161960000D02*
X71290000Y-160445000D01*
X71290000Y-165555000D02*
X71290000Y-164040000D01*
X71330000Y-161960000D02*
X71330000Y-160440000D01*
X71330000Y-165560000D02*
X71330000Y-164040000D01*
X71370000Y-161960000D02*
X71370000Y-160435000D01*
X71370000Y-165565000D02*
X71370000Y-164040000D01*
X71410000Y-161960000D02*
X71410000Y-160431000D01*
X71410000Y-165569000D02*
X71410000Y-164040000D01*
X71450000Y-165572000D02*
X71450000Y-160428000D01*
X71490000Y-165575000D02*
X71490000Y-160425000D01*
X71530000Y-165577000D02*
X71530000Y-160423000D01*
X71570000Y-165579000D02*
X71570000Y-160421000D01*
X71610000Y-165580000D02*
X71610000Y-160420000D01*
X71650000Y-165580000D02*
X71650000Y-160420000D01*
X74204775Y-164725000D02*
X74204775Y-164225000D01*
X74454775Y-164475000D02*
X73954775Y-164475000D01*
X74270000Y-163000000D02*
G75*
G02*
X69030000Y-163000000I-2620000J0D01*
G01*
X69030000Y-163000000D02*
G75*
G02*
X74270000Y-163000000I2620000J0D01*
G01*
D13*
%TO.C,PS1*%
X102200000Y-181680000D02*
X102200000Y-170000000D01*
X108200000Y-170000000D02*
X102200000Y-170000000D01*
X108200000Y-181680000D02*
X102200000Y-181680000D01*
X108200000Y-181680000D02*
X108200000Y-170000000D01*
D11*
X106700000Y-182240000D02*
G75*
G02*
X106500000Y-182240000I-100000J0D01*
G01*
X106500000Y-182240000D02*
G75*
G02*
X106700000Y-182240000I100000J0D01*
G01*
D14*
%TO.C,C10*%
X116440113Y-140925000D02*
X116940113Y-140925000D01*
X116690113Y-140675000D02*
X116690113Y-141175000D01*
X119244888Y-139820000D02*
X119244888Y-144980000D01*
X119284888Y-139820000D02*
X119284888Y-144980000D01*
X119324888Y-139821000D02*
X119324888Y-144979000D01*
X119364888Y-139823000D02*
X119364888Y-144977000D01*
X119404888Y-139825000D02*
X119404888Y-144975000D01*
X119444888Y-139828000D02*
X119444888Y-144972000D01*
X119484888Y-139831000D02*
X119484888Y-141360000D01*
X119484888Y-143440000D02*
X119484888Y-144969000D01*
X119524888Y-139835000D02*
X119524888Y-141360000D01*
X119524888Y-143440000D02*
X119524888Y-144965000D01*
X119564888Y-139840000D02*
X119564888Y-141360000D01*
X119564888Y-143440000D02*
X119564888Y-144960000D01*
X119604888Y-139845000D02*
X119604888Y-141360000D01*
X119604888Y-143440000D02*
X119604888Y-144955000D01*
X119644888Y-139851000D02*
X119644888Y-141360000D01*
X119644888Y-143440000D02*
X119644888Y-144949000D01*
X119684888Y-139857000D02*
X119684888Y-141360000D01*
X119684888Y-143440000D02*
X119684888Y-144943000D01*
X119724888Y-139864000D02*
X119724888Y-141360000D01*
X119724888Y-143440000D02*
X119724888Y-144936000D01*
X119764888Y-139872000D02*
X119764888Y-141360000D01*
X119764888Y-143440000D02*
X119764888Y-144928000D01*
X119804888Y-139881000D02*
X119804888Y-141360000D01*
X119804888Y-143440000D02*
X119804888Y-144919000D01*
X119844888Y-139890000D02*
X119844888Y-141360000D01*
X119844888Y-143440000D02*
X119844888Y-144910000D01*
X119884888Y-139899000D02*
X119884888Y-141360000D01*
X119884888Y-143440000D02*
X119884888Y-144901000D01*
X119924888Y-139910000D02*
X119924888Y-141360000D01*
X119924888Y-143440000D02*
X119924888Y-144890000D01*
X119964888Y-139921000D02*
X119964888Y-141360000D01*
X119964888Y-143440000D02*
X119964888Y-144879000D01*
X120004888Y-139933000D02*
X120004888Y-141360000D01*
X120004888Y-143440000D02*
X120004888Y-144867000D01*
X120044888Y-139945000D02*
X120044888Y-141360000D01*
X120044888Y-143440000D02*
X120044888Y-144855000D01*
X120084888Y-139958000D02*
X120084888Y-141360000D01*
X120084888Y-143440000D02*
X120084888Y-144842000D01*
X120124888Y-139972000D02*
X120124888Y-141360000D01*
X120124888Y-143440000D02*
X120124888Y-144828000D01*
X120164888Y-139987000D02*
X120164888Y-141360000D01*
X120164888Y-143440000D02*
X120164888Y-144813000D01*
X120204888Y-140002000D02*
X120204888Y-141360000D01*
X120204888Y-143440000D02*
X120204888Y-144798000D01*
X120244888Y-140018000D02*
X120244888Y-141360000D01*
X120244888Y-143440000D02*
X120244888Y-144782000D01*
X120284888Y-140035000D02*
X120284888Y-141360000D01*
X120284888Y-143440000D02*
X120284888Y-144765000D01*
X120324888Y-140053000D02*
X120324888Y-141360000D01*
X120324888Y-143440000D02*
X120324888Y-144747000D01*
X120364888Y-140071000D02*
X120364888Y-141360000D01*
X120364888Y-143440000D02*
X120364888Y-144729000D01*
X120404888Y-140091000D02*
X120404888Y-141360000D01*
X120404888Y-143440000D02*
X120404888Y-144709000D01*
X120444888Y-140111000D02*
X120444888Y-141360000D01*
X120444888Y-143440000D02*
X120444888Y-144689000D01*
X120484888Y-140132000D02*
X120484888Y-141360000D01*
X120484888Y-143440000D02*
X120484888Y-144668000D01*
X120524888Y-140154000D02*
X120524888Y-141360000D01*
X120524888Y-143440000D02*
X120524888Y-144646000D01*
X120564888Y-140177000D02*
X120564888Y-141360000D01*
X120564888Y-143440000D02*
X120564888Y-144623000D01*
X120604888Y-140201000D02*
X120604888Y-141360000D01*
X120604888Y-143440000D02*
X120604888Y-144599000D01*
X120644888Y-140225000D02*
X120644888Y-141360000D01*
X120644888Y-143440000D02*
X120644888Y-144575000D01*
X120684888Y-140251000D02*
X120684888Y-141360000D01*
X120684888Y-143440000D02*
X120684888Y-144549000D01*
X120724888Y-140278000D02*
X120724888Y-141360000D01*
X120724888Y-143440000D02*
X120724888Y-144522000D01*
X120764888Y-140306000D02*
X120764888Y-141360000D01*
X120764888Y-143440000D02*
X120764888Y-144494000D01*
X120804888Y-140335000D02*
X120804888Y-141360000D01*
X120804888Y-143440000D02*
X120804888Y-144465000D01*
X120844888Y-140365000D02*
X120844888Y-141360000D01*
X120844888Y-143440000D02*
X120844888Y-144435000D01*
X120884888Y-140397000D02*
X120884888Y-141360000D01*
X120884888Y-143440000D02*
X120884888Y-144403000D01*
X120924888Y-140430000D02*
X120924888Y-141360000D01*
X120924888Y-143440000D02*
X120924888Y-144370000D01*
X120964888Y-140464000D02*
X120964888Y-141360000D01*
X120964888Y-143440000D02*
X120964888Y-144336000D01*
X121004888Y-140499000D02*
X121004888Y-141360000D01*
X121004888Y-143440000D02*
X121004888Y-144301000D01*
X121044888Y-140536000D02*
X121044888Y-141360000D01*
X121044888Y-143440000D02*
X121044888Y-144264000D01*
X121084888Y-140575000D02*
X121084888Y-141360000D01*
X121084888Y-143440000D02*
X121084888Y-144225000D01*
X121124888Y-140615000D02*
X121124888Y-141360000D01*
X121124888Y-143440000D02*
X121124888Y-144185000D01*
X121164888Y-140657000D02*
X121164888Y-141360000D01*
X121164888Y-143440000D02*
X121164888Y-144143000D01*
X121204888Y-140701000D02*
X121204888Y-141360000D01*
X121204888Y-143440000D02*
X121204888Y-144099000D01*
X121244888Y-140748000D02*
X121244888Y-141360000D01*
X121244888Y-143440000D02*
X121244888Y-144052000D01*
X121284888Y-140796000D02*
X121284888Y-141360000D01*
X121284888Y-143440000D02*
X121284888Y-144004000D01*
X121324888Y-140847000D02*
X121324888Y-141360000D01*
X121324888Y-143440000D02*
X121324888Y-143953000D01*
X121364888Y-140901000D02*
X121364888Y-141360000D01*
X121364888Y-143440000D02*
X121364888Y-143899000D01*
X121404888Y-140957000D02*
X121404888Y-141360000D01*
X121404888Y-143440000D02*
X121404888Y-143843000D01*
X121444888Y-141017000D02*
X121444888Y-141360000D01*
X121444888Y-143440000D02*
X121444888Y-143783000D01*
X121484888Y-141081000D02*
X121484888Y-141360000D01*
X121484888Y-143440000D02*
X121484888Y-143719000D01*
X121524888Y-141149000D02*
X121524888Y-141360000D01*
X121524888Y-143440000D02*
X121524888Y-143651000D01*
X121564888Y-141223000D02*
X121564888Y-143577000D01*
X121604888Y-141302000D02*
X121604888Y-143498000D01*
X121644888Y-141389000D02*
X121644888Y-143411000D01*
X121684888Y-141486000D02*
X121684888Y-143314000D01*
X121724888Y-141595000D02*
X121724888Y-143205000D01*
X121764888Y-141723000D02*
X121764888Y-143077000D01*
X121804888Y-141883000D02*
X121804888Y-142917000D01*
X121844888Y-142117000D02*
X121844888Y-142683000D01*
X121864888Y-142400000D02*
G75*
G02*
X116624888Y-142400000I-2620000J0D01*
G01*
X116624888Y-142400000D02*
G75*
G02*
X121864888Y-142400000I2620000J0D01*
G01*
%TO.C,C1*%
X106470000Y-121710000D02*
X111630000Y-121710000D01*
X106470000Y-121750000D02*
X111630000Y-121750000D01*
X106471000Y-121670000D02*
X111629000Y-121670000D01*
X106473000Y-121630000D02*
X111627000Y-121630000D01*
X106475000Y-121590000D02*
X111625000Y-121590000D01*
X106478000Y-121550000D02*
X111622000Y-121550000D01*
X106481000Y-121510000D02*
X108010000Y-121510000D01*
X106485000Y-121470000D02*
X108010000Y-121470000D01*
X106490000Y-121430000D02*
X108010000Y-121430000D01*
X106495000Y-121390000D02*
X108010000Y-121390000D01*
X106501000Y-121350000D02*
X108010000Y-121350000D01*
X106507000Y-121310000D02*
X108010000Y-121310000D01*
X106514000Y-121270000D02*
X108010000Y-121270000D01*
X106522000Y-121230000D02*
X108010000Y-121230000D01*
X106531000Y-121190000D02*
X108010000Y-121190000D01*
X106540000Y-121150000D02*
X108010000Y-121150000D01*
X106549000Y-121110000D02*
X108010000Y-121110000D01*
X106560000Y-121070000D02*
X108010000Y-121070000D01*
X106571000Y-121030000D02*
X108010000Y-121030000D01*
X106583000Y-120990000D02*
X108010000Y-120990000D01*
X106595000Y-120950000D02*
X108010000Y-120950000D01*
X106608000Y-120910000D02*
X108010000Y-120910000D01*
X106622000Y-120870000D02*
X108010000Y-120870000D01*
X106637000Y-120830000D02*
X108010000Y-120830000D01*
X106652000Y-120790000D02*
X108010000Y-120790000D01*
X106668000Y-120750000D02*
X108010000Y-120750000D01*
X106685000Y-120710000D02*
X108010000Y-120710000D01*
X106703000Y-120670000D02*
X108010000Y-120670000D01*
X106721000Y-120630000D02*
X108010000Y-120630000D01*
X106741000Y-120590000D02*
X108010000Y-120590000D01*
X106761000Y-120550000D02*
X108010000Y-120550000D01*
X106782000Y-120510000D02*
X108010000Y-120510000D01*
X106804000Y-120470000D02*
X108010000Y-120470000D01*
X106827000Y-120430000D02*
X108010000Y-120430000D01*
X106851000Y-120390000D02*
X108010000Y-120390000D01*
X106875000Y-120350000D02*
X108010000Y-120350000D01*
X106901000Y-120310000D02*
X108010000Y-120310000D01*
X106928000Y-120270000D02*
X108010000Y-120270000D01*
X106956000Y-120230000D02*
X108010000Y-120230000D01*
X106985000Y-120190000D02*
X108010000Y-120190000D01*
X107015000Y-120150000D02*
X108010000Y-120150000D01*
X107047000Y-120110000D02*
X108010000Y-120110000D01*
X107080000Y-120070000D02*
X108010000Y-120070000D01*
X107114000Y-120030000D02*
X108010000Y-120030000D01*
X107149000Y-119990000D02*
X108010000Y-119990000D01*
X107186000Y-119950000D02*
X108010000Y-119950000D01*
X107225000Y-119910000D02*
X108010000Y-119910000D01*
X107265000Y-119870000D02*
X108010000Y-119870000D01*
X107307000Y-119830000D02*
X108010000Y-119830000D01*
X107325000Y-124304775D02*
X107825000Y-124304775D01*
X107351000Y-119790000D02*
X108010000Y-119790000D01*
X107398000Y-119750000D02*
X108010000Y-119750000D01*
X107446000Y-119710000D02*
X108010000Y-119710000D01*
X107497000Y-119670000D02*
X108010000Y-119670000D01*
X107551000Y-119630000D02*
X108010000Y-119630000D01*
X107575000Y-124554775D02*
X107575000Y-124054775D01*
X107607000Y-119590000D02*
X108010000Y-119590000D01*
X107667000Y-119550000D02*
X108010000Y-119550000D01*
X107731000Y-119510000D02*
X108010000Y-119510000D01*
X107799000Y-119470000D02*
X108010000Y-119470000D01*
X107873000Y-119430000D02*
X110227000Y-119430000D01*
X107952000Y-119390000D02*
X110148000Y-119390000D01*
X108039000Y-119350000D02*
X110061000Y-119350000D01*
X108136000Y-119310000D02*
X109964000Y-119310000D01*
X108245000Y-119270000D02*
X109855000Y-119270000D01*
X108373000Y-119230000D02*
X109727000Y-119230000D01*
X108533000Y-119190000D02*
X109567000Y-119190000D01*
X108767000Y-119150000D02*
X109333000Y-119150000D01*
X110090000Y-119470000D02*
X110301000Y-119470000D01*
X110090000Y-119510000D02*
X110369000Y-119510000D01*
X110090000Y-119550000D02*
X110433000Y-119550000D01*
X110090000Y-119590000D02*
X110493000Y-119590000D01*
X110090000Y-119630000D02*
X110549000Y-119630000D01*
X110090000Y-119670000D02*
X110603000Y-119670000D01*
X110090000Y-119710000D02*
X110654000Y-119710000D01*
X110090000Y-119750000D02*
X110702000Y-119750000D01*
X110090000Y-119790000D02*
X110749000Y-119790000D01*
X110090000Y-119830000D02*
X110793000Y-119830000D01*
X110090000Y-119870000D02*
X110835000Y-119870000D01*
X110090000Y-119910000D02*
X110875000Y-119910000D01*
X110090000Y-119950000D02*
X110914000Y-119950000D01*
X110090000Y-119990000D02*
X110951000Y-119990000D01*
X110090000Y-120030000D02*
X110986000Y-120030000D01*
X110090000Y-120070000D02*
X111020000Y-120070000D01*
X110090000Y-120110000D02*
X111053000Y-120110000D01*
X110090000Y-120150000D02*
X111085000Y-120150000D01*
X110090000Y-120190000D02*
X111115000Y-120190000D01*
X110090000Y-120230000D02*
X111144000Y-120230000D01*
X110090000Y-120270000D02*
X111172000Y-120270000D01*
X110090000Y-120310000D02*
X111199000Y-120310000D01*
X110090000Y-120350000D02*
X111225000Y-120350000D01*
X110090000Y-120390000D02*
X111249000Y-120390000D01*
X110090000Y-120430000D02*
X111273000Y-120430000D01*
X110090000Y-120470000D02*
X111296000Y-120470000D01*
X110090000Y-120510000D02*
X111318000Y-120510000D01*
X110090000Y-120550000D02*
X111339000Y-120550000D01*
X110090000Y-120590000D02*
X111359000Y-120590000D01*
X110090000Y-120630000D02*
X111379000Y-120630000D01*
X110090000Y-120670000D02*
X111397000Y-120670000D01*
X110090000Y-120710000D02*
X111415000Y-120710000D01*
X110090000Y-120750000D02*
X111432000Y-120750000D01*
X110090000Y-120790000D02*
X111448000Y-120790000D01*
X110090000Y-120830000D02*
X111463000Y-120830000D01*
X110090000Y-120870000D02*
X111478000Y-120870000D01*
X110090000Y-120910000D02*
X111492000Y-120910000D01*
X110090000Y-120950000D02*
X111505000Y-120950000D01*
X110090000Y-120990000D02*
X111517000Y-120990000D01*
X110090000Y-121030000D02*
X111529000Y-121030000D01*
X110090000Y-121070000D02*
X111540000Y-121070000D01*
X110090000Y-121110000D02*
X111551000Y-121110000D01*
X110090000Y-121150000D02*
X111560000Y-121150000D01*
X110090000Y-121190000D02*
X111569000Y-121190000D01*
X110090000Y-121230000D02*
X111578000Y-121230000D01*
X110090000Y-121270000D02*
X111586000Y-121270000D01*
X110090000Y-121310000D02*
X111593000Y-121310000D01*
X110090000Y-121350000D02*
X111599000Y-121350000D01*
X110090000Y-121390000D02*
X111605000Y-121390000D01*
X110090000Y-121430000D02*
X111610000Y-121430000D01*
X110090000Y-121470000D02*
X111615000Y-121470000D01*
X110090000Y-121510000D02*
X111619000Y-121510000D01*
X111670000Y-121750000D02*
G75*
G02*
X106430000Y-121750000I-2620000J0D01*
G01*
X106430000Y-121750000D02*
G75*
G02*
X111670000Y-121750000I2620000J0D01*
G01*
D13*
%TO.C,U4*%
X68340000Y-123680000D02*
X68340000Y-123956000D01*
X68340000Y-133564000D02*
X68340000Y-133840000D01*
X75040000Y-123680000D02*
X68340000Y-123680000D01*
X75040000Y-123680000D02*
X75040000Y-123956000D01*
X75040000Y-133564000D02*
X75040000Y-133840000D01*
X75040000Y-133840000D02*
X68340000Y-133840000D01*
D11*
X77274000Y-132570000D02*
G75*
G02*
X77074000Y-132570000I-100000J0D01*
G01*
X77074000Y-132570000D02*
G75*
G02*
X77274000Y-132570000I100000J0D01*
G01*
D14*
%TO.C,C4*%
X69000000Y-155883000D02*
X69000000Y-155317000D01*
X69040000Y-156117000D02*
X69040000Y-155083000D01*
X69080000Y-156277000D02*
X69080000Y-154923000D01*
X69120000Y-156405000D02*
X69120000Y-154795000D01*
X69160000Y-156514000D02*
X69160000Y-154686000D01*
X69200000Y-156611000D02*
X69200000Y-154589000D01*
X69240000Y-156698000D02*
X69240000Y-154502000D01*
X69280000Y-156777000D02*
X69280000Y-154423000D01*
X69320000Y-154560000D02*
X69320000Y-154349000D01*
X69320000Y-156851000D02*
X69320000Y-156640000D01*
X69360000Y-154560000D02*
X69360000Y-154281000D01*
X69360000Y-156919000D02*
X69360000Y-156640000D01*
X69400000Y-154560000D02*
X69400000Y-154217000D01*
X69400000Y-156983000D02*
X69400000Y-156640000D01*
X69440000Y-154560000D02*
X69440000Y-154157000D01*
X69440000Y-157043000D02*
X69440000Y-156640000D01*
X69480000Y-154560000D02*
X69480000Y-154101000D01*
X69480000Y-157099000D02*
X69480000Y-156640000D01*
X69520000Y-154560000D02*
X69520000Y-154047000D01*
X69520000Y-157153000D02*
X69520000Y-156640000D01*
X69560000Y-154560000D02*
X69560000Y-153996000D01*
X69560000Y-157204000D02*
X69560000Y-156640000D01*
X69600000Y-154560000D02*
X69600000Y-153948000D01*
X69600000Y-157252000D02*
X69600000Y-156640000D01*
X69640000Y-154560000D02*
X69640000Y-153901000D01*
X69640000Y-157299000D02*
X69640000Y-156640000D01*
X69680000Y-154560000D02*
X69680000Y-153857000D01*
X69680000Y-157343000D02*
X69680000Y-156640000D01*
X69720000Y-154560000D02*
X69720000Y-153815000D01*
X69720000Y-157385000D02*
X69720000Y-156640000D01*
X69760000Y-154560000D02*
X69760000Y-153775000D01*
X69760000Y-157425000D02*
X69760000Y-156640000D01*
X69800000Y-154560000D02*
X69800000Y-153736000D01*
X69800000Y-157464000D02*
X69800000Y-156640000D01*
X69840000Y-154560000D02*
X69840000Y-153699000D01*
X69840000Y-157501000D02*
X69840000Y-156640000D01*
X69880000Y-154560000D02*
X69880000Y-153664000D01*
X69880000Y-157536000D02*
X69880000Y-156640000D01*
X69920000Y-154560000D02*
X69920000Y-153630000D01*
X69920000Y-157570000D02*
X69920000Y-156640000D01*
X69960000Y-154560000D02*
X69960000Y-153597000D01*
X69960000Y-157603000D02*
X69960000Y-156640000D01*
X70000000Y-154560000D02*
X70000000Y-153565000D01*
X70000000Y-157635000D02*
X70000000Y-156640000D01*
X70040000Y-154560000D02*
X70040000Y-153535000D01*
X70040000Y-157665000D02*
X70040000Y-156640000D01*
X70080000Y-154560000D02*
X70080000Y-153506000D01*
X70080000Y-157694000D02*
X70080000Y-156640000D01*
X70120000Y-154560000D02*
X70120000Y-153478000D01*
X70120000Y-157722000D02*
X70120000Y-156640000D01*
X70160000Y-154560000D02*
X70160000Y-153451000D01*
X70160000Y-157749000D02*
X70160000Y-156640000D01*
X70200000Y-154560000D02*
X70200000Y-153425000D01*
X70200000Y-157775000D02*
X70200000Y-156640000D01*
X70240000Y-154560000D02*
X70240000Y-153401000D01*
X70240000Y-157799000D02*
X70240000Y-156640000D01*
X70280000Y-154560000D02*
X70280000Y-153377000D01*
X70280000Y-157823000D02*
X70280000Y-156640000D01*
X70320000Y-154560000D02*
X70320000Y-153354000D01*
X70320000Y-157846000D02*
X70320000Y-156640000D01*
X70360000Y-154560000D02*
X70360000Y-153332000D01*
X70360000Y-157868000D02*
X70360000Y-156640000D01*
X70400000Y-154560000D02*
X70400000Y-153311000D01*
X70400000Y-157889000D02*
X70400000Y-156640000D01*
X70440000Y-154560000D02*
X70440000Y-153291000D01*
X70440000Y-157909000D02*
X70440000Y-156640000D01*
X70480000Y-154560000D02*
X70480000Y-153271000D01*
X70480000Y-157929000D02*
X70480000Y-156640000D01*
X70520000Y-154560000D02*
X70520000Y-153253000D01*
X70520000Y-157947000D02*
X70520000Y-156640000D01*
X70560000Y-154560000D02*
X70560000Y-153235000D01*
X70560000Y-157965000D02*
X70560000Y-156640000D01*
X70600000Y-154560000D02*
X70600000Y-153218000D01*
X70600000Y-157982000D02*
X70600000Y-156640000D01*
X70640000Y-154560000D02*
X70640000Y-153202000D01*
X70640000Y-157998000D02*
X70640000Y-156640000D01*
X70680000Y-154560000D02*
X70680000Y-153187000D01*
X70680000Y-158013000D02*
X70680000Y-156640000D01*
X70720000Y-154560000D02*
X70720000Y-153172000D01*
X70720000Y-158028000D02*
X70720000Y-156640000D01*
X70760000Y-154560000D02*
X70760000Y-153158000D01*
X70760000Y-158042000D02*
X70760000Y-156640000D01*
X70800000Y-154560000D02*
X70800000Y-153145000D01*
X70800000Y-158055000D02*
X70800000Y-156640000D01*
X70840000Y-154560000D02*
X70840000Y-153133000D01*
X70840000Y-158067000D02*
X70840000Y-156640000D01*
X70880000Y-154560000D02*
X70880000Y-153121000D01*
X70880000Y-158079000D02*
X70880000Y-156640000D01*
X70920000Y-154560000D02*
X70920000Y-153110000D01*
X70920000Y-158090000D02*
X70920000Y-156640000D01*
X70960000Y-154560000D02*
X70960000Y-153099000D01*
X70960000Y-158101000D02*
X70960000Y-156640000D01*
X71000000Y-154560000D02*
X71000000Y-153090000D01*
X71000000Y-158110000D02*
X71000000Y-156640000D01*
X71040000Y-154560000D02*
X71040000Y-153081000D01*
X71040000Y-158119000D02*
X71040000Y-156640000D01*
X71080000Y-154560000D02*
X71080000Y-153072000D01*
X71080000Y-158128000D02*
X71080000Y-156640000D01*
X71120000Y-154560000D02*
X71120000Y-153064000D01*
X71120000Y-158136000D02*
X71120000Y-156640000D01*
X71160000Y-154560000D02*
X71160000Y-153057000D01*
X71160000Y-158143000D02*
X71160000Y-156640000D01*
X71200000Y-154560000D02*
X71200000Y-153051000D01*
X71200000Y-158149000D02*
X71200000Y-156640000D01*
X71240000Y-154560000D02*
X71240000Y-153045000D01*
X71240000Y-158155000D02*
X71240000Y-156640000D01*
X71280000Y-154560000D02*
X71280000Y-153040000D01*
X71280000Y-158160000D02*
X71280000Y-156640000D01*
X71320000Y-154560000D02*
X71320000Y-153035000D01*
X71320000Y-158165000D02*
X71320000Y-156640000D01*
X71360000Y-154560000D02*
X71360000Y-153031000D01*
X71360000Y-158169000D02*
X71360000Y-156640000D01*
X71400000Y-158172000D02*
X71400000Y-153028000D01*
X71440000Y-158175000D02*
X71440000Y-153025000D01*
X71480000Y-158177000D02*
X71480000Y-153023000D01*
X71520000Y-158179000D02*
X71520000Y-153021000D01*
X71560000Y-158180000D02*
X71560000Y-153020000D01*
X71600000Y-158180000D02*
X71600000Y-153020000D01*
X74154775Y-157325000D02*
X74154775Y-156825000D01*
X74404775Y-157075000D02*
X73904775Y-157075000D01*
X74220000Y-155600000D02*
G75*
G02*
X68980000Y-155600000I-2620000J0D01*
G01*
X68980000Y-155600000D02*
G75*
G02*
X74220000Y-155600000I2620000J0D01*
G01*
%TO.C,U5*%
X51055000Y-156955000D02*
X51055000Y-112955000D01*
X60055000Y-156955000D02*
X61055000Y-156955000D01*
X65055000Y-112955000D02*
X51055000Y-112955000D01*
X65055000Y-156955000D02*
X51055000Y-156955000D01*
X65055000Y-156955000D02*
X65055000Y-112955000D01*
D10*
X62165000Y-157955000D02*
G75*
G02*
X61565000Y-157955000I-300000J0D01*
G01*
X61565000Y-157955000D02*
G75*
G02*
X62165000Y-157955000I300000J0D01*
G01*
D14*
%TO.C,C5*%
X69000000Y-148333000D02*
X69000000Y-147767000D01*
X69040000Y-148567000D02*
X69040000Y-147533000D01*
X69080000Y-148727000D02*
X69080000Y-147373000D01*
X69120000Y-148855000D02*
X69120000Y-147245000D01*
X69160000Y-148964000D02*
X69160000Y-147136000D01*
X69200000Y-149061000D02*
X69200000Y-147039000D01*
X69240000Y-149148000D02*
X69240000Y-146952000D01*
X69280000Y-149227000D02*
X69280000Y-146873000D01*
X69320000Y-147010000D02*
X69320000Y-146799000D01*
X69320000Y-149301000D02*
X69320000Y-149090000D01*
X69360000Y-147010000D02*
X69360000Y-146731000D01*
X69360000Y-149369000D02*
X69360000Y-149090000D01*
X69400000Y-147010000D02*
X69400000Y-146667000D01*
X69400000Y-149433000D02*
X69400000Y-149090000D01*
X69440000Y-147010000D02*
X69440000Y-146607000D01*
X69440000Y-149493000D02*
X69440000Y-149090000D01*
X69480000Y-147010000D02*
X69480000Y-146551000D01*
X69480000Y-149549000D02*
X69480000Y-149090000D01*
X69520000Y-147010000D02*
X69520000Y-146497000D01*
X69520000Y-149603000D02*
X69520000Y-149090000D01*
X69560000Y-147010000D02*
X69560000Y-146446000D01*
X69560000Y-149654000D02*
X69560000Y-149090000D01*
X69600000Y-147010000D02*
X69600000Y-146398000D01*
X69600000Y-149702000D02*
X69600000Y-149090000D01*
X69640000Y-147010000D02*
X69640000Y-146351000D01*
X69640000Y-149749000D02*
X69640000Y-149090000D01*
X69680000Y-147010000D02*
X69680000Y-146307000D01*
X69680000Y-149793000D02*
X69680000Y-149090000D01*
X69720000Y-147010000D02*
X69720000Y-146265000D01*
X69720000Y-149835000D02*
X69720000Y-149090000D01*
X69760000Y-147010000D02*
X69760000Y-146225000D01*
X69760000Y-149875000D02*
X69760000Y-149090000D01*
X69800000Y-147010000D02*
X69800000Y-146186000D01*
X69800000Y-149914000D02*
X69800000Y-149090000D01*
X69840000Y-147010000D02*
X69840000Y-146149000D01*
X69840000Y-149951000D02*
X69840000Y-149090000D01*
X69880000Y-147010000D02*
X69880000Y-146114000D01*
X69880000Y-149986000D02*
X69880000Y-149090000D01*
X69920000Y-147010000D02*
X69920000Y-146080000D01*
X69920000Y-150020000D02*
X69920000Y-149090000D01*
X69960000Y-147010000D02*
X69960000Y-146047000D01*
X69960000Y-150053000D02*
X69960000Y-149090000D01*
X70000000Y-147010000D02*
X70000000Y-146015000D01*
X70000000Y-150085000D02*
X70000000Y-149090000D01*
X70040000Y-147010000D02*
X70040000Y-145985000D01*
X70040000Y-150115000D02*
X70040000Y-149090000D01*
X70080000Y-147010000D02*
X70080000Y-145956000D01*
X70080000Y-150144000D02*
X70080000Y-149090000D01*
X70120000Y-147010000D02*
X70120000Y-145928000D01*
X70120000Y-150172000D02*
X70120000Y-149090000D01*
X70160000Y-147010000D02*
X70160000Y-145901000D01*
X70160000Y-150199000D02*
X70160000Y-149090000D01*
X70200000Y-147010000D02*
X70200000Y-145875000D01*
X70200000Y-150225000D02*
X70200000Y-149090000D01*
X70240000Y-147010000D02*
X70240000Y-145851000D01*
X70240000Y-150249000D02*
X70240000Y-149090000D01*
X70280000Y-147010000D02*
X70280000Y-145827000D01*
X70280000Y-150273000D02*
X70280000Y-149090000D01*
X70320000Y-147010000D02*
X70320000Y-145804000D01*
X70320000Y-150296000D02*
X70320000Y-149090000D01*
X70360000Y-147010000D02*
X70360000Y-145782000D01*
X70360000Y-150318000D02*
X70360000Y-149090000D01*
X70400000Y-147010000D02*
X70400000Y-145761000D01*
X70400000Y-150339000D02*
X70400000Y-149090000D01*
X70440000Y-147010000D02*
X70440000Y-145741000D01*
X70440000Y-150359000D02*
X70440000Y-149090000D01*
X70480000Y-147010000D02*
X70480000Y-145721000D01*
X70480000Y-150379000D02*
X70480000Y-149090000D01*
X70520000Y-147010000D02*
X70520000Y-145703000D01*
X70520000Y-150397000D02*
X70520000Y-149090000D01*
X70560000Y-147010000D02*
X70560000Y-145685000D01*
X70560000Y-150415000D02*
X70560000Y-149090000D01*
X70600000Y-147010000D02*
X70600000Y-145668000D01*
X70600000Y-150432000D02*
X70600000Y-149090000D01*
X70640000Y-147010000D02*
X70640000Y-145652000D01*
X70640000Y-150448000D02*
X70640000Y-149090000D01*
X70680000Y-147010000D02*
X70680000Y-145637000D01*
X70680000Y-150463000D02*
X70680000Y-149090000D01*
X70720000Y-147010000D02*
X70720000Y-145622000D01*
X70720000Y-150478000D02*
X70720000Y-149090000D01*
X70760000Y-147010000D02*
X70760000Y-145608000D01*
X70760000Y-150492000D02*
X70760000Y-149090000D01*
X70800000Y-147010000D02*
X70800000Y-145595000D01*
X70800000Y-150505000D02*
X70800000Y-149090000D01*
X70840000Y-147010000D02*
X70840000Y-145583000D01*
X70840000Y-150517000D02*
X70840000Y-149090000D01*
X70880000Y-147010000D02*
X70880000Y-145571000D01*
X70880000Y-150529000D02*
X70880000Y-149090000D01*
X70920000Y-147010000D02*
X70920000Y-145560000D01*
X70920000Y-150540000D02*
X70920000Y-149090000D01*
X70960000Y-147010000D02*
X70960000Y-145549000D01*
X70960000Y-150551000D02*
X70960000Y-149090000D01*
X71000000Y-147010000D02*
X71000000Y-145540000D01*
X71000000Y-150560000D02*
X71000000Y-149090000D01*
X71040000Y-147010000D02*
X71040000Y-145531000D01*
X71040000Y-150569000D02*
X71040000Y-149090000D01*
X71080000Y-147010000D02*
X71080000Y-145522000D01*
X71080000Y-150578000D02*
X71080000Y-149090000D01*
X71120000Y-147010000D02*
X71120000Y-145514000D01*
X71120000Y-150586000D02*
X71120000Y-149090000D01*
X71160000Y-147010000D02*
X71160000Y-145507000D01*
X71160000Y-150593000D02*
X71160000Y-149090000D01*
X71200000Y-147010000D02*
X71200000Y-145501000D01*
X71200000Y-150599000D02*
X71200000Y-149090000D01*
X71240000Y-147010000D02*
X71240000Y-145495000D01*
X71240000Y-150605000D02*
X71240000Y-149090000D01*
X71280000Y-147010000D02*
X71280000Y-145490000D01*
X71280000Y-150610000D02*
X71280000Y-149090000D01*
X71320000Y-147010000D02*
X71320000Y-145485000D01*
X71320000Y-150615000D02*
X71320000Y-149090000D01*
X71360000Y-147010000D02*
X71360000Y-145481000D01*
X71360000Y-150619000D02*
X71360000Y-149090000D01*
X71400000Y-150622000D02*
X71400000Y-145478000D01*
X71440000Y-150625000D02*
X71440000Y-145475000D01*
X71480000Y-150627000D02*
X71480000Y-145473000D01*
X71520000Y-150629000D02*
X71520000Y-145471000D01*
X71560000Y-150630000D02*
X71560000Y-145470000D01*
X71600000Y-150630000D02*
X71600000Y-145470000D01*
X74154775Y-149775000D02*
X74154775Y-149275000D01*
X74404775Y-149525000D02*
X73904775Y-149525000D01*
X74220000Y-148050000D02*
G75*
G02*
X68980000Y-148050000I-2620000J0D01*
G01*
X68980000Y-148050000D02*
G75*
G02*
X74220000Y-148050000I2620000J0D01*
G01*
D13*
%TO.C,R9*%
X111375000Y-133650000D02*
X111375000Y-134230000D01*
X111375000Y-136570000D02*
X111375000Y-137150000D01*
X112300000Y-133650000D02*
X111375000Y-133650000D01*
X112300000Y-133650000D02*
X112300000Y-132850000D01*
X112300000Y-137150000D02*
X111375000Y-137150000D01*
X112300000Y-137150000D02*
X112300000Y-137950000D01*
X113225000Y-133650000D02*
X112300000Y-133650000D01*
X113225000Y-134230000D02*
X113225000Y-133650000D01*
X113225000Y-136570000D02*
X113225000Y-137150000D01*
X113225000Y-137150000D02*
X112300000Y-137150000D01*
D14*
%TO.C,U1*%
X115650000Y-152602969D02*
X115650000Y-175400000D01*
X117650000Y-176000000D02*
X115650000Y-175400000D01*
X117650000Y-176000000D02*
X117650000Y-181797031D01*
X118800000Y-182947030D02*
X140200000Y-182947030D01*
X137250000Y-148350000D02*
X119800000Y-148350000D01*
X141350000Y-181797031D02*
X141350000Y-152497031D01*
X115650000Y-152600000D02*
G75*
G02*
X119800000Y-148345753I4150000J102970D01*
G01*
X118800000Y-182950000D02*
G75*
G02*
X117647030Y-181797030I0J1152970D01*
G01*
X137200000Y-148350000D02*
G75*
G02*
X141347000Y-152497031I0J-4147000D01*
G01*
X141350000Y-181797031D02*
G75*
G02*
X140200000Y-182947030I-1150000J1D01*
G01*
X115145000Y-156250000D02*
X114510000Y-156885000D01*
X114510000Y-155615000D01*
X115145000Y-156250000D01*
G36*
X115145000Y-156250000D02*
G01*
X114510000Y-156885000D01*
X114510000Y-155615000D01*
X115145000Y-156250000D01*
G37*
D13*
%TO.C,U7*%
X115420000Y-122450000D02*
X115420000Y-129150000D01*
X115420000Y-122450000D02*
X115696000Y-122450000D01*
X115420000Y-129150000D02*
X115696000Y-129150000D01*
X125304000Y-122450000D02*
X125580000Y-122450000D01*
X125304000Y-129150000D02*
X125580000Y-129150000D01*
X125580000Y-122450000D02*
X125580000Y-129150000D01*
D11*
X124410000Y-120316000D02*
G75*
G02*
X124210000Y-120316000I-100000J0D01*
G01*
X124210000Y-120316000D02*
G75*
G02*
X124410000Y-120316000I100000J0D01*
G01*
D13*
%TO.C,R4*%
X93975000Y-162000000D02*
X93975000Y-162580000D01*
X93975000Y-164920000D02*
X93975000Y-165500000D01*
X94900000Y-162000000D02*
X93975000Y-162000000D01*
X94900000Y-162000000D02*
X94900000Y-161200000D01*
X94900000Y-165500000D02*
X93975000Y-165500000D01*
X94900000Y-165500000D02*
X94900000Y-166300000D01*
X95825000Y-162000000D02*
X94900000Y-162000000D01*
X95825000Y-162580000D02*
X95825000Y-162000000D01*
X95825000Y-164920000D02*
X95825000Y-165500000D01*
X95825000Y-165500000D02*
X94900000Y-165500000D01*
D11*
%TO.C,U6*%
X132040000Y-146350000D02*
X132040000Y-142750000D01*
X142040000Y-142750000D02*
X132040000Y-142750000D01*
X142040000Y-146350000D02*
X132040000Y-146350000D01*
X142040000Y-146350000D02*
X142040000Y-142750000D01*
D15*
X133072840Y-144550000D02*
G75*
G02*
X132507160Y-144550000I-282840J0D01*
G01*
X132507160Y-144550000D02*
G75*
G02*
X133072840Y-144550000I282840J0D01*
G01*
D13*
%TO.C,D1*%
X129785000Y-112712500D02*
X134415000Y-112712500D01*
X129785000Y-113900000D02*
X128035000Y-113900000D01*
X129785000Y-113900000D02*
X129785000Y-112712500D01*
X129785000Y-115087500D02*
X129785000Y-113900000D01*
X134415000Y-112712500D02*
X134415000Y-113900000D01*
X134415000Y-113900000D02*
X134415000Y-115087500D01*
X134415000Y-115087500D02*
X129785000Y-115087500D01*
X136165000Y-113900000D02*
X134415000Y-113900000D01*
D11*
X139175000Y-113900000D02*
G75*
G02*
X138975000Y-113900000I-100000J0D01*
G01*
X138975000Y-113900000D02*
G75*
G02*
X139175000Y-113900000I100000J0D01*
G01*
D13*
%TO.C,R10*%
X66975000Y-115600000D02*
X67900000Y-115600000D01*
X66975000Y-116180000D02*
X66975000Y-115600000D01*
X66975000Y-118520000D02*
X66975000Y-119100000D01*
X66975000Y-119100000D02*
X67900000Y-119100000D01*
X67900000Y-115600000D02*
X67900000Y-114800000D01*
X67900000Y-115600000D02*
X68825000Y-115600000D01*
X67900000Y-119100000D02*
X67900000Y-119900000D01*
X67900000Y-119100000D02*
X68825000Y-119100000D01*
X68825000Y-116180000D02*
X68825000Y-115600000D01*
X68825000Y-119100000D02*
X68825000Y-118520000D01*
%TO.C,J4*%
X49510000Y-171362500D02*
X64750000Y-171362500D01*
X49510000Y-181562500D02*
X49510000Y-171362500D01*
X64750000Y-171362500D02*
X64750000Y-181562500D01*
X64750000Y-181562500D02*
X49510000Y-181562500D01*
D11*
X52150000Y-170362500D02*
G75*
G02*
X51950000Y-170362500I-100000J0D01*
G01*
X51950000Y-170362500D02*
G75*
G02*
X52150000Y-170362500I100000J0D01*
G01*
D14*
%TO.C,C6*%
X102750000Y-163133000D02*
X102750000Y-162567000D01*
X102790000Y-163367000D02*
X102790000Y-162333000D01*
X102830000Y-163527000D02*
X102830000Y-162173000D01*
X102870000Y-163655000D02*
X102870000Y-162045000D01*
X102910000Y-163764000D02*
X102910000Y-161936000D01*
X102950000Y-163861000D02*
X102950000Y-161839000D01*
X102990000Y-163948000D02*
X102990000Y-161752000D01*
X103030000Y-164027000D02*
X103030000Y-161673000D01*
X103070000Y-161810000D02*
X103070000Y-161599000D01*
X103070000Y-164101000D02*
X103070000Y-163890000D01*
X103110000Y-161810000D02*
X103110000Y-161531000D01*
X103110000Y-164169000D02*
X103110000Y-163890000D01*
X103150000Y-161810000D02*
X103150000Y-161467000D01*
X103150000Y-164233000D02*
X103150000Y-163890000D01*
X103190000Y-161810000D02*
X103190000Y-161407000D01*
X103190000Y-164293000D02*
X103190000Y-163890000D01*
X103230000Y-161810000D02*
X103230000Y-161351000D01*
X103230000Y-164349000D02*
X103230000Y-163890000D01*
X103270000Y-161810000D02*
X103270000Y-161297000D01*
X103270000Y-164403000D02*
X103270000Y-163890000D01*
X103310000Y-161810000D02*
X103310000Y-161246000D01*
X103310000Y-164454000D02*
X103310000Y-163890000D01*
X103350000Y-161810000D02*
X103350000Y-161198000D01*
X103350000Y-164502000D02*
X103350000Y-163890000D01*
X103390000Y-161810000D02*
X103390000Y-161151000D01*
X103390000Y-164549000D02*
X103390000Y-163890000D01*
X103430000Y-161810000D02*
X103430000Y-161107000D01*
X103430000Y-164593000D02*
X103430000Y-163890000D01*
X103470000Y-161810000D02*
X103470000Y-161065000D01*
X103470000Y-164635000D02*
X103470000Y-163890000D01*
X103510000Y-161810000D02*
X103510000Y-161025000D01*
X103510000Y-164675000D02*
X103510000Y-163890000D01*
X103550000Y-161810000D02*
X103550000Y-160986000D01*
X103550000Y-164714000D02*
X103550000Y-163890000D01*
X103590000Y-161810000D02*
X103590000Y-160949000D01*
X103590000Y-164751000D02*
X103590000Y-163890000D01*
X103630000Y-161810000D02*
X103630000Y-160914000D01*
X103630000Y-164786000D02*
X103630000Y-163890000D01*
X103670000Y-161810000D02*
X103670000Y-160880000D01*
X103670000Y-164820000D02*
X103670000Y-163890000D01*
X103710000Y-161810000D02*
X103710000Y-160847000D01*
X103710000Y-164853000D02*
X103710000Y-163890000D01*
X103750000Y-161810000D02*
X103750000Y-160815000D01*
X103750000Y-164885000D02*
X103750000Y-163890000D01*
X103790000Y-161810000D02*
X103790000Y-160785000D01*
X103790000Y-164915000D02*
X103790000Y-163890000D01*
X103830000Y-161810000D02*
X103830000Y-160756000D01*
X103830000Y-164944000D02*
X103830000Y-163890000D01*
X103870000Y-161810000D02*
X103870000Y-160728000D01*
X103870000Y-164972000D02*
X103870000Y-163890000D01*
X103910000Y-161810000D02*
X103910000Y-160701000D01*
X103910000Y-164999000D02*
X103910000Y-163890000D01*
X103950000Y-161810000D02*
X103950000Y-160675000D01*
X103950000Y-165025000D02*
X103950000Y-163890000D01*
X103990000Y-161810000D02*
X103990000Y-160651000D01*
X103990000Y-165049000D02*
X103990000Y-163890000D01*
X104030000Y-161810000D02*
X104030000Y-160627000D01*
X104030000Y-165073000D02*
X104030000Y-163890000D01*
X104070000Y-161810000D02*
X104070000Y-160604000D01*
X104070000Y-165096000D02*
X104070000Y-163890000D01*
X104110000Y-161810000D02*
X104110000Y-160582000D01*
X104110000Y-165118000D02*
X104110000Y-163890000D01*
X104150000Y-161810000D02*
X104150000Y-160561000D01*
X104150000Y-165139000D02*
X104150000Y-163890000D01*
X104190000Y-161810000D02*
X104190000Y-160541000D01*
X104190000Y-165159000D02*
X104190000Y-163890000D01*
X104230000Y-161810000D02*
X104230000Y-160521000D01*
X104230000Y-165179000D02*
X104230000Y-163890000D01*
X104270000Y-161810000D02*
X104270000Y-160503000D01*
X104270000Y-165197000D02*
X104270000Y-163890000D01*
X104310000Y-161810000D02*
X104310000Y-160485000D01*
X104310000Y-165215000D02*
X104310000Y-163890000D01*
X104350000Y-161810000D02*
X104350000Y-160468000D01*
X104350000Y-165232000D02*
X104350000Y-163890000D01*
X104390000Y-161810000D02*
X104390000Y-160452000D01*
X104390000Y-165248000D02*
X104390000Y-163890000D01*
X104430000Y-161810000D02*
X104430000Y-160437000D01*
X104430000Y-165263000D02*
X104430000Y-163890000D01*
X104470000Y-161810000D02*
X104470000Y-160422000D01*
X104470000Y-165278000D02*
X104470000Y-163890000D01*
X104510000Y-161810000D02*
X104510000Y-160408000D01*
X104510000Y-165292000D02*
X104510000Y-163890000D01*
X104550000Y-161810000D02*
X104550000Y-160395000D01*
X104550000Y-165305000D02*
X104550000Y-163890000D01*
X104590000Y-161810000D02*
X104590000Y-160383000D01*
X104590000Y-165317000D02*
X104590000Y-163890000D01*
X104630000Y-161810000D02*
X104630000Y-160371000D01*
X104630000Y-165329000D02*
X104630000Y-163890000D01*
X104670000Y-161810000D02*
X104670000Y-160360000D01*
X104670000Y-165340000D02*
X104670000Y-163890000D01*
X104710000Y-161810000D02*
X104710000Y-160349000D01*
X104710000Y-165351000D02*
X104710000Y-163890000D01*
X104750000Y-161810000D02*
X104750000Y-160340000D01*
X104750000Y-165360000D02*
X104750000Y-163890000D01*
X104790000Y-161810000D02*
X104790000Y-160331000D01*
X104790000Y-165369000D02*
X104790000Y-163890000D01*
X104830000Y-161810000D02*
X104830000Y-160322000D01*
X104830000Y-165378000D02*
X104830000Y-163890000D01*
X104870000Y-161810000D02*
X104870000Y-160314000D01*
X104870000Y-165386000D02*
X104870000Y-163890000D01*
X104910000Y-161810000D02*
X104910000Y-160307000D01*
X104910000Y-165393000D02*
X104910000Y-163890000D01*
X104950000Y-161810000D02*
X104950000Y-160301000D01*
X104950000Y-165399000D02*
X104950000Y-163890000D01*
X104990000Y-161810000D02*
X104990000Y-160295000D01*
X104990000Y-165405000D02*
X104990000Y-163890000D01*
X105030000Y-161810000D02*
X105030000Y-160290000D01*
X105030000Y-165410000D02*
X105030000Y-163890000D01*
X105070000Y-161810000D02*
X105070000Y-160285000D01*
X105070000Y-165415000D02*
X105070000Y-163890000D01*
X105110000Y-161810000D02*
X105110000Y-160281000D01*
X105110000Y-165419000D02*
X105110000Y-163890000D01*
X105150000Y-165422000D02*
X105150000Y-160278000D01*
X105190000Y-165425000D02*
X105190000Y-160275000D01*
X105230000Y-165427000D02*
X105230000Y-160273000D01*
X105270000Y-165429000D02*
X105270000Y-160271000D01*
X105310000Y-165430000D02*
X105310000Y-160270000D01*
X105350000Y-165430000D02*
X105350000Y-160270000D01*
X107904775Y-164575000D02*
X107904775Y-164075000D01*
X108154775Y-164325000D02*
X107654775Y-164325000D01*
X107970000Y-162850000D02*
G75*
G02*
X102730000Y-162850000I-2620000J0D01*
G01*
X102730000Y-162850000D02*
G75*
G02*
X107970000Y-162850000I2620000J0D01*
G01*
D13*
%TO.C,R8*%
X119750000Y-133875000D02*
X119750000Y-134800000D01*
X119750000Y-134800000D02*
X118950000Y-134800000D01*
X119750000Y-134800000D02*
X119750000Y-135725000D01*
X119750000Y-135725000D02*
X120330000Y-135725000D01*
X120330000Y-133875000D02*
X119750000Y-133875000D01*
X122670000Y-133875000D02*
X123250000Y-133875000D01*
X122670000Y-135725000D02*
X123250000Y-135725000D01*
X123250000Y-133875000D02*
X123250000Y-134800000D01*
X123250000Y-134800000D02*
X123250000Y-135725000D01*
X123250000Y-134800000D02*
X124050000Y-134800000D01*
%TO.C,J1*%
X131710000Y-116280000D02*
X143010000Y-116280000D01*
X131710000Y-126440000D02*
X131710000Y-116280000D01*
X143010000Y-116280000D02*
X143010000Y-126440000D01*
X143010000Y-126440000D02*
X131710000Y-126440000D01*
D11*
X130810000Y-123900000D02*
G75*
G02*
X130610000Y-123900000I-100000J0D01*
G01*
X130610000Y-123900000D02*
G75*
G02*
X130810000Y-123900000I100000J0D01*
G01*
D13*
%TO.C,J2*%
X131562500Y-129320000D02*
X142862500Y-129320000D01*
X131562500Y-139480000D02*
X131562500Y-129320000D01*
X142862500Y-129320000D02*
X142862500Y-139480000D01*
X142862500Y-139480000D02*
X131562500Y-139480000D01*
D11*
X130662500Y-136940000D02*
G75*
G02*
X130462500Y-136940000I-100000J0D01*
G01*
X130462500Y-136940000D02*
G75*
G02*
X130662500Y-136940000I100000J0D01*
G01*
D14*
%TO.C,C8*%
X102750000Y-148183000D02*
X102750000Y-147617000D01*
X102790000Y-148417000D02*
X102790000Y-147383000D01*
X102830000Y-148577000D02*
X102830000Y-147223000D01*
X102870000Y-148705000D02*
X102870000Y-147095000D01*
X102910000Y-148814000D02*
X102910000Y-146986000D01*
X102950000Y-148911000D02*
X102950000Y-146889000D01*
X102990000Y-148998000D02*
X102990000Y-146802000D01*
X103030000Y-149077000D02*
X103030000Y-146723000D01*
X103070000Y-146860000D02*
X103070000Y-146649000D01*
X103070000Y-149151000D02*
X103070000Y-148940000D01*
X103110000Y-146860000D02*
X103110000Y-146581000D01*
X103110000Y-149219000D02*
X103110000Y-148940000D01*
X103150000Y-146860000D02*
X103150000Y-146517000D01*
X103150000Y-149283000D02*
X103150000Y-148940000D01*
X103190000Y-146860000D02*
X103190000Y-146457000D01*
X103190000Y-149343000D02*
X103190000Y-148940000D01*
X103230000Y-146860000D02*
X103230000Y-146401000D01*
X103230000Y-149399000D02*
X103230000Y-148940000D01*
X103270000Y-146860000D02*
X103270000Y-146347000D01*
X103270000Y-149453000D02*
X103270000Y-148940000D01*
X103310000Y-146860000D02*
X103310000Y-146296000D01*
X103310000Y-149504000D02*
X103310000Y-148940000D01*
X103350000Y-146860000D02*
X103350000Y-146248000D01*
X103350000Y-149552000D02*
X103350000Y-148940000D01*
X103390000Y-146860000D02*
X103390000Y-146201000D01*
X103390000Y-149599000D02*
X103390000Y-148940000D01*
X103430000Y-146860000D02*
X103430000Y-146157000D01*
X103430000Y-149643000D02*
X103430000Y-148940000D01*
X103470000Y-146860000D02*
X103470000Y-146115000D01*
X103470000Y-149685000D02*
X103470000Y-148940000D01*
X103510000Y-146860000D02*
X103510000Y-146075000D01*
X103510000Y-149725000D02*
X103510000Y-148940000D01*
X103550000Y-146860000D02*
X103550000Y-146036000D01*
X103550000Y-149764000D02*
X103550000Y-148940000D01*
X103590000Y-146860000D02*
X103590000Y-145999000D01*
X103590000Y-149801000D02*
X103590000Y-148940000D01*
X103630000Y-146860000D02*
X103630000Y-145964000D01*
X103630000Y-149836000D02*
X103630000Y-148940000D01*
X103670000Y-146860000D02*
X103670000Y-145930000D01*
X103670000Y-149870000D02*
X103670000Y-148940000D01*
X103710000Y-146860000D02*
X103710000Y-145897000D01*
X103710000Y-149903000D02*
X103710000Y-148940000D01*
X103750000Y-146860000D02*
X103750000Y-145865000D01*
X103750000Y-149935000D02*
X103750000Y-148940000D01*
X103790000Y-146860000D02*
X103790000Y-145835000D01*
X103790000Y-149965000D02*
X103790000Y-148940000D01*
X103830000Y-146860000D02*
X103830000Y-145806000D01*
X103830000Y-149994000D02*
X103830000Y-148940000D01*
X103870000Y-146860000D02*
X103870000Y-145778000D01*
X103870000Y-150022000D02*
X103870000Y-148940000D01*
X103910000Y-146860000D02*
X103910000Y-145751000D01*
X103910000Y-150049000D02*
X103910000Y-148940000D01*
X103950000Y-146860000D02*
X103950000Y-145725000D01*
X103950000Y-150075000D02*
X103950000Y-148940000D01*
X103990000Y-146860000D02*
X103990000Y-145701000D01*
X103990000Y-150099000D02*
X103990000Y-148940000D01*
X104030000Y-146860000D02*
X104030000Y-145677000D01*
X104030000Y-150123000D02*
X104030000Y-148940000D01*
X104070000Y-146860000D02*
X104070000Y-145654000D01*
X104070000Y-150146000D02*
X104070000Y-148940000D01*
X104110000Y-146860000D02*
X104110000Y-145632000D01*
X104110000Y-150168000D02*
X104110000Y-148940000D01*
X104150000Y-146860000D02*
X104150000Y-145611000D01*
X104150000Y-150189000D02*
X104150000Y-148940000D01*
X104190000Y-146860000D02*
X104190000Y-145591000D01*
X104190000Y-150209000D02*
X104190000Y-148940000D01*
X104230000Y-146860000D02*
X104230000Y-145571000D01*
X104230000Y-150229000D02*
X104230000Y-148940000D01*
X104270000Y-146860000D02*
X104270000Y-145553000D01*
X104270000Y-150247000D02*
X104270000Y-148940000D01*
X104310000Y-146860000D02*
X104310000Y-145535000D01*
X104310000Y-150265000D02*
X104310000Y-148940000D01*
X104350000Y-146860000D02*
X104350000Y-145518000D01*
X104350000Y-150282000D02*
X104350000Y-148940000D01*
X104390000Y-146860000D02*
X104390000Y-145502000D01*
X104390000Y-150298000D02*
X104390000Y-148940000D01*
X104430000Y-146860000D02*
X104430000Y-145487000D01*
X104430000Y-150313000D02*
X104430000Y-148940000D01*
X104470000Y-146860000D02*
X104470000Y-145472000D01*
X104470000Y-150328000D02*
X104470000Y-148940000D01*
X104510000Y-146860000D02*
X104510000Y-145458000D01*
X104510000Y-150342000D02*
X104510000Y-148940000D01*
X104550000Y-146860000D02*
X104550000Y-145445000D01*
X104550000Y-150355000D02*
X104550000Y-148940000D01*
X104590000Y-146860000D02*
X104590000Y-145433000D01*
X104590000Y-150367000D02*
X104590000Y-148940000D01*
X104630000Y-146860000D02*
X104630000Y-145421000D01*
X104630000Y-150379000D02*
X104630000Y-148940000D01*
X104670000Y-146860000D02*
X104670000Y-145410000D01*
X104670000Y-150390000D02*
X104670000Y-148940000D01*
X104710000Y-146860000D02*
X104710000Y-145399000D01*
X104710000Y-150401000D02*
X104710000Y-148940000D01*
X104750000Y-146860000D02*
X104750000Y-145390000D01*
X104750000Y-150410000D02*
X104750000Y-148940000D01*
X104790000Y-146860000D02*
X104790000Y-145381000D01*
X104790000Y-150419000D02*
X104790000Y-148940000D01*
X104830000Y-146860000D02*
X104830000Y-145372000D01*
X104830000Y-150428000D02*
X104830000Y-148940000D01*
X104870000Y-146860000D02*
X104870000Y-145364000D01*
X104870000Y-150436000D02*
X104870000Y-148940000D01*
X104910000Y-146860000D02*
X104910000Y-145357000D01*
X104910000Y-150443000D02*
X104910000Y-148940000D01*
X104950000Y-146860000D02*
X104950000Y-145351000D01*
X104950000Y-150449000D02*
X104950000Y-148940000D01*
X104990000Y-146860000D02*
X104990000Y-145345000D01*
X104990000Y-150455000D02*
X104990000Y-148940000D01*
X105030000Y-146860000D02*
X105030000Y-145340000D01*
X105030000Y-150460000D02*
X105030000Y-148940000D01*
X105070000Y-146860000D02*
X105070000Y-145335000D01*
X105070000Y-150465000D02*
X105070000Y-148940000D01*
X105110000Y-146860000D02*
X105110000Y-145331000D01*
X105110000Y-150469000D02*
X105110000Y-148940000D01*
X105150000Y-150472000D02*
X105150000Y-145328000D01*
X105190000Y-150475000D02*
X105190000Y-145325000D01*
X105230000Y-150477000D02*
X105230000Y-145323000D01*
X105270000Y-150479000D02*
X105270000Y-145321000D01*
X105310000Y-150480000D02*
X105310000Y-145320000D01*
X105350000Y-150480000D02*
X105350000Y-145320000D01*
X107904775Y-149625000D02*
X107904775Y-149125000D01*
X108154775Y-149375000D02*
X107654775Y-149375000D01*
X107970000Y-147900000D02*
G75*
G02*
X102730000Y-147900000I-2620000J0D01*
G01*
X102730000Y-147900000D02*
G75*
G02*
X107970000Y-147900000I2620000J0D01*
G01*
D13*
%TO.C,D2*%
X114615000Y-113850000D02*
X116365000Y-113850000D01*
X116365000Y-112662500D02*
X120995000Y-112662500D01*
X116365000Y-113850000D02*
X116365000Y-112662500D01*
X116365000Y-115037500D02*
X116365000Y-113850000D01*
X120995000Y-112662500D02*
X120995000Y-113850000D01*
X120995000Y-113850000D02*
X120995000Y-115037500D01*
X120995000Y-113850000D02*
X122745000Y-113850000D01*
X120995000Y-115037500D02*
X116365000Y-115037500D01*
D11*
X111805000Y-113850000D02*
G75*
G02*
X111605000Y-113850000I-100000J0D01*
G01*
X111605000Y-113850000D02*
G75*
G02*
X111805000Y-113850000I100000J0D01*
G01*
D13*
%TO.C,R1*%
X99485000Y-115960000D02*
X99485000Y-116540000D01*
X99485000Y-118880000D02*
X99485000Y-119460000D01*
X100410000Y-115960000D02*
X99485000Y-115960000D01*
X100410000Y-115960000D02*
X100410000Y-115160000D01*
X100410000Y-119460000D02*
X99485000Y-119460000D01*
X100410000Y-119460000D02*
X100410000Y-120260000D01*
X101335000Y-115960000D02*
X100410000Y-115960000D01*
X101335000Y-116540000D02*
X101335000Y-115960000D01*
X101335000Y-118880000D02*
X101335000Y-119460000D01*
X101335000Y-119460000D02*
X100410000Y-119460000D01*
%TO.C,R6*%
X127475000Y-127550000D02*
X128400000Y-127550000D01*
X127475000Y-128130000D02*
X127475000Y-127550000D01*
X127475000Y-130470000D02*
X127475000Y-131050000D01*
X127475000Y-131050000D02*
X128400000Y-131050000D01*
X128400000Y-127550000D02*
X128400000Y-126750000D01*
X128400000Y-127550000D02*
X129325000Y-127550000D01*
X128400000Y-131050000D02*
X128400000Y-131850000D01*
X128400000Y-131050000D02*
X129325000Y-131050000D01*
X129325000Y-128130000D02*
X129325000Y-127550000D01*
X129325000Y-131050000D02*
X129325000Y-130470000D01*
%TO.C,R3*%
X83675000Y-162000000D02*
X83675000Y-162580000D01*
X83675000Y-164920000D02*
X83675000Y-165500000D01*
X84600000Y-162000000D02*
X83675000Y-162000000D01*
X84600000Y-162000000D02*
X84600000Y-161200000D01*
X84600000Y-165500000D02*
X83675000Y-165500000D01*
X84600000Y-165500000D02*
X84600000Y-166300000D01*
X85525000Y-162000000D02*
X84600000Y-162000000D01*
X85525000Y-162580000D02*
X85525000Y-162000000D01*
X85525000Y-164920000D02*
X85525000Y-165500000D01*
X85525000Y-165500000D02*
X84600000Y-165500000D01*
D14*
%TO.C,C9*%
X124500000Y-142583000D02*
X124500000Y-142017000D01*
X124540000Y-142817000D02*
X124540000Y-141783000D01*
X124580000Y-142977000D02*
X124580000Y-141623000D01*
X124620000Y-143105000D02*
X124620000Y-141495000D01*
X124660000Y-143214000D02*
X124660000Y-141386000D01*
X124700000Y-143311000D02*
X124700000Y-141289000D01*
X124740000Y-143398000D02*
X124740000Y-141202000D01*
X124780000Y-143477000D02*
X124780000Y-141123000D01*
X124820000Y-141260000D02*
X124820000Y-141049000D01*
X124820000Y-143551000D02*
X124820000Y-143340000D01*
X124860000Y-141260000D02*
X124860000Y-140981000D01*
X124860000Y-143619000D02*
X124860000Y-143340000D01*
X124900000Y-141260000D02*
X124900000Y-140917000D01*
X124900000Y-143683000D02*
X124900000Y-143340000D01*
X124940000Y-141260000D02*
X124940000Y-140857000D01*
X124940000Y-143743000D02*
X124940000Y-143340000D01*
X124980000Y-141260000D02*
X124980000Y-140801000D01*
X124980000Y-143799000D02*
X124980000Y-143340000D01*
X125020000Y-141260000D02*
X125020000Y-140747000D01*
X125020000Y-143853000D02*
X125020000Y-143340000D01*
X125060000Y-141260000D02*
X125060000Y-140696000D01*
X125060000Y-143904000D02*
X125060000Y-143340000D01*
X125100000Y-141260000D02*
X125100000Y-140648000D01*
X125100000Y-143952000D02*
X125100000Y-143340000D01*
X125140000Y-141260000D02*
X125140000Y-140601000D01*
X125140000Y-143999000D02*
X125140000Y-143340000D01*
X125180000Y-141260000D02*
X125180000Y-140557000D01*
X125180000Y-144043000D02*
X125180000Y-143340000D01*
X125220000Y-141260000D02*
X125220000Y-140515000D01*
X125220000Y-144085000D02*
X125220000Y-143340000D01*
X125260000Y-141260000D02*
X125260000Y-140475000D01*
X125260000Y-144125000D02*
X125260000Y-143340000D01*
X125300000Y-141260000D02*
X125300000Y-140436000D01*
X125300000Y-144164000D02*
X125300000Y-143340000D01*
X125340000Y-141260000D02*
X125340000Y-140399000D01*
X125340000Y-144201000D02*
X125340000Y-143340000D01*
X125380000Y-141260000D02*
X125380000Y-140364000D01*
X125380000Y-144236000D02*
X125380000Y-143340000D01*
X125420000Y-141260000D02*
X125420000Y-140330000D01*
X125420000Y-144270000D02*
X125420000Y-143340000D01*
X125460000Y-141260000D02*
X125460000Y-140297000D01*
X125460000Y-144303000D02*
X125460000Y-143340000D01*
X125500000Y-141260000D02*
X125500000Y-140265000D01*
X125500000Y-144335000D02*
X125500000Y-143340000D01*
X125540000Y-141260000D02*
X125540000Y-140235000D01*
X125540000Y-144365000D02*
X125540000Y-143340000D01*
X125580000Y-141260000D02*
X125580000Y-140206000D01*
X125580000Y-144394000D02*
X125580000Y-143340000D01*
X125620000Y-141260000D02*
X125620000Y-140178000D01*
X125620000Y-144422000D02*
X125620000Y-143340000D01*
X125660000Y-141260000D02*
X125660000Y-140151000D01*
X125660000Y-144449000D02*
X125660000Y-143340000D01*
X125700000Y-141260000D02*
X125700000Y-140125000D01*
X125700000Y-144475000D02*
X125700000Y-143340000D01*
X125740000Y-141260000D02*
X125740000Y-140101000D01*
X125740000Y-144499000D02*
X125740000Y-143340000D01*
X125780000Y-141260000D02*
X125780000Y-140077000D01*
X125780000Y-144523000D02*
X125780000Y-143340000D01*
X125820000Y-141260000D02*
X125820000Y-140054000D01*
X125820000Y-144546000D02*
X125820000Y-143340000D01*
X125860000Y-141260000D02*
X125860000Y-140032000D01*
X125860000Y-144568000D02*
X125860000Y-143340000D01*
X125900000Y-141260000D02*
X125900000Y-140011000D01*
X125900000Y-144589000D02*
X125900000Y-143340000D01*
X125940000Y-141260000D02*
X125940000Y-139991000D01*
X125940000Y-144609000D02*
X125940000Y-143340000D01*
X125980000Y-141260000D02*
X125980000Y-139971000D01*
X125980000Y-144629000D02*
X125980000Y-143340000D01*
X126020000Y-141260000D02*
X126020000Y-139953000D01*
X126020000Y-144647000D02*
X126020000Y-143340000D01*
X126060000Y-141260000D02*
X126060000Y-139935000D01*
X126060000Y-144665000D02*
X126060000Y-143340000D01*
X126100000Y-141260000D02*
X126100000Y-139918000D01*
X126100000Y-144682000D02*
X126100000Y-143340000D01*
X126140000Y-141260000D02*
X126140000Y-139902000D01*
X126140000Y-144698000D02*
X126140000Y-143340000D01*
X126180000Y-141260000D02*
X126180000Y-139887000D01*
X126180000Y-144713000D02*
X126180000Y-143340000D01*
X126220000Y-141260000D02*
X126220000Y-139872000D01*
X126220000Y-144728000D02*
X126220000Y-143340000D01*
X126260000Y-141260000D02*
X126260000Y-139858000D01*
X126260000Y-144742000D02*
X126260000Y-143340000D01*
X126300000Y-141260000D02*
X126300000Y-139845000D01*
X126300000Y-144755000D02*
X126300000Y-143340000D01*
X126340000Y-141260000D02*
X126340000Y-139833000D01*
X126340000Y-144767000D02*
X126340000Y-143340000D01*
X126380000Y-141260000D02*
X126380000Y-139821000D01*
X126380000Y-144779000D02*
X126380000Y-143340000D01*
X126420000Y-141260000D02*
X126420000Y-139810000D01*
X126420000Y-144790000D02*
X126420000Y-143340000D01*
X126460000Y-141260000D02*
X126460000Y-139799000D01*
X126460000Y-144801000D02*
X126460000Y-143340000D01*
X126500000Y-141260000D02*
X126500000Y-139790000D01*
X126500000Y-144810000D02*
X126500000Y-143340000D01*
X126540000Y-141260000D02*
X126540000Y-139781000D01*
X126540000Y-144819000D02*
X126540000Y-143340000D01*
X126580000Y-141260000D02*
X126580000Y-139772000D01*
X126580000Y-144828000D02*
X126580000Y-143340000D01*
X126620000Y-141260000D02*
X126620000Y-139764000D01*
X126620000Y-144836000D02*
X126620000Y-143340000D01*
X126660000Y-141260000D02*
X126660000Y-139757000D01*
X126660000Y-144843000D02*
X126660000Y-143340000D01*
X126700000Y-141260000D02*
X126700000Y-139751000D01*
X126700000Y-144849000D02*
X126700000Y-143340000D01*
X126740000Y-141260000D02*
X126740000Y-139745000D01*
X126740000Y-144855000D02*
X126740000Y-143340000D01*
X126780000Y-141260000D02*
X126780000Y-139740000D01*
X126780000Y-144860000D02*
X126780000Y-143340000D01*
X126820000Y-141260000D02*
X126820000Y-139735000D01*
X126820000Y-144865000D02*
X126820000Y-143340000D01*
X126860000Y-141260000D02*
X126860000Y-139731000D01*
X126860000Y-144869000D02*
X126860000Y-143340000D01*
X126900000Y-144872000D02*
X126900000Y-139728000D01*
X126940000Y-144875000D02*
X126940000Y-139725000D01*
X126980000Y-144877000D02*
X126980000Y-139723000D01*
X127020000Y-144879000D02*
X127020000Y-139721000D01*
X127060000Y-144880000D02*
X127060000Y-139720000D01*
X127100000Y-144880000D02*
X127100000Y-139720000D01*
X129654775Y-144025000D02*
X129654775Y-143525000D01*
X129904775Y-143775000D02*
X129404775Y-143775000D01*
X129720000Y-142300000D02*
G75*
G02*
X124480000Y-142300000I-2620000J0D01*
G01*
X124480000Y-142300000D02*
G75*
G02*
X129720000Y-142300000I2620000J0D01*
G01*
%TD*%
M02*
