M48
; DRILL file {KiCad 9.0.7-9.0.7~ubuntu24.04.1} date 2026-02-08T16:41:22+0100
; FORMAT={-:-/ absolute / metric / decimal}
; #@! TF.CreationDate,2026-02-08T16:41:22+01:00
; #@! TF.GenerationSoftware,Kicad,Pcbnew,9.0.7-9.0.7~ubuntu24.04.1
; #@! TF.FileFunction,MixedPlating,1,4
FMAT,2
METRIC
; #@! TA.AperFunction,Plated,PTH,ViaDrill
T1C0.300
; #@! TA.AperFunction,Plated,PTH,ComponentDrill
T2C0.750
; #@! TA.AperFunction,Plated,PTH,ComponentDrill
T3C0.762
; #@! TA.AperFunction,Plated,PTH,ComponentDrill
T4C0.780
; #@! TA.AperFunction,Plated,PTH,ComponentDrill
T5C0.800
; #@! TA.AperFunction,Plated,PTH,ComponentDrill
T6C0.840
; #@! TA.AperFunction,Plated,PTH,ComponentDrill
T7C0.900
; #@! TA.AperFunction,Plated,PTH,ComponentDrill
T8C1.060
; #@! TA.AperFunction,Plated,PTH,ComponentDrill
T9C1.300
; #@! TA.AperFunction,Plated,PTH,ComponentDrill
T10C1.600
; #@! TA.AperFunction,NonPlated,NPTH,ComponentDrill
T11C2.000
%
G90
G05
T1
X50.65Y-182.3
X50.7Y-161.55
X50.9Y-157.7
X51.4Y-180.0
X51.5Y-112.15
X52.6Y-115.8
X54.95Y-174.05
X58.05Y-113.35
X58.2Y-117.2
X60.85Y-116.05
X60.85Y-170.25
X63.85Y-113.55
X64.2Y-170.95
X64.6Y-166.45
X65.9Y-131.4
X65.95Y-128.55
X66.1Y-180.9
X66.4Y-115.0
X67.55Y-118.4
X67.65Y-142.65
X67.9Y-122.8
X68.0Y-152.1
X68.2Y-118.35
X68.5Y-112.15
X68.95Y-128.8
X71.4Y-178.25
X71.9Y-186.6
X72.45Y-112.85
X72.6Y-126.95
X72.7Y-130.55
X72.9Y-142.8
X73.6Y-166.4
X73.75Y-135.95
X74.45Y-184.55
X75.0Y-122.4
X75.3Y-115.2
X77.3Y-176.85
X77.35Y-164.05
X77.6Y-182.25
X77.6Y-186.6
X78.35Y-113.1
X81.55Y-185.45
X82.5Y-182.05
X82.8Y-112.0
X83.017Y-173.898
X84.2Y-115.45
X85.85Y-168.5
X86.5Y-173.9
X87.1Y-115.85
X87.639Y-164.589
X87.85Y-165.95
X89.15Y-157.45
X89.4Y-142.45
X89.7Y-115.9
X90.2Y-126.65
X90.4Y-173.85
X91.45Y-159.15
X91.75Y-161.55
X92.6Y-115.75
X97.15Y-125.2
X97.5Y-131.6
X98.4Y-181.9
X98.45Y-136.1
X98.5Y-121.0
X99.75Y-123.6
X101.7Y-111.65
X102.95Y-159.1
X103.6Y-151.3
X103.9Y-143.45
X104.8Y-185.05
X105.2Y-166.35
X106.1Y-139.3
X106.5Y-125.2
X106.5Y-128.0
X106.55Y-130.55
X106.65Y-133.15
X107.7Y-165.95
X108.25Y-119.3
X109.85Y-133.25
X109.95Y-178.6
X110.0Y-182.25
X110.05Y-128.2
X111.9Y-157.9
X112.0Y-167.9
X112.25Y-136.55
X112.4Y-140.75
X113.05Y-184.75
X115.55Y-180.85
X116.1Y-184.95
X119.15Y-184.15
X119.75Y-176.95
X122.05Y-167.35
X122.1Y-162.55
X122.1Y-172.25
X122.2Y-160.4
X122.95Y-176.95
X123.65Y-158.55
X123.7Y-149.05
X123.75Y-153.2
X135.135Y-169.76
X135.15Y-173.1
X138.75Y-184.0
X142.5Y-166.75
X142.55Y-158.6
X142.6Y-148.1
X143.2Y-186.1
T2
X67.9Y-113.85
X67.9Y-120.85
X73.65Y-113.8
X73.65Y-120.8
X84.6Y-160.25
X84.6Y-167.25
X89.75Y-160.25
X89.75Y-167.25
X94.9Y-160.25
X94.9Y-167.25
X100.41Y-114.21
X100.41Y-121.21
X112.3Y-131.9
X112.3Y-138.9
X118.0Y-134.8
X119.25Y-118.5
X125.0Y-134.8
X126.25Y-118.5
X128.4Y-125.8
X128.4Y-132.8
T3
X54.245Y-114.455
X54.245Y-155.455
X56.785Y-114.455
X56.785Y-155.455
X59.325Y-114.455
X59.325Y-155.455
X61.865Y-114.455
X61.865Y-155.455
X86.095Y-114.305
X86.095Y-155.305
X88.635Y-114.305
X88.635Y-155.305
X91.175Y-114.305
X91.175Y-155.305
X93.715Y-114.305
X93.715Y-155.305
T4
X72.9Y-172.18
X72.9Y-174.72
X72.9Y-177.26
X72.9Y-179.8
X106.6Y-172.03
X106.6Y-174.57
X106.6Y-177.11
X106.6Y-179.65
T5
X67.9Y-138.1
X70.35Y-148.05
X70.35Y-155.6
X70.4Y-138.1
X70.4Y-163.0
X72.85Y-148.05
X72.85Y-155.6
X72.9Y-163.0
X104.1Y-147.9
X104.1Y-155.45
X104.1Y-162.85
X106.6Y-147.9
X106.6Y-155.45
X106.6Y-162.85
X109.05Y-120.5
X109.05Y-123.0
X117.995Y-142.4
X120.495Y-142.4
X125.85Y-142.3
X128.35Y-142.3
T6
X67.88Y-124.95
X67.88Y-127.49
X67.88Y-130.03
X67.88Y-132.57
X75.5Y-124.95
X75.5Y-127.49
X75.5Y-130.03
X75.5Y-132.57
X100.64Y-126.84
X100.64Y-129.38
X100.64Y-131.92
X100.64Y-134.46
X108.26Y-126.84
X108.26Y-129.38
X108.26Y-131.92
X108.26Y-134.46
X116.69Y-121.99
X116.69Y-129.61
X119.23Y-121.99
X119.23Y-129.61
X121.77Y-121.99
X121.77Y-129.61
X124.31Y-121.99
X124.31Y-129.61
T7
X117.05Y-156.25
X117.05Y-158.79
X117.05Y-161.33
X117.05Y-163.87
X117.05Y-166.41
X117.05Y-168.95
X117.05Y-171.49
X117.05Y-174.03
X119.59Y-156.25
X119.59Y-158.79
X119.59Y-161.33
X119.59Y-163.87
X119.59Y-166.41
X119.59Y-168.95
X119.59Y-171.49
X119.59Y-174.03
X137.37Y-156.25
X137.37Y-158.79
X137.37Y-161.33
X137.37Y-163.87
X137.37Y-166.41
X137.37Y-168.95
X137.37Y-171.49
X137.37Y-174.03
X139.91Y-156.25
X139.91Y-158.79
X139.91Y-161.33
X139.91Y-163.87
X139.91Y-166.41
X139.91Y-168.95
X139.91Y-171.49
X139.91Y-174.03
T8
X113.5Y-113.85
X123.86Y-113.85
X126.92Y-113.9
X137.28Y-113.9
T9
X134.5Y-144.45
X137.04Y-144.45
X139.58Y-144.45
T10
X52.05Y-176.463
X57.13Y-176.463
X62.21Y-176.463
X84.82Y-176.312
X89.9Y-176.312
X94.98Y-176.312
X137.202Y-131.86
X137.202Y-136.94
X137.35Y-118.82
X137.35Y-123.9
T11
X118.3Y-151.85
X138.7Y-151.85
M30
