%TF.GenerationSoftware,KiCad,Pcbnew,9.0.7-9.0.7~ubuntu24.04.1*%
%TF.CreationDate,2026-02-08T15:13:14+01:00*%
%TF.ProjectId,PCB-V2,5043422d-5632-42e6-9b69-6361645f7063,rev?*%
%TF.SameCoordinates,Original*%
%TF.FileFunction,Plated,1,4,PTH,Drill*%
%TF.FilePolarity,Positive*%
%FSLAX46Y46*%
G04 Gerber Fmt 4.6, Leading zero omitted, Abs format (unit mm)*
G04 Created by KiCad (PCBNEW 9.0.7-9.0.7~ubuntu24.04.1) date 2026-02-08 15:13:14*
%MOMM*%
%LPD*%
G01*
G04 APERTURE LIST*
%TA.AperFunction,ViaDrill*%
%ADD10C,0.300000*%
%TD*%
%TA.AperFunction,ComponentDrill*%
%ADD11C,0.750000*%
%TD*%
%TA.AperFunction,ComponentDrill*%
%ADD12C,0.762000*%
%TD*%
%TA.AperFunction,ComponentDrill*%
%ADD13C,0.780000*%
%TD*%
%TA.AperFunction,ComponentDrill*%
%ADD14C,0.800000*%
%TD*%
%TA.AperFunction,ComponentDrill*%
%ADD15C,0.840000*%
%TD*%
%TA.AperFunction,ComponentDrill*%
%ADD16C,0.900000*%
%TD*%
%TA.AperFunction,ComponentDrill*%
%ADD17C,1.060000*%
%TD*%
%TA.AperFunction,ComponentDrill*%
%ADD18C,1.300000*%
%TD*%
%TA.AperFunction,ComponentDrill*%
%ADD19C,1.600000*%
%TD*%
G04 APERTURE END LIST*
D10*
X50650000Y-182300000D03*
X50700000Y-161550000D03*
X50900000Y-157700000D03*
X51400000Y-180000000D03*
X51500000Y-112150000D03*
X52600000Y-115800000D03*
X54950000Y-174050000D03*
X58050000Y-113350000D03*
X58200000Y-117200000D03*
X60850000Y-116050000D03*
X60850000Y-170250000D03*
X63850000Y-113550000D03*
X64200000Y-170950000D03*
X64600000Y-166450000D03*
X65900000Y-131400000D03*
X65950000Y-128550000D03*
X66100000Y-180900000D03*
X66400000Y-115000000D03*
X67550000Y-118400000D03*
X67650000Y-142650000D03*
X67900000Y-122800000D03*
X68000000Y-152100000D03*
X68200000Y-118350000D03*
X68500000Y-112150000D03*
X68950000Y-128800000D03*
X71400000Y-178250000D03*
X71900000Y-186600000D03*
X72450000Y-112850000D03*
X72600000Y-126950000D03*
X72700000Y-130550000D03*
X72900000Y-142800000D03*
X73600000Y-166400000D03*
X73750000Y-135950000D03*
X74450000Y-184550000D03*
X75000000Y-122400000D03*
X75300000Y-115200000D03*
X77300000Y-176850000D03*
X77350000Y-164050000D03*
X77600000Y-182250000D03*
X77600000Y-186600000D03*
X78350000Y-113100000D03*
X81550000Y-185450000D03*
X82500000Y-182050000D03*
X82800000Y-112000000D03*
X83017392Y-173898217D03*
X84200000Y-115450000D03*
X85850000Y-168500000D03*
X86500000Y-173900000D03*
X87100000Y-115850000D03*
X87638784Y-164589025D03*
X87850000Y-165950000D03*
X89150000Y-157450000D03*
X89400000Y-142450000D03*
X89700000Y-115900000D03*
X90200000Y-126650000D03*
X90400000Y-173850000D03*
X91450000Y-159150000D03*
X91750000Y-161550000D03*
X92600000Y-115750000D03*
X97150000Y-125200000D03*
X97500000Y-131600000D03*
X98400000Y-181900000D03*
X98450000Y-136100000D03*
X98500000Y-121000000D03*
X99750000Y-123600000D03*
X101700000Y-111650000D03*
X102950000Y-159100000D03*
X103600000Y-151300000D03*
X103900000Y-143450000D03*
X104800000Y-185050000D03*
X105200000Y-166350000D03*
X106100000Y-139300000D03*
X106500000Y-125200000D03*
X106500000Y-128000000D03*
X106550000Y-130550000D03*
X106650000Y-133150000D03*
X107700000Y-165950000D03*
X108250000Y-119300000D03*
X109850000Y-133250000D03*
X109950000Y-178600000D03*
X110000000Y-182250000D03*
X110050000Y-128200000D03*
X111900000Y-157900000D03*
X112000000Y-167900000D03*
X112250000Y-136550000D03*
X112400000Y-140750000D03*
X113050000Y-184750000D03*
X115550000Y-180850000D03*
X116100000Y-184950000D03*
X119150000Y-184150000D03*
X119750000Y-176950000D03*
X122050000Y-167350000D03*
X122100000Y-162550000D03*
X122100000Y-172250000D03*
X122200000Y-160400000D03*
X122950000Y-176950000D03*
X123650000Y-158550000D03*
X123700000Y-149050000D03*
X123750000Y-153200000D03*
X135135247Y-169760274D03*
X135150000Y-173100000D03*
X138750000Y-184000000D03*
X142500000Y-166750000D03*
X142550000Y-158600000D03*
X142600000Y-148100000D03*
X143200000Y-186100000D03*
D11*
%TO.C,R10*%
X67900000Y-113850000D03*
X67900000Y-120850000D03*
%TO.C,R5*%
X73650000Y-113800000D03*
X73650000Y-120800000D03*
%TO.C,R3*%
X84600000Y-160250000D03*
X84600000Y-167250000D03*
%TO.C,R2*%
X89750000Y-160250000D03*
X89750000Y-167250000D03*
%TO.C,R4*%
X94900000Y-160250000D03*
X94900000Y-167250000D03*
%TO.C,R1*%
X100410000Y-114210000D03*
X100410000Y-121210000D03*
%TO.C,R9*%
X112300000Y-131900000D03*
X112300000Y-138900000D03*
%TO.C,R8*%
X118000000Y-134800000D03*
%TO.C,R7*%
X119250000Y-118500000D03*
%TO.C,R8*%
X125000000Y-134800000D03*
%TO.C,R7*%
X126250000Y-118500000D03*
%TO.C,R6*%
X128400000Y-125800000D03*
X128400000Y-132800000D03*
D12*
%TO.C,U5*%
X54245000Y-114455000D03*
X54245000Y-155455000D03*
X56785000Y-114455000D03*
X56785000Y-155455000D03*
X59325000Y-114455000D03*
X59325000Y-155455000D03*
X61865000Y-114455000D03*
X61865000Y-155455000D03*
%TO.C,U2*%
X86095000Y-114305000D03*
X86095000Y-155305000D03*
X88635000Y-114305000D03*
X88635000Y-155305000D03*
X91175000Y-114305000D03*
X91175000Y-155305000D03*
X93715000Y-114305000D03*
X93715000Y-155305000D03*
D13*
%TO.C,PS2*%
X72900000Y-172180000D03*
X72900000Y-174720000D03*
X72900000Y-177260000D03*
X72900000Y-179800000D03*
%TO.C,PS1*%
X106600000Y-172030000D03*
X106600000Y-174570000D03*
X106600000Y-177110000D03*
X106600000Y-179650000D03*
D14*
%TO.C,C3*%
X67900000Y-138100000D03*
%TO.C,C5*%
X70350000Y-148050000D03*
%TO.C,C4*%
X70350000Y-155600000D03*
%TO.C,C3*%
X70400000Y-138100000D03*
%TO.C,C2*%
X70400000Y-163000000D03*
%TO.C,C5*%
X72850000Y-148050000D03*
%TO.C,C4*%
X72850000Y-155600000D03*
%TO.C,C2*%
X72900000Y-163000000D03*
%TO.C,C8*%
X104100000Y-147900000D03*
%TO.C,C7*%
X104100000Y-155450000D03*
%TO.C,C6*%
X104100000Y-162850000D03*
%TO.C,C8*%
X106600000Y-147900000D03*
%TO.C,C7*%
X106600000Y-155450000D03*
%TO.C,C6*%
X106600000Y-162850000D03*
%TO.C,C1*%
X109050000Y-120500000D03*
X109050000Y-123000000D03*
%TO.C,C10*%
X117994888Y-142400000D03*
X120494888Y-142400000D03*
%TO.C,C9*%
X125850000Y-142300000D03*
X128350000Y-142300000D03*
D15*
%TO.C,U4*%
X67880000Y-124950000D03*
X67880000Y-127490000D03*
X67880000Y-130030000D03*
X67880000Y-132570000D03*
X75500000Y-124950000D03*
X75500000Y-127490000D03*
X75500000Y-130030000D03*
X75500000Y-132570000D03*
%TO.C,U3*%
X100640000Y-126840000D03*
X100640000Y-129380000D03*
X100640000Y-131920000D03*
X100640000Y-134460000D03*
X108260000Y-126840000D03*
X108260000Y-129380000D03*
X108260000Y-131920000D03*
X108260000Y-134460000D03*
%TO.C,U7*%
X116690000Y-121990000D03*
X116690000Y-129610000D03*
X119230000Y-121990000D03*
X119230000Y-129610000D03*
X121770000Y-121990000D03*
X121770000Y-129610000D03*
X124310000Y-121990000D03*
X124310000Y-129610000D03*
D16*
%TO.C,U1*%
X117050000Y-156250000D03*
X117050000Y-158790000D03*
X117050000Y-161330000D03*
X117050000Y-163870000D03*
X117050000Y-166410000D03*
X117050000Y-168950000D03*
X117050000Y-171490000D03*
X117050000Y-174030000D03*
X119590000Y-156250000D03*
X119590000Y-158790000D03*
X119590000Y-161330000D03*
X119590000Y-163870000D03*
X119590000Y-166410000D03*
X119590000Y-168950000D03*
X119590000Y-171490000D03*
X119590000Y-174030000D03*
X137370000Y-156250000D03*
X137370000Y-158790000D03*
X137370000Y-161330000D03*
X137370000Y-163870000D03*
X137370000Y-166410000D03*
X137370000Y-168950000D03*
X137370000Y-171490000D03*
X137370000Y-174030000D03*
X139910000Y-156250000D03*
X139910000Y-158790000D03*
X139910000Y-161330000D03*
X139910000Y-163870000D03*
X139910000Y-166410000D03*
X139910000Y-168950000D03*
X139910000Y-171490000D03*
X139910000Y-174030000D03*
D17*
%TO.C,D2*%
X113500000Y-113850000D03*
X123860000Y-113850000D03*
%TO.C,D1*%
X126920000Y-113900000D03*
X137280000Y-113900000D03*
D18*
%TO.C,U6*%
X134500000Y-144450000D03*
X137040000Y-144450000D03*
X139580000Y-144450000D03*
D19*
%TO.C,J4*%
X52050000Y-176462500D03*
X57130000Y-176462500D03*
X62210000Y-176462500D03*
%TO.C,J3*%
X84820000Y-176312500D03*
X89900000Y-176312500D03*
X94980000Y-176312500D03*
%TO.C,J2*%
X137202500Y-131860000D03*
X137202500Y-136940000D03*
%TO.C,J1*%
X137350000Y-118820000D03*
X137350000Y-123900000D03*
M02*
