%TF.GenerationSoftware,KiCad,Pcbnew,9.0.7-9.0.7~ubuntu24.04.1*%
%TF.CreationDate,2026-02-08T15:21:14+01:00*%
%TF.ProjectId,PCB-V2,5043422d-5632-42e6-9b69-6361645f7063,rev?*%
%TF.SameCoordinates,Original*%
%TF.FileFunction,Soldermask,Top*%
%TF.FilePolarity,Negative*%
%FSLAX46Y46*%
G04 Gerber Fmt 4.6, Leading zero omitted, Abs format (unit mm)*
G04 Created by KiCad (PCBNEW 9.0.7-9.0.7~ubuntu24.04.1) date 2026-02-08 15:21:14*
%MOMM*%
%LPD*%
G01*
G04 APERTURE LIST*
G04 Aperture macros list*
%AMRoundRect*
0 Rectangle with rounded corners*
0 $1 Rounding radius*
0 $2 $3 $4 $5 $6 $7 $8 $9 X,Y pos of 4 corners*
0 Add a 4 corners polygon primitive as box body*
4,1,4,$2,$3,$4,$5,$6,$7,$8,$9,$2,$3,0*
0 Add four circle primitives for the rounded corners*
1,1,$1+$1,$2,$3*
1,1,$1+$1,$4,$5*
1,1,$1+$1,$6,$7*
1,1,$1+$1,$8,$9*
0 Add four rect primitives between the rounded corners*
20,1,$1+$1,$2,$3,$4,$5,0*
20,1,$1+$1,$4,$5,$6,$7,0*
20,1,$1+$1,$6,$7,$8,$9,0*
20,1,$1+$1,$8,$9,$2,$3,0*%
G04 Aperture macros list end*
%ADD10R,1.348000X1.348000*%
%ADD11C,1.348000*%
%ADD12R,2.400000X2.400000*%
%ADD13C,2.400000*%
%ADD14C,1.258000*%
%ADD15RoundRect,0.250000X0.550000X0.550000X-0.550000X0.550000X-0.550000X-0.550000X0.550000X-0.550000X0*%
%ADD16C,1.600000*%
%ADD17C,1.524000*%
%ADD18RoundRect,0.250000X-0.550000X-0.550000X0.550000X-0.550000X0.550000X0.550000X-0.550000X0.550000X0*%
%ADD19R,1.288000X1.288000*%
%ADD20C,1.288000*%
%ADD21RoundRect,0.250000X0.550000X-0.550000X0.550000X0.550000X-0.550000X0.550000X-0.550000X-0.550000X0*%
%ADD22C,3.000000*%
%ADD23C,2.000000*%
%ADD24R,2.000000X1.600000*%
%ADD25R,1.950000X1.950000*%
%ADD26C,1.950000*%
%ADD27RoundRect,0.102000X0.795000X0.795000X-0.795000X0.795000X-0.795000X-0.795000X0.795000X-0.795000X0*%
%ADD28C,1.794000*%
%ADD29RoundRect,0.102000X-0.795000X-0.795000X0.795000X-0.795000X0.795000X0.795000X-0.795000X0.795000X0*%
G04 APERTURE END LIST*
D10*
%TO.C,U3*%
X100640000Y-126840000D03*
D11*
X100640000Y-129380000D03*
X100640000Y-131920000D03*
X100640000Y-134460000D03*
X108260000Y-134460000D03*
X108260000Y-131920000D03*
X108260000Y-129380000D03*
X108260000Y-126840000D03*
%TD*%
D12*
%TO.C,J3*%
X84820000Y-176312500D03*
D13*
X89900000Y-176312500D03*
X94980000Y-176312500D03*
%TD*%
D14*
%TO.C,R7*%
X126250000Y-118500000D03*
X119250000Y-118500000D03*
%TD*%
D15*
%TO.C,C7*%
X106600000Y-155450000D03*
D16*
X104100000Y-155450000D03*
%TD*%
D17*
%TO.C,U2*%
X93715000Y-155305000D03*
X91175000Y-155305000D03*
X88635000Y-155305000D03*
X86095000Y-155305000D03*
X93715000Y-114305000D03*
X91175000Y-114305000D03*
X88635000Y-114305000D03*
X86095000Y-114305000D03*
%TD*%
D14*
%TO.C,R5*%
X73650000Y-113800000D03*
X73650000Y-120800000D03*
%TD*%
%TO.C,R2*%
X89750000Y-167250000D03*
X89750000Y-160250000D03*
%TD*%
D18*
%TO.C,C3*%
X67900000Y-138100000D03*
D16*
X70400000Y-138100000D03*
%TD*%
D19*
%TO.C,PS2*%
X72900000Y-179800000D03*
D20*
X72900000Y-177260000D03*
X72900000Y-174720000D03*
X72900000Y-172180000D03*
%TD*%
D15*
%TO.C,C2*%
X72900000Y-163000000D03*
D16*
X70400000Y-163000000D03*
%TD*%
D19*
%TO.C,PS1*%
X106600000Y-179650000D03*
D20*
X106600000Y-177110000D03*
X106600000Y-174570000D03*
X106600000Y-172030000D03*
%TD*%
D18*
%TO.C,C10*%
X117994888Y-142400000D03*
D16*
X120494888Y-142400000D03*
%TD*%
D21*
%TO.C,C1*%
X109050000Y-123000000D03*
D16*
X109050000Y-120500000D03*
%TD*%
D10*
%TO.C,U4*%
X75500000Y-132570000D03*
D11*
X75500000Y-130030000D03*
X75500000Y-127490000D03*
X75500000Y-124950000D03*
X67880000Y-124950000D03*
X67880000Y-127490000D03*
X67880000Y-130030000D03*
X67880000Y-132570000D03*
%TD*%
D15*
%TO.C,C4*%
X72850000Y-155600000D03*
D16*
X70350000Y-155600000D03*
%TD*%
D17*
%TO.C,U5*%
X61865000Y-155455000D03*
X59325000Y-155455000D03*
X56785000Y-155455000D03*
X54245000Y-155455000D03*
X61865000Y-114455000D03*
X59325000Y-114455000D03*
X56785000Y-114455000D03*
X54245000Y-114455000D03*
%TD*%
D15*
%TO.C,C5*%
X72850000Y-148050000D03*
D16*
X70350000Y-148050000D03*
%TD*%
D14*
%TO.C,R9*%
X112300000Y-131900000D03*
X112300000Y-138900000D03*
%TD*%
D22*
%TO.C,U1*%
X118300000Y-151850000D03*
X138700000Y-151850000D03*
D23*
X119590000Y-156250000D03*
X117050000Y-158790000D03*
X119590000Y-158790000D03*
X117050000Y-174030000D03*
X117050000Y-161330000D03*
X119590000Y-161330000D03*
X119590000Y-163870000D03*
X119590000Y-166410000D03*
X119590000Y-168950000D03*
X119590000Y-171490000D03*
X117050000Y-171490000D03*
X117050000Y-168950000D03*
X117050000Y-163870000D03*
X117050000Y-166410000D03*
X119590000Y-174030000D03*
X137370000Y-174030000D03*
X139910000Y-168950000D03*
X137370000Y-168950000D03*
X139910000Y-166410000D03*
X137370000Y-166410000D03*
X137370000Y-156250000D03*
X137370000Y-163870000D03*
X139910000Y-163870000D03*
X139910000Y-161330000D03*
X137370000Y-158790000D03*
X137370000Y-161330000D03*
X139910000Y-156250000D03*
X139910000Y-158790000D03*
X117050000Y-156250000D03*
D24*
X137370000Y-171490000D03*
X139910000Y-171490000D03*
D23*
X139910000Y-174030000D03*
%TD*%
D10*
%TO.C,U7*%
X124310000Y-121990000D03*
D11*
X121770000Y-121990000D03*
X119230000Y-121990000D03*
X116690000Y-121990000D03*
X116690000Y-129610000D03*
X119230000Y-129610000D03*
X121770000Y-129610000D03*
X124310000Y-129610000D03*
%TD*%
D14*
%TO.C,R4*%
X94900000Y-160250000D03*
X94900000Y-167250000D03*
%TD*%
D25*
%TO.C,U6*%
X134500000Y-144450000D03*
D26*
X137040000Y-144450000D03*
X139580000Y-144450000D03*
%TD*%
D27*
%TO.C,D1*%
X137280000Y-113900000D03*
D28*
X126920000Y-113900000D03*
%TD*%
D14*
%TO.C,R10*%
X67900000Y-120850000D03*
X67900000Y-113850000D03*
%TD*%
D12*
%TO.C,J4*%
X52050000Y-176462500D03*
D13*
X57130000Y-176462500D03*
X62210000Y-176462500D03*
%TD*%
D15*
%TO.C,C6*%
X106600000Y-162850000D03*
D16*
X104100000Y-162850000D03*
%TD*%
D14*
%TO.C,R8*%
X118000000Y-134800000D03*
X125000000Y-134800000D03*
%TD*%
D12*
%TO.C,J1*%
X137350000Y-123900000D03*
D13*
X137350000Y-118820000D03*
%TD*%
D12*
%TO.C,J2*%
X137202500Y-136940000D03*
D13*
X137202500Y-131860000D03*
%TD*%
D15*
%TO.C,C8*%
X106600000Y-147900000D03*
D16*
X104100000Y-147900000D03*
%TD*%
D29*
%TO.C,D2*%
X113500000Y-113850000D03*
D28*
X123860000Y-113850000D03*
%TD*%
D14*
%TO.C,R1*%
X100410000Y-114210000D03*
X100410000Y-121210000D03*
%TD*%
%TO.C,R6*%
X128400000Y-132800000D03*
X128400000Y-125800000D03*
%TD*%
%TO.C,R3*%
X84600000Y-160250000D03*
X84600000Y-167250000D03*
%TD*%
D15*
%TO.C,C9*%
X128350000Y-142300000D03*
D16*
X125850000Y-142300000D03*
%TD*%
M02*
